<svg preserveAspectRatio="xMidYMid meet" class="pgsvg" xmlns="http://www.w3.org/2000/svg" xmlns:xlink="http://www.w3.org/1999/xlink" xmlns:inkscape="http://www.inkscape.org/namespaces/inkscape" version="1.1" width="595.275" height="644.000" viewBox="0 115.000 595.275 644.000">
<defs>
<clipPath id="p071_clip_1">
<path transform="matrix(1,0,0,-1,-595.275,841.89)" d="M595.275 0H1190.55V841.89H595.275Z" clip-rule="evenodd"/>
</clipPath>
<clipPath id="p071_clip_3">
<path transform="matrix(1,0,0,-1,-595.275,841.89)" d="M0 0H1190.551V841.89H0Z"/>
</clipPath>
<clipPath id="p071_clip_4">
<path transform="matrix(1,0,0,-1,-595.275,841.89)" d="M646.798 279.496C638.845 279.496 632.398 273.049 632.398 265.096V110.033C632.398 102.08 638.845 95.633 646.798 95.633H795.892C803.844 95.633 810.292 102.08 810.292 110.033V265.096C810.292 273.049 803.844 279.496 795.892 279.496Z"/>
</clipPath>
<mask id="p071_mask_5">
<g transform="matrix(.23969178,0,0,.23992962,36.065187,562.39407)">
<image id="p071_image_6" width="751" height="771" xlink:href="ART/ac6c9d88035db.webp"/>
</g>
</mask>
<clipPath id="p071_clip_8">
<path transform="matrix(1,0,0,-1,-595.275,841.89)" d="M991.057 493.288C983.105 493.288 976.658 486.842 976.658 478.888V323.825C976.658 315.873 983.105 309.425 991.057 309.425H1140.151C1148.104 309.425 1154.552 315.873 1154.552 323.825V478.888C1154.552 486.842 1148.104 493.288 1140.151 493.288Z"/>
</clipPath>
<mask id="p071_mask_9">
<g transform="matrix(.23974858,0,0,.2398234,381.38276,348.44075)">
<image id="p071_image_10" width="742" height="768" xlink:href="ART/aed25cb5898ad.webp"/>
</g>
</mask>
<clipPath id="p071_clip_12">
<path transform="matrix(1,0,0,-1,-595.275,841.89)" d="M1071.203 529.628H1154.552V595.21499H1071.203Z"/>
</clipPath>
<clipPath id="p071_clip_14">
<path transform="matrix(1,0,0,-1,-595.275,841.89)" d="M0 0H1190.551V841.89H0Z"/>
</clipPath>
<clipPath id="p071_clip_15">
<path transform="matrix(1,0,0,-1,-595.275,841.89)" d="M0 0H1190.551V841.89H0Z"/>
</clipPath>
<clipPath id="p071_clip_16">
<path transform="matrix(1,0,0,-1,-595.275,841.89)" d="M48 566.221C41.373 566.221 36 560.848 36 554.22V374.818C36 368.19 41.373 362.817 48 362.817H547.276C553.903 362.817 559.275 368.19 559.275 374.818V554.22C559.275 560.848 553.903 566.221 547.276 566.221Z"/>
</clipPath>
<clipPath id="p071_clip_18">
<path transform="matrix(1,0,0,-1,-595.275,841.89)" d="M0 0H1190.55V841.89H0Z"/>
</clipPath>
</defs>
<g>
<g clip-path="url(#p071_clip_1)">
<text fill="#414042" xml:space="preserve" transform="matrix(1.005828 0 -0 .99420568 -595.275 841.89)" font-size="10.058281" font-family="ABCNormal-Regular"><tspan y="-705.98049" x="35.79141 41.582967 47.231698 52.733575 55.001718 57.264829 62.86729 65.13041 68.407398 70.67755 76.00844 79.284427 81.5928 86.56661 92.06849 94.33562 100.30823 103.57013 109.11124 114.251018 116.52721 122.49982 128.05904 133.02782 135.29496 141.26856 144.58679 149.975 155.47588 158.75286 161.01598 166.5269 171.893 174.15612 176.42325 179.73445 183.05368 188.39362 190.65674 196.2582 198.52132 204.14792 210.06218 212.32932 215.64151 218.95975 224.34796 229.81664 234.77437 239.74317 242.01129 247.0334 252.57955 258.04826 263.64067 265.9088 271.29304 276.2618 278.52897 286.7556 292.30979 298.22407 300.4912 306.4648 311.87013 316.84495 322.40013 324.70246 330.39845 336.37205 345.37925 350.93443 356.50373 359.82295 362.0911 367.46525 373.10997 379.03428 381.30244 386.5267 394.7886 400.16273 403.4337 409.42036 414.38914 416.65629 422.14814 427.7023 431.25489 434.53089 436.794 440.23997 442.50306 448.014 453.3449 456.59675 462.15596 467.12474 469.39189 472.62965 478.2824 480.55055 486.5091 491.88426 495.43583 498.71284 500.97596 506.4195 508.68263 514.64218 520.0163 525.5856 528.9692 533.9379 536.2061 544.5877 550.2374 556.06118">The initiative provides practical training tracks such as web development and awards certificates to participants who </tspan></text>
<text fill="#414042" xml:space="preserve" transform="matrix(.9987743 0 -0 1.0012273 -595.275 841.89)" font-size="9.987742" font-family="ABCNormal-Regular"><tspan y="-688.04537" x="36.04418 41.46753 47.090627 55.985715 61.87848 64.130718 69.56605 72.762119 78.18945 80.31684 84.98112 90.24766 99.46635 101.593738 107.14592 110.38195 112.50934 115.76534 121.3415 126.76484 128.89223 134.31157 139.94268 145.39499 148.7349 153.6988 159.04724 167.18726 172.81136 176.06937 181.22304 183.34044 185.46784 193.74369 195.96396 199.21997 204.73319 206.86058 212.75835 215.96343 221.61748 227.48429 230.68436 236.17163 241.1845 246.07849 248.20589 257.11793 262.741 268.2702 270.48948 273.67057 279.29365 282.4937 288.00193 293.84474 295.9721 299.22813 304.7873 307.99238 313.62345 319.07575 324.94355 330.45677 332.5841 337.89759 342.91044 347.87437 353.3616 358.37547 363.33839 372.24946 377.73173 383.22898 386.55488 391.5817 393.6991 395.82649 401.088 404.55876 407.75386 413.2361 418.8083 424.69606 429.9995 435.57566 440.99504 446.41337 448.53077 450.65815 455.9616 461.53279 467.37559 469.50297 475.40074 477.64497 482.9065 486.37223 489.62025 495.24333 498.5013 507.34046 509.4678 514.7713 520.33749 525.63296 527.89126 533.23568 536.45578 538.663 544.1213 549.13919 551.3065 553.43386 559.9558">complete 75% of the coursework, with progress monitored through assessments, attendance, and platform analytics. A </tspan></text>
<text fill="#414042" xml:space="preserve" transform="matrix(.9932623 0 -0 1.0067834 -595.275 841.89)" font-size="9.932623" font-family="ABCNormal-Regular"><tspan y="-671.3359" x="36.2442 39.380926 44.88161 48.178247 53.417707 55.59295 57.6788 63.17452 66.372829 68.45867 71.801 74.02094 78.87303 84.24658 86.33243 91.696048 97.261287 102.780849 108.346088 111.7947 115.07545 119.92257 122.008419 130.21277 132.388 134.56325 136.73848 138.82433 144.68755 150.0611 152.14694 157.98633 163.41252 165.58777 167.80672 172.6598 178.08499 181.24158 186.69359 192.58563 194.67148 196.75733 202.16464 207.42496 212.76673 218.22966 220.3155 225.67813 231.24439 240.06256 245.90195 249.10027 251.30728 256.19514 258.3704 263.8681 269.6489 271.73478 277.16197 282.65467 284.74055 290.56504 295.81343 299.26106 302.43748 304.6127 309.92768 312.1029 317.9274 323.17579 328.61589 331.89759 336.87086 338.95674 341.04258 344.1992 349.60554 354.86683 360.20863 365.6805 367.85575 373.35249 379.13328 381.21913 384.74424 390.1704 395.66313 397.749 399.96299 405.3693 410.61769 413.83088 419.35047 424.77568 428.0713 433.0346 435.17015 437.25599 442.91563 448.3875 450.5945 455.44163 457.5275 463.352 468.60035 472.04899 475.2592 480.77876 486.20396 489.4996 494.40827 499.88117 502.0564 507.8471 509.93299 515.18936 521.03768 526.85629 530.01187 535.443 540.4024 545.3121 550.7432 555.5904 557.6763 563.10946">total of five cohorts will be delivered, each comprising 25 participants, reaching 125 learners. This partnership addresses a </tspan></text>
<text fill="#414042" xml:space="preserve" transform="matrix(.9969052 0 -0 1.0031043 -595.275 841.89)" font-size="9.969052" font-family="ABCNormal-Regular"><tspan y="-660.8383" x="36.11176 41.490068 44.71804 46.921205 50.12725 52.32443 57.743608 63.020227 65.21841 67.33185 72.87863 78.12235 81.3274 83.524578 89.12918 94.675968 99.95258 102.150768 104.2642 109.6425 115.190288 120.4669 122.66408 124.90313 130.36617 135.90099 141.76976 147.16899 149.27745 151.39089 156.68544 161.57028 163.68372 168.92244 171.03588 175.96059 178.1528 183.99964 189.50954 191.7127 195.08524 197.28342 202.70259 207.98719 213.46518 216.7101 218.82353 224.70227 227.89237 233.49596 239.40862 245.0122 248.49141 251.69646 253.89363 259.49723 264.99519 267.1086 272.64244 275.8674 277.98088 283.71507 289.59779 294.68797 300.5029 303.70799 305.91114 311.19575 316.69367 318.80714 324.65397 327.90089 333.19349 339.06623 344.51133 349.75505 352.93519 358.4032 363.28306 365.39649 368.68727 373.98484 379.38508 384.7933 386.90675 392.7486 394.95179 398.46986 401.84239 404.04054 409.40388 414.82408 417.03523 420.5244 425.50395 427.61738 432.56303 438.05598 443.4193 448.85246 452.08045 454.28364 459.81947 465.63639 467.74983 473.21287 482.08137 487.9601 490.19917 495.6253 500.71449 509.5999 515.06399 520.542 523.7869 525.9004 531.7732 537.2283 542.6365 544.74996 547.91616 553.4739 555.5874 561.0404">critical national challenge, as a significant proportion of Egyptian graduates face difficulty securing employment due to a </tspan></text>
<text fill="#414042" xml:space="preserve" transform="matrix(.9960823 0 -0 1.0039331 -595.275 841.89)" font-size="9.960823" font-family="ABCNormal-Regular"><tspan y="-647.34378" x="36.14159 41.078176 46.12532 48.316705 50.508085 52.741304 57.612146 59.71388 65.562877 70.83913 76.65625 78.75799 84.6518 90.05953 93.532878 101.63301 107.11744 112.57299 118.0614 120.16314 125.45334 130.86405 136.14826 142.01717 147.4717 156.30098 158.49237 163.84133 165.94307 171.42351 177.28743 182.733 188.14472 193.37413 196.57256 198.76393 204.35894 209.84735 211.9491 217.22632 222.76953 228.58664 230.68839 232.91265 238.18889 244.0827 249.68666 255.11132 258.3187 260.4204 269.28654 274.5628 277.79908 282.50358 287.9123 291.14958 293.25129 298.80046 304.28489 309.76536 315.64823 320.6396 322.7911 324.89283 331.40324 336.3737 338.47538 343.92997 349.46223 355.00047 360.2767 365.8249 371.17387 373.37223 378.8985 384.70567 386.80738 392.0966 397.48838 402.88117 408.3407 413.32707 418.1979 420.29963 423.45918 429.00733 431.10905 436.9421 439.1285 444.9516 447.15296 450.4719 455.74018 457.93159 460.03327 465.30955 470.85273 476.66987 478.77159 483.65638 489.28623 494.6979 499.92738 503.12577 505.31718 510.91316 516.45138 521.71969 523.911 526.01278 529.25009 532.4903 537.7337 539.93209 545.4334 547.6318 553.15908 559.0798 561.40066">skills gap between academic education and labour market needs. By enhancing access to digital and vocational training, </tspan></text>
<text fill="#414042" xml:space="preserve" transform="matrix(.99161997 0 -0 1.008451 -595.275 841.89)" font-size="9.916199" font-family="ABCNormal-Regular"><tspan y="-631.55258" x="36.30423 39.502206 45.00371 50.35846 52.430948 54.59863 60.053529 62.223196 65.38647 67.55712 72.74329 75.90657 78.11392 82.95104 88.305789 90.37828 95.7241 101.27321 106.69637 109.894359 113.08042 115.24216 121.06197 126.4435 129.58197 134.99622 139.82541 141.8979 145.0215 150.525 152.59748 154.76515 163.56082 169.38263 172.53102 177.92642 182.92618 185.0879 190.56859 196.3299 198.40239 206.45037 211.99848 215.19942 220.38759 223.57862 229.12772 232.28008 237.62689 242.98165 245.05413 248.19657 253.58702 258.82673 264.61186 266.7795 272.28105 277.69526 282.6385 287.46769 289.54017 294.77095 300.2685 306.03974 308.1122 312.99595 318.3755 324.1963 330.05284 335.6019 339.0359 342.19917 344.36683 349.84654 355.60786 357.68034 363.49223 366.63963 372.1798 377.4195 383.24034 388.6496 391.8228 393.8953 399.33335 404.68016 410.22926 415.73078 421.27986 430.04679 432.2085 437.51368 439.58616 444.81794 450.31449 456.08573 458.1582 463.05186 468.63566 473.93489 476.10655 481.32939 483.4911 485.56358 487.73127 493.23277 498.55976 500.74827 506.1625 511.03535 513.1971 518.74618 524.1902 526.26266 528.4244 533.86837 535.94088 541.6199 547.4456 552.483 558.2423 561.6158">the initiative contributes to improving workforce readiness and supporting broader economic and social inclusion in Egypt.</tspan></text>
<text fill="#414042" xml:space="preserve" transform="matrix(1.0099505 0 -0 .9901476 -595.275 841.89)" font-size="10.099504" font-family="ABCNormal-Regular"><tspan y="-616.9684" x="35.64531 41.49797 47.20823 52.768007 55.10099 58.59845 60.911237 64.360218 69.45643 72.824619 75.1576 80.84362 84.488529 87.90822 90.22101 92.53379 98.24405 103.80383 106.13682 111.227977 116.84835 121.98899 127.05793 129.36466 135.12238 140.77307 143.10605 148.79207 152.14006 154.47306 157.83618 163.54647 169.10623 171.43923 176.65764 182.25275 187.68831 191.05448 196.70415 199.03714 202.32553 208.0368 210.36978 216.42041 221.85495 225.22112 230.8718 233.20478 238.75647 244.51419 250.22447 255.98218 259.5867 262.95487 265.28788 273.62098 279.0656 284.09013 286.4231 291.50419 297.1104 302.66215 308.21385 313.83424 318.97489 324.06605 327.5009 333.07279 335.37953 337.7347 342.86024 345.1932 350.90348 356.51985 358.86497 364.84895 367.18193 372.57508 375.94328 378.27626 384.36524 389.7917 392.12773 397.6875 400.02049 407.02449 412.41157 415.76463 421.3153 423.53215 425.8651 434.31944 440.0297 445.64503 448.95259 454.5124 456.84538 462.86674 468.30128 471.90577 475.23356 477.54026 483.0435 485.35627 491.3776 496.81214 502.4426 505.87748 510.90193 513.2349 518.8502 524.53829 530.5535 535.979 542.0044 547.64596 553.76626">The first offline session of the Learn to Earn cohort was successfully held at Valu Caf&#x00e9;, where participants engaged </tspan><tspan y="-603.839" x="35.64531 38.003549 43.698659 46.122537 48.480775 54.155687 57.50266 63.158388 66.57303 72.06514 77.67037 81.042598 83.44627 88.52228 94.126499 96.550388 101.68598 107.35079 112.53587 117.649257 120.00042 125.80258 131.54921 136.61815 139.04203 147.5256 149.88587 153.29344 159.00067 161.3589 167.05402 169.4779 174.91043 177.3343 183.42937 188.7104 194.45702 199.936 209.01647 211.36763 216.92134 219.34522 224.8242 230.57083 236.59923 239.0231 244.61923 250.4214 252.77257 255.15708 260.63606 266.7412 272.54338 275.958 281.39457 284.76676 287.17048 292.24748 297.85169 300.27558 305.9313 311.49815 316.74079 319.09904 322.45613 328.25828 333.9958 343.1227 348.77845 354.45338 358.0508 360.31208 362.73597 366.08799 371.69526 375.15937 377.55299 383.243 388.84828 392.22047 394.5787 400.3112 406.32948 408.75337 413.89396 417.30256 420.6586 426.46076 432.19325 438.21153 440.63539 443.029 448.53929 453.6163 459.27204 461.66563 466.73454 469.15843 474.8889 478.28129 480.70518 486.3609 492.03584 495.4434 501.1779 506.8427 511.9561 514.31838 519.80239 524.9359 533.99417 536.418 541.897 547.64358 553.7638">in interactive sessions within a dynamic and collaborative environment, reflecting strong levels of enthusiasm and </tspan><tspan y="-590.70968" x="35.64531 41.32931 47.08603 53.16593 58.66006 64.755107 70.4391 79.59026 85.27527 90.97442 94.586">engagement.</tspan></text>
<text fill="#414042" xml:space="preserve" transform="matrix(1.0014141 0 -0 .99858799 -595.275 841.89)" font-size="10.01414" font-family="ABCNormal-Regular"><tspan y="-286.29408" x="35.949167 42.93303 48.66412 54.650575 60.03818 62.671899 70.41283 77.17538 83.27398 85.9077 88.54142 94.48982 97.123538 102.970798 109.02234 111.65606 114.31781 120.048908 126.40088 132.45243 136.13562 141.82366 145.46579 148.0995 154.15004 160.09845 162.73218 171.44348 174.0772 177.75438 183.70279 186.3365 190.01271 196.01718 201.87546 204.50919 211.49304 217.22414 223.21059 228.5982 231.23194 238.97287 245.73543 251.83405 254.46776 260.5794 266.63795 272.51823 278.5177 284.83467 290.52268 294.1648 296.79853 302.84907 308.79747 311.43116 315.0963 321.14787 324.80305 327.43675 334.7731 340.8236 350.1548 359.48399 365.36427 371.32069 373.9544 377.88197 383.30964 385.94334 393.24864 399.00978 404.3423 410.25364 412.9254 418.97596 425.3029 434.6511 440.56144 446.4868 450.172 452.8057 458.7992 464.5403 469.86784 472.50154 477.8701 480.49378 486.78968 492.79414 498.7305 505.00938 507.64308 513.3311 515.96487 521.3595 525.03677 528.7209 534.409 538.0251 543.9615 550.2424 552.8761 558.474">Bank NXT in collaboration with the Bank NXT Foundation for Community Development has signed a strategic </tspan></text>
<text fill="#414042" xml:space="preserve" transform="matrix(1.0060368 0 -0 .99399939 -595.275 841.89)" font-size="10.060369" font-family="ABCNormal-Regular"><tspan y="-274.5372" x="35.78398 42.14817 47.926847 51.883588 55.598886 61.653215 67.61197 71.41379 76.84941 82.85645 85.52245 91.850429 94.521457 103.295108 105.96714 109.68343 115.67941 118.35044 124.646228 127.35247 132.78908 138.61405 147.24584 153.23075 159.6241 165.09694 167.77298 173.13114 179.12108 184.99434 191.03157 197.03762 199.70362 205.61812 211.38974 214.05574 216.72676 223.46218 229.37769 235.1654 241.54267 247.50243 256.70869 262.18153 264.85255 267.67549 274.262 279.6986 286.21675 289.35557 292.02659 295.66844 301.72477 304.40083 309.83644 316.2499 322.3515 328.4018 333.83946 339.94004 343.63218 346.3032 352.30924 358.2851 360.96116 366.40278 370.12513 376.0849 382.46318 388.42195 394.39683 398.18357 403.5558 406.22679 412.0196 417.89283 421.55885 427.66447 433.1504 438.5226 441.19364 444.9099 450.94615 454.60713 460.5961 466.50154 469.17256 474.96534 480.87983 486.66758 493.04487 499.00465 508.37083 511.03684 516.89199 519.563 525.4393 528.1354 533.9252 539.4111 544.8487 550.8125 555.95339">partnership with Elsewedy Technical Academy (STA) to sponsor 52 students across three academic classes </tspan></text>
<text fill="#414042" xml:space="preserve" transform="matrix(1.0099505 0 -0 .9901476 -595.275 841.89)" font-size="10.099504" font-family="ABCNormal-Regular"><tspan y="-262.4758" x="35.64531 41.685827 47.155717 53.20936 56.986574 59.79424 65.62165 68.429309 72.23076 78.36116 82.10706 88.191 94.5739 98.215778 103.67052 109.703968 115.57682 119.354038 122.16169 128.67082 134.72446 138.51279 141.25984 147.4862 154.00443 156.71109 159.51876 165.80974 171.95832 177.95742 180.76508 187.22472 193.09658 197.1394 200.93985 207.08843 213.14208 217.02835 222.55683 228.65793 231.405 237.82828 240.63594 246.62596 252.82202 262.3428 268.4005 273.86433 276.672 282.55497 287.7158">over a three-year period. The partnership comes as </tspan></text>
<text fill="#414042" xml:space="preserve" transform="matrix(.9981884 0 -0 1.0018149 -595.275 841.89)" font-size="9.981884" font-family="ABCNormal-Regular"><tspan y="-246.44255" x="36.06534 42.341947 48.039606 51.927549 55.580919 58.09635 64.042568 67.67597 70.191417 73.84478 79.81395 85.633388 88.14883 94.41546 100.11212 106.06531 111.51542 113.85418 119.14458 121.66001 127.67709 133.6243 139.9059 145.87508 148.48833 154.43553 160.66423 163.17966 168.99211 175.0092 184.29436 193.55057 196.16584 199.81919 209.12232 214.99767 220.88898 224.54235 227.05779 230.63329 236.60247 239.11789 244.46518 250.31157 256.60218 262.9287 268.9448 272.83274 276.44816 279.06044 285.00764 291.04768">part of the bank&#x2019;s ongoing commitment to supporting </tspan></text>
<text fill="#414042" xml:space="preserve" transform="matrix(1.0099505 0 -0 .9901476 -595.275 841.89)" font-size="10.099504" font-family="ABCNormal-Regular"><tspan y="-236.2171" x="35.64531 40.074956 46.84768 53.503259 60.323453 67.11335 70.54718 77.24416 83.79773 87.23157 91.41276 98.18044 105.33797 112.07131 118.7693 125.283489 129.73737 133.1712 140.05603 146.8328 151.01398 154.45488 161.23166 165.41286 172.15628 175.63254 182.40528 189.09418 193.5834 198.06154 201.49538 208.19336 214.74591 218.17974 222.36093 229.10335 235.91849 243.03359 246.47449 253.31186 260.08457 266.826 271.3041 274.745 281.56016 287.67036">technical education in electrical engineering </tspan></text>
<text fill="#414042" xml:space="preserve" transform="matrix(.99330767 0 -0 1.0067375 -595.275 841.89)" font-size="9.933076" font-family="ABCNormal-Regular"><tspan y="-219.41152" x="36.24255 39.791639 45.6452 51.384534 57.284784 63.201913 69.161769 71.77416 77.767787 84.00973 89.35173 91.835 97.47699 103.38916 109.57548 112.05875 118.29473 121.85375 127.847377 134.05356 137.66919 143.31118 152.52808 161.71616 164.29181 170.1871 176.47574 178.95702 181.44028 187.08228 192.99344 199.17977 201.66303 205.1982 211.11634 213.5996 219.44919 225.6673 231.44635 234.023 240.25997 246.45424 249.02988 254.92517 261.10157 263.5848 268.8245 274.79527 280.58924 286.4845 292.49403">technology and programming, and to equipping young </tspan></text>
<text fill="#414042" xml:space="preserve" transform="matrix(1.0099505 0 -0 .9901476 -595.275 841.89)" font-size="10.099504" font-family="ABCNormal-Regular"><tspan y="-209.95839" x="35.64531 42.234228 48.396947 54.67278 61.225339 64.09258 70.17249 73.14175 82.099 84.93292 88.81315 94.98395 97.94816 101.9011 108.00625 111.894557 117.99667 121.822368 128.28504 132.25414 136.07982 142.19306 148.15378 154.72249 160.3681 163.3323 168.94055 174.6599 177.48777 180.31563 183.18187 188.7265 191.6907 197.63426 200.46213 203.28192 209.80316 216.03151 222.19019 228.69428 231.65848 240.61673 243.4446 247.32584 253.49663 256.46083 259.31898 265.27165 271.84944 278.13334 284.23649 287.70973">people with future-ready skills aligned with labour </tspan><tspan y="-196.82903" x="35.64531 45.179246 51.072305 54.896986 60.211347 66.237728 70.06543 72.9135 79.0843 85.18844 91.28956 97.79364 103.39786">market needs.</tspan><tspan y="-170.57033" x="35.64531 42.02416 48.260606 54.350606 57.329965 60.167924 66.3569 69.19487 73.048839 75.89286 81.81117 85.665149 88.54654 94.10531 100.195308 103.17466 107.00843 113.09843 117.044307 119.91964 126.09144 132.17943 136.14044 141.69516 144.6745 151.89867 157.8584 164.07767 169.693 172.67235 180.66004 187.66101 194.156 196.71926 202.27399 205.25333 209.27696 212.11492 216.00727 225.5513 228.53064 235.11655 241.25907 244.09702 246.92993 253.01995 256.89814 259.8775 262.71546 268.89637 271.87574 275.76506 282.00148 287.6976">The initiative reflects Bank NXT&#x2019;s firm belief in the </tspan><tspan y="-157.44097" x="35.64531 42.509946 45.736738 51.64697 58.21064 62.533227 68.831279 72.01262 75.68884 79.87307 86.50339 89.725139 96.158519 99.83474 106.39336 110.61495 114.29118 120.82658 123.99983 130.87659 137.69477 142.14157 149.03348 155.50222 161.80129 164.98262 168.17003 172.65825 178.65737 182.33358 186.50872 193.02693 199.429 205.99369 212.52907 215.71042 222.15288 228.45195 231.63329 235.30951 241.8237 248.7267 255.20455 261.64805 267.90974 272.1101 275.29148 281.92179 287.7088">pivotal role of high-quality technical education </tspan><tspan y="-144.31162" x="35.64531 38.804437 45.30145 48.92212 55.781705 59.978048 63.17959 69.22314 72.38327 78.91663 85.736827 89.35648 95.84844 102.24547 108.85055 115.407138 122.012218 131.89458 135.04665 141.40225 145.02191 151.89968 158.21086 164.08979 170.55147 173.74593 180.35102 187.22878 197.1576 203.61826 210.09508 214.4833 217.59597 221.21663 227.9126 234.45204 238.61002 245.22217 251.65253 258.50303 264.99903 268.6197 272.8282 279.3373 282.52473 287.68556">in driving economic development. Through this </tspan><tspan y="-131.18225" x="35.64531 41.125307 47.584947 53.732519 59.82858 65.30958 71.45614 75.29496 80.77394 86.82658 89.5292 95.838359 98.44403 101.1507 106.63574 110.39276 116.39793 122.823238 128.82741 134.84772 138.6724 144.08573 146.79239 155.62239 158.31897 161.01554 163.71212 166.41878 172.82389 178.61292 181.31656 187.35605 190.06272 195.90023 201.84177 207.7823 213.79251 219.32199 224.7353 227.44197 231.1192 237.2193 239.92597 245.75743 252.20293 257.66377 263.48713 269.58723 275.52775 281.55918 287.67948">sponsorship, students will gain access to advanced </tspan><tspan y="-118.0529" x="35.64531 39.35082 45.39941 51.33085 57.42691 63.492677 66.19934 72.173198 78.00263 80.7093 83.44627 87.21339 90.986568 96.78974 99.50549 105.57126 108.28802 114.37903 120.75182 123.48879 129.92723 133.64284 139.83284 146.23998 150.01314 155.85065 165.31792 174.80338 180.82672 186.25016 188.9871 195.42555 201.4489 206.9198 209.62647 216.0336 222.14682 228.19037 234.57326 237.31021 241.00157 247.11177 249.84874 256.28617 259.9967 266.015 272.4393 278.27684 281.98637 287.6825">technical training programmes designed to prepare </tspan></text>
<text fill="#414042" xml:space="preserve" transform="matrix(.9904342 0 -0 1.0096581 -595.275 841.89)" font-size="9.904343" font-family="ABCNormal-Regular"><tspan y="-102.89602" x="36.347696 39.933069 45.819219 51.612268 60.734167 63.20035 66.71045 72.593639 75.059818 80.789478 86.722179 92.53008 96.115459 99.68795 102.24228 108.445369 114.21167 117.736629 123.47124 125.932468 131.67401 135.53473 139.10822 144.92998 150.67053 154.22026 156.8162 162.03775 167.83081 170.42676 175.73549 178.19672 181.7078 187.59098 190.0522 195.43619 197.99349 201.66304 207.2699 209.81533 212.2815 214.83583 220.71704 226.91716 232.71517 237.99913 241.5845 245.157 247.7163 253.32413 255.86956 258.33079 263.60978 269.43254 275.1731 278.68418 284.6159 288.28446 293.34556">them to contribute effectively to vital industrial sectors </tspan></text>
<text fill="#414042" xml:space="preserve" transform="matrix(1.0099505 0 -0 .9901476 -595.275 841.89)" font-size="10.099504" font-family="ABCNormal-Regular"><tspan y="-91.79419" x="35.64531 41.60907 47.840467 54.353635 57.34309 61.235437 67.474918 73.56391 76.55336 82.693859 88.933338 95.07384 98.94498 105.5147 111.16942 114.15887 117.00188 123.23327 129.79291 135.9425 141.56792 145.46028 149.62935 154.70436">and the energy industry.</tspan></text>
<text fill="#015937" xml:space="preserve" transform="matrix(1 0 -0 1 -595.275 841.89)" font-size="16" font-family="ABCNormal-Bold" font-weight="bold"><tspan y="-311.8898" x="37.0357 45.531705 54.699705 63.771707 73.259708 82.7477 86.8917 95.9637 104.9877 109.0997 112.5557 122.0597 131.8997 141.2117 150.2837 159.21172 165.45172 169.59572 179.05171 188.53972 191.99571 206.47573 210.61972 216.85973 226.34774 229.80373 240.61972 249.64373 259.1317 268.33174 271.78773 283.89973 294.57173">Technical Education with Bank NXT</tspan></text>
<g transform="matrix(.38561378,0,0,.38561375,-132.4029,496.01316)">
<image id="p071_image_2" width="250" height="128" xlink:href="ART/a723fc4d8839c.webp"/>
</g>
<g clip-path="url(#p071_clip_3)">
<path transform="matrix(1,0,0,-1,-278.55064,583.2279)" d="M0 0C-6.627 0-12-5.373-12-12V-155.772C-12-162.399-6.627-167.772 0-167.772H230.551C237.179-167.772 242.551-162.399 242.551-155.772V-12C242.551-5.373 237.179 0 230.551 0Z" fill="#b1c04f"/>
</g>
<text fill="#ffffff" xml:space="preserve" transform="matrix(1 0 -.14054 1 -595.275 841.89)" font-size="10" font-family="ABCNormal-Regular"><tspan y="-241.1202" x="282.0413 283.6213 289.9313 293.4013 299.8663 306.5663 312.03633 317.76634 322.81636 329.28135 336.73136 342.97135 348.18135 349.95133 356.41633 364.74635 370.38636 376.85035 380.30036 382.67039 386.11039 395.17039 397.5904 402.58039 409.04539 415.09538 420.73539 423.1554 425.5754 431.03544 436.11543 441.75544 448.21943 451.68943 457.41944 462.83946 466.30946 472.77445 475.14448 480.75447 485.83448 491.4745 496.51448 499.98445 502.35444 508.0844 514.1344">&#x2018;At Bank NXT, we firmly believe that investing </tspan><tspan y="-228.1202" x="283.87129 286.24134 291.9713 298.42134 304.06135 310.12135 315.76136 321.35139 326.77137 330.2414 332.66139 338.45143 344.1814 345.95143 352.40144 358.46144 363.9314 367.3714 370.84144 373.2614 378.85145 384.49147 386.91145 392.38148 395.82148 398.24147 403.23146 409.68147 413.07148 418.7115 424.3015 430.0315 435.76155 438.18153 443.77156 449.24153 451.66157 458.11158 463.58155 469.31159 475.37159 481.8216 487.29158 493.35157 499.41157 501.83155 504.25154 509.89155 515.95156">in education, particularly technical and applied </tspan><tspan y="-215.1202" x="285.7013 291.3413 297.4013 303.04133 308.63133 314.05134 317.52134 319.94136 325.73136 331.46138 333.23136 341.91136 344.33137 349.44139 358.12138 363.59138 372.27137 378.33137 380.7014 384.00138 389.6414 395.1714 398.6414 407.32139 409.6914 415.30143 420.3814 426.02143 431.06144 434.53144 443.59144 449.23146 454.90147 458.37147 467.05146 469.42149 475.1515 483.8315 489.8715 495.92149 501.1315 507.11149 510.58146 512.6615 517.7715">education, is a direct investment in Egypt&#x2019;s </tspan><tspan y="-202.1202" x="287.5313 290.98133 296.62135 300.09135 305.73136 309.03135 314.67137 316.52137 320.47138 327.81138 333.4514 336.6414 340.5914 346.1814 351.9714 354.39143 356.81144 362.28144 368.33143 374.12144 377.43144 382.85145 386.32145 388.74147 394.53147 400.26148 404.2115 412.64149 415.0615 418.5315 424.2615 428.21153 434.31153 436.73155 441.84153 447.34153 455.67155 461.31156 467.37156 472.36155 476.02458 481.02458 486.66459 492.2546 497.9846 503.71458 506.13456 511.72459 517.1946 519.61459">future. Our collaboration with Elsewedy Technical </tspan><tspan y="-189.1202" x="289.36134 295.82133 301.41133 306.88133 312.9413 318.58134 327.51133 332.20133 333.9713 336.01133 339.48133 345.21134 348.51133 354.30134 359.94136 365.99134 371.72135 373.76136 379.81135 385.52037 388.99037 394.72038 396.76039 400.23039 405.9604 411.6004 413.6404 419.6904 425.1604 430.8904 435.94044 437.98045 443.45045 449.18046 455.24046 457.28047 459.70048 463.17048 468.2805 470.3205 473.6405 479.4305 485.07054 490.8005 496.8605 502.28147 505.75144 508.17143 513.96139 519.69137 521.46139">Academy, through both the bank and its foundation, </tspan><tspan y="-176.1202" x="291.19136 293.61137 298.72135 302.34135 307.81135 310.23136 312.65138 318.70137 324.43138 330.07139 336.13139 339.75138 348.18138 350.60139 354.07139 359.8014 363.4214 369.2114 374.8514 378.0414 381.6614 387.45143 393.5014 395.92143 401.56144 407.09144 410.56144 412.98146 418.06144 423.70146 428.81144 432.43144 435.82145 441.61146 445.23146 451.29145 454.59144 460.23146 465.47145 467.89146 473.95146 479.59147 483.21147 488.25144 491.7214 497.36143 503.42143 509.06144 514.7314 518.20138 523.31137">is aligned with our objectives to provide students </tspan><tspan y="-163.1202" x="293.02134 301.45133 303.87135 307.34135 313.07136 316.48136 322.54136 325.85136 331.32136 336.85136 340.32136 342.74137 348.33137 353.80137 356.22138 359.63139 364.7414 369.9114 372.28144 374.70146 377.12147 382.23146 384.00144 387.41145 392.58146 398.31147 403.9915 412.42149 414.8415 420.4815 426.5415 432.5915 438.2315 440.0015 443.4115 448.8815 454.6115 460.6715 464.0815 469.87153 475.93153 481.99153 487.78153 491.2215 494.69148 500.33149 506.06147 508.48146 511.95143 514.3714 520.0114 525.1214">with practical skills, knowledge, and opportunities </tspan><tspan y="-150.1202" x="294.85136 298.32136 304.05137 309.47138 312.94139 316.35139 321.9914 327.7214 333.1914 339.2414 341.6614 347.30143 350.71144 354.18144 359.91145 365.55146 374.61146 378.02146 381.41047 387.20048 390.61048 396.66047 402.30049 407.89048 413.68049 422.74049 428.3805 431.7905 437.2605 442.7905 446.2605 448.6805 453.7605 459.4005 462.81053 468.28053 474.01054 480.07054 483.48054 485.85057 494.91059 500.97059 506.44056 511.97059 515.44058 518.89059 524.5306 526.95059">that enable them to become active and impactful </tspan><tspan y="-137.1202" x="296.68138 302.27137 308.06138 313.73139 317.2014 320.6414 323.0114 329.0614 334.70143 338.09144 343.88145 347.26145 352.37147 357.68147 361.07148 366.86149 372.17149 375.64149 381.3715 387.0115 392.3215 398.0515 403.47154 406.94154 409.36155 415.15156 420.88157 426.35157 428.77159 434.08158 439.7216 445.31159 451.1016 456.8316 462.6216 471.5516 476.2416 477.5816 479.2416">contributors to the national economy.&#x2019; </tspan></text>
<text fill="#124734" xml:space="preserve" transform="matrix(1 0 -0 1 -595.275 841.89)" font-size="10" font-family="ABCNormal-Bold" font-weight="bold"><tspan y="-117.0336" x="490.33 495.81999 502.74998 511.94999 517.95999 524.67996 526.8399 533.2999 539.30996 542.20999 548.02">TAMER SEIF </tspan></text>

<text fill="#124734" xml:space="preserve" transform="matrix(1 0 -0 1 -595.275 841.89)" font-size="12" font-family="ABCNormal-Regular"><tspan y="-470.8103" x="631.2756 634.5516 639.2076 645.7716 656.6436 660.9876 668.5116 674.5836 681.3516 687.48367 694.3596 700.92367 705.57968 713.10366 719.66769 730.5397 734.51168 741.0757 747.95169 750.07449 754.73049 761.2945 765.9505 771.99856 776.16256 782.93057 790.2025 796.9705 803.7745 807.9385 812.5945 819.4345 823.31057 827.96658 836.4025 839.3065 845.87057 852.00259 858.1346 862.6466 869.9306 874.5866 878.0546 885.8906 893.5346 902.2226 909.5426 917.5826 921.0506 925.7066 936.3026 942.86666 945.7706 948.6146 952.4426">I am Ayesha Kamran, a student of Class X (AKUEB) Malir </tspan><tspan y="-457.8143" x="631.2756 639.89157 646.45559 657.3276 664.59957 671.36758 677.4996 679.7196 685.27566 688.55166 694.10769 700.6717 711.5437 717.09976 723.23178 726.07577 732.9517 739.6597 746.42776 750.3889 757.1569 760.0609 766.0477 771.60379 775.76779 782.64376 789.20779 796.08377 802.2877 806.42776 813.19577 816.09976 821.65579 825.6398 832.58779 836.4158 841.9718 849.2318 855.9998 858.8438 865.7198 872.9798 878.5358 885.00387 894.9398 901.50387 905.4758 912.7478 919.5158 926.7878 932.3438 936.5078 943.3838 946.2878 952.4198">Campus. I am sincerely thankful for being awarded this </tspan><tspan y="-444.8183" x="631.2756 637.4076 644.1156 650.9916 657.9396 660.84359 667.4076 671.46359 677.5956 684.47158 687.31558 694.4555 696.67556 699.83157 703.10757 707.27157 710.42758 717.3035 723.86758 729.9996 733.1556 739.9236 746.4876 752.6196 759.38766 766.6596 769.8156 773.9796 780.8556 787.6236 790.7796 794.9196 797.7636 804.6396 811.2036 818.0796 824.7876 827.6916 834.2556 837.1596 840.3156 847.5756 854.3436 858.3156 865.5876 872.3556 879.23159 882.3876 889.3356 896.21157 899.36758 910.08358 916.0716 919.2276 923.22366 929.78768 940.65969 943.50369 946.40768 952.3957">scholarship. It has eased the financial burden on my family </tspan><tspan y="-431.8223" x="631.2756 637.8396 644.7156 651.98757 658.47958 665.0436 667.9476 670.85159 677.6664 687.6636 694.4316 701.70358 708.19558 719.06759 725.8356 732.3276 736.39559 743.34359 749.8356 753.9756 760.7436 763.6476 766.5516 772.5396 779.0316 785.7396 792.6876 799.5636 806.2716 813.0396 819.84359 824.00759 827.97958 834.4836 838.5516 845.3196 851.8116 858.7596 865.63558 872.12759 882.84359 888.8316 895.3236 902.0916 909.3636 916.1316 922.8396 929.3436 933.5076 936.4116 943.3596 950.2356 952.4556">and allowed me to fully concentrate on my education. </tspan><tspan y="-418.8263" x="631.2756 642.80758 645.71157 649.87557 656.7515 663.67556 667.83956 674.7155 677.6195 683.7515 690.67556 696.80758 703.57559 710.84756 718.1195 725.0675 729.1955 733.3595 735.4835 742.40756 745.68356 752.60757 759.4835 765.9155 772.01156 778.77957 785.70358 788.54757 799.41958 806.6915 810.6515 817.4195 823.5155 830.2835 837.5555 844.4795 847.3235 854.19949 861.1235 871.8395 877.8275 884.7515 890.79959 894.96359 901.73159 909.00357 911.90756 918.67556 924.80758 931.73159 938.2956 945.1716 952.44357">With this support, I have improved in my studies and </tspan><tspan y="-405.8303" x="631.2756 637.8396 644.5476 651.4236 654.3276 660.8796 666.9756 673.7436 681.01559 684.9756 692.2356 698.8956 703.05966 707.1276 713.8956 717.72366 721.68368 728.94369 732.91567 739.4797 746.75167 753.51968 759.6517 761.8717 765.4837 772.52767 779.4036 782.3076 788.43966 792.39968 799.16769 806.04367 812.75167 819.69967 826.46768 830.43966 837.00369 844.2637 851.0317 861.9037 868.6717 875.47567 879.63967 883.5997 890.47567 897.0397 903.1717 907.1317 914.3917 921.3397 928.2877 934.33578 938.40377 945.17178 952.4437">achieved better grades. This encouragement has boosted </tspan><tspan y="-392.8343" x="631.2756 641.9916 648.0636 654.7716 661.7196 668.5116 672.6516 675.5556 682.8276 689.5956 696.47158 703.17959 709.9476 718.0596 724.6236 731.4996 738.77157 746.88357 757.75558 764.60757 768.77157 771.67556 777.7236 784.2276 788.2956 795.0636 801.1956 809.3076 820.1796 826.94766 835.05966 839.1276 846.0756 854.1876 860.1396 866.9076 873.6756 880.9476 889.0596 895.1076 899.2716 903.3996 906.3036 912.5916 915.4356 922.3116 929.5716 937.6836 941.6676 948.6156 952.4436">myconfidence and motivates me to keep striving for </tspan><tspan y="-379.8383" x="631.2756 637.8036 643.81558 650.52359 657.29159 660.19558 663.09957 669.86758 676.7435 683.45156 690.21957 692.4396 696.654 703.69796 710.5739 717.13796 724.0139 730.0751 734.42147 740.49349 747.44149 754.2095 756.3335 760.8935 768.1415 775.41348 782.18148 788.88949 795.3935 799.5575 802.4615 809.4095 816.28549 820.4999 826.8239 830.9519 837.7199 843.76797 847.93197 852.49197 861.43197 867.996 874.128 878.1 884.664 889.224 896.772 903.48 910.35598 917.30398 924.25198 927.15597 931.71597 938.27999 945.15597 952.4279">excellence. Thank you, Education Trust Nasra School and </tspan><tspan y="-366.8423" x="631.2756 638.5956 645.7236 654.50759 660.50759 669.3156 676.0836 680.2116 691.0836 697.8516 703.98367 706.10769 712.10769 716.0917 723.0397 726.8677 732.8677 737.0317 743.90768 746.81167 752.94369 758.94369 765.0757 771.7837 778.65969 785.60769 788.51168 795.0757 799.1305 805.2625 812.1385 814.9837 822.1225">EFG Hermes, for this scholarship.</tspan></text>
<text fill="#124734" xml:space="preserve" transform="matrix(1 0 -0 1 -595.275 841.89)" font-size="13" font-family="ABCNormal-Regular"><tspan y="-247.6418" x="833.3859 836.93496 843.73397 850.845 862.623 869.422 880.901 888.233 895.68197 902.79299 914.571 926.349 933.46 941.338 948.137 957.835 964.94607 971.58908 978.33609 985.4471 992.89608 999.69509 1007.9761 1015.42507 1022.5361 1029.9851 1032.2861 1039.0851 1042.634 1049.433 1055.985 1060.496 1067.828 1075.706 1082.193 1088.992 1092.073 1099.522 1106.3209 1113.5879 1116.7339 1123.8449 1130.4878 1137.1307 1143.9297 1147.4786 1151.0276 1154.5765">I am Muhammad Hassan Khan, I study in class III </tspan><tspan y="-232.0418" x="833.3859 839.9379 844.4489 851.7809 859.6589 866.99087 874.3618 878.8728 883.9688 891.01486 895.5258 900.61538 910.30038 917.4114 924.0544 928.35739 935.4684 940.5644 948.7414 956.0084 963.4574 970.9844 978.51138 981.65737 986.75338 996.28237 1003.8093 1008.2813 1012.7923 1020.2413 1025.3373 1033.4869 1040.5979 1044.901 1052.012 1059.2789 1066.7279 1069.8739 1074.9699 1084.3038 1091.4148 1103.1928 1111.0708 1118.4028 1125.0458 1127.4508 1132.1646 1139.7957 1147.2446 1154.5767">student at Nasra School North Karachi Campus. The </tspan><tspan y="-216.44179" x="833.3859 840.02896 847.29598 854.74496 862.2719 865.4179 872.52896 876.9229 883.5659 891.0149 894.0959 901.9739 905.1979 912.64688 919.7579 926.4009 929.6249 933.91488 941.2468 953.02487 960.3568 966.9608 974.2928 982.1708 985.3948 989.87979 992.96078 1000.4097 1007.52078 1014.9697 1022.23678 1025.3828 1032.4938 1035.6398 1038.8638 1045.4158 1049.9268 1054.2168 1061.5488 1068.1918 1074.8347 1078.0587 1082.3748 1089.9017 1094.0488 1097.2728 1108.8818 1115.3688 1118.5928 1122.9218 1130.0327 1141.8107 1144.8917 1148.0377 1154.5247">scholarship has removed financial stress for my family </tspan><tspan y="-200.84178" x="833.3859 840.49697 847.9459 855.8239 860.8159 867.92697 871.07296 874.21896 881.6029 892.4319 899.76388 907.64187 912.63388 924.41189 931.74386 936.73587 941.1428 948.6698 953.6618 960.2138 964.7248 971.6668 978.1538 983.1458 987.4618 994.9888 1002.2558 1009.58779 1016.2308 1023.56277 1031.4408 1036.4328 1043.9597 1051.4087 1056.4006 1068.0097 1074.4966 1079.4885 1086.0405 1090.5515 1097.8836 1105.7616 1108.9076 1116.2396 1122.8826">and allowed me to stay focused on my studies.</tspan><tspan y="-185.24178" x="833.3859 836.93496 841.4459 846.0089 853.4579 860.5689 867.2119 871.7749 883.5529 890.66397 898.54196 905.8739 910.4369 922.2149 929.5469 934.10989 945.8879 953.41488 957.70486 965.0368 969.5998 976.8668 984.3938 991.7518 996.23678 999.38278 1007.26077 1014.5927 1021.9637 1026.4747 1031.0377 1038.1487 1045.5977 1053.4757 1058.0387 1069.8167 1077.2396 1081.7506 1084.8966 1091.4486 1098.4946 1102.9016 1110.2337 1118.1117 1122.6747 1127.0817 1134.6087 1139.1716 1147.0497 1154.5767">It has made me more confident and motivated to do </tspan><tspan y="-169.64177" x="833.3859 844.2149 851.5469 854.6929 857.83889 861.5959 864.6769 872.12588 875.8829 883.1499 886.2959 893.4069 900.0499 906.69296 909.0979 912.8549 916.40396 920.16098 924.67196 932.1209 939.23196 946.6809 953.2459 957.0029 966.6879 973.79898 980.44198 984.74496 991.85598 995.613 1003.79 1011.057 1018.506 1026.033 1033.5599 1036.7059 1040.4629 1047.5739 1055.0228 1062.9009 1066.6578 1074.471 1083.9869 1087.7439 1097.2859 1104.6179 1109.09 1120.8679 1128.2 1134.8429 1138.5999 1142.9159 1150.4429 1154.59">well in class. I thank Nasra School and EG Hermes for </tspan><tspan y="-154.04177" x="833.3859 840.02896 847.3609 855.2389 863.1169 870.64389 875.11587 879.62686 882.7078 890.1568 898.0218 902.5978 914.2068 920.6938 925.2698 932.60177 940.47976 947.8117 955.07876 962.12478 966.63577 969.78176 977.3087 984.7577 989.3337 996.4447 1003.8937 1011.77169 1016.34768 1023.79666 1031.1287 1034.2747 1042.1527 1045.2338 1052.6828 1060.5477 1065.1238 1076.9017 1084.2338 1088.8098 1096.6748 1100.9649 1108.3489 1118.814">supporting my education and helping me grow.</tspan></text>
<text fill="#414042" xml:space="preserve" transform="matrix(1.0061064 0 -0 .9939307 -595.275 841.89)" font-size="10.061064" font-family="ABCNormal-Regular"><tspan y="-680.017" x="627.44418 630.221 636.01626 638.4862 644.24716 650.81198 656.64437 662.59646 664.9709 667.44589 673.565 679.52926 686.9242 689.3992 696.97616 702.7351 706.2535 715.4664 721.2293 726.4007 728.8757 735.0381 740.61697 744.37277 747.888 753.7416 759.4995 762.9595 768.7446 774.8718 777.3418 785.9148 788.38687 791.9011 797.6963 800.1713 806.20797 812.3794 818.1293 823.84396 829.37759 832.8576 835.32266 841.2234 847.0186 849.4886 854.69119 858.2337 863.9976 869.2384 872.7597 875.23477 882.79269 888.38058 893.61636 897.1387 902.6723 905.1423 911.60348 917.2769 923.13046 929.0654 934.96627 937.47146 942.6428 945.1128 947.7196 954.05709 959.9931 967.5732 973.6158 976.5536 979.02359 982.4644 988.31997 990.7949 996.6233 1000.4193 1003.9206 1009.67959 1013.1708 1015.64578 1021.49929 1027.2886 1033.0726 1039.4684 1042.8087 1045.2838 1051.4374 1057.0253 1062.2621 1068.0473 1074.1743 1076.6494 1081.8814 1087.5548 1093.4074 1099.3081 1101.8042 1107.3821 1110.9829 1116.2188 1122.025 1124.4899 1130.6703 1135.8417 1138.3169 1141.7567 1147.583">In 2022, EFG Hermes partnered with Education Trust Nasra Schools (ETNS) to offer need- based scholarships to </tspan></text>
<text fill="#414042" xml:space="preserve" transform="matrix(1.0056937 0 -0 .9943384 -595.275 841.89)" font-size="10.056938" font-family="ABCNormal-Regular"><tspan y="-666.6641" x="627.70169 632.9393 636.4592 642.2138 648.3867 654.1413 659.911 663.4943 668.6636 671.1275 674.6856 678.1472 684.04367 693.18539 695.6493 698.15048 703.90206 712.5318 716.087 718.5509 724.4 730.09036 735.98678 745.19387 750.8961 753.36007 756.92318 762.49777 771.6576 774.1215 776.58547 779.0494 784.809 790.09396 792.51766 794.98159 800.9725 806.77438 809.26846 814.4377 816.9016 820.4135 826.24557 829.7021 835.4869 841.56826 844.92227 850.0805 855.816 861.39059 864.8804 867.3443 873.0355 878.93197 888.12197 897.2828 899.7467 903.2586 912.4657 918.2203 923.99 927.5099 929.9738 935.8129 941.3975 946.5668 949.0307 954.25326 959.97769 966.1496 972.3577 978.25418 982.0064 985.45797 991.2376 997.3623 999.82626 1005.70559 1012.2727 1014.73666 1019.97329 1023.4931 1029.2487 1035.4216 1041.1763 1046.9459 1050.5282 1055.6975 1058.1614 1063.8967 1069.4845 1075.1536 1080.9464 1083.4103 1088.5684 1094.3038 1099.8784 1102.9257 1105.2991 1107.763 1113.4542 1119.1957 1124.37 1130.1245 1133.6244 1136.0884 1141.9154 1147.9998">students from low-income families. This three-year commitment has supported 50 students each year, covering </tspan></text>
<text fill="#414042" xml:space="preserve" transform="matrix(1.0011844 0 -0 .99881717 -595.275 841.89)" font-size="10.011843" font-family="ABCNormal-Regular"><tspan y="-650.65939" x="630.5288 634.00796 639.6646 642.0975 645.5365 647.96438 653.81228 659.559 661.99197 665.45608 671.1928 676.9056 682.1558 684.49856 686.93148 692.472 698.13577 703.67227 709.7955 715.5033 724.601 727.0289 732.6305 735.0634 738.4835 744.1963 749.3834 755.2403 760.917 764.3471 769.9908 775.70358 780.9538 783.2965 785.72946 791.258 797.05386 803.13107 805.56399 811.2086 817.09158 822.69827 828.3749 831.853 835.3151 837.743 843.3496 849.0143 851.47518 857.0027 860.4568 862.8897 868.69058 874.42837 880.16116 886.2994 891.4255 893.8584 899.5651 905.36398 910.54116 916.2189 919.682 922.1148 927.89468 933.95687 936.3897 942.1916 947.9934 950.42636 956.049 961.8038 964.23666 966.7025 972.7747 975.20767 977.67056 982.7916 985.22457 987.69448 993.35116 997.10958 1000.5937 1003.02658 1009.1748 1014.88259 1020.6374 1023.07028 1028.8672 1034.9393 1037.3722 1043.4913 1049.1901 1054.8417 1057.2744 1060.6754 1066.4773 1068.9102 1072.5183 1074.9512 1080.7432 1086.2717 1092.0726 1097.6693 1100.1022 1105.6227 1108.0507 1110.4834 1116.2754 1121.804 1125.237 1131.3754 1136.5614 1142.3163 1144.7493 1150.7494 1153.1321">tuition fees, academic resources, and cocurricular needs ensuring no child is left behind due to financial hardship. </tspan></text>
<text fill="#414042" xml:space="preserve" transform="matrix(.99783268 0 -0 1.002172 -595.275 841.89)" font-size="9.978327" font-family="ABCNormal-Regular"><tspan y="-635.50949" x="632.6467 640.04067 645.13656 650.8092 654.2318 656.54678 661.99496 664.3099 670.4316 676.1043 679.53988 681.9446 687.7879 693.82479 696.1397 701.8822 705.31478 707.6297 711.0772 716.8267 720.2183 725.921 731.5388 733.85379 738.9338 744.58749 750.08157 753.61386 758.8305 761.14547 763.46047 769.4914 775.3666 782.6607 784.9757 792.4524 798.12509 801.5746 810.6728 816.3505 821.43948 823.75448 829.50997 835.014 840.10299 842.4179 848.02676 853.8401 859.5278 862.97427 866.4098 868.82058 874.9063 880.551 883.9387 889.6373 895.6742 897.9892 904.2726 910.67269 917.2983 919.6132 923.7313 926.19796 932.08419 936.9137 939.22866 948.28097 950.6857 953.09048 955.49526 957.89999 963.71328 969.5287 971.8436 974.15859 979.8313 985.5948 990.73867 996.3814 999.81698 1002.22177 1007.9663 1013.9932 1016.30819 1022.07467 1027.8212 1031.2738 1033.5888 1039.4021 1045.1456 1047.5972 1052.786 1055.101 1058.4935 1064.1183 1067.506 1073.1787 1078.8654 1082.278 1084.6828 1090.4961 1096.2036 1098.5187 1100.9293 1106.637 1108.9519 1114.1006 1119.6884 1125.4548 1131.3032 1137.1156 1139.5204 1141.8353 1147.921 1153.5657 1157.0282">Over a period of three years, EFG Hermes has contributed PKR 7.37 million, ensuring not only retention in school but </tspan></text>
<text fill="#414042" xml:space="preserve" transform="matrix(1.002492 0 -0 .99751439 -595.275 841.89)" font-size="10.024919" font-family="ABCNormal-Regular"><tspan y="-625.4444" x="629.70639 635.2401 637.7193 642.91928 648.73367 651.17977 654.6684 660.4838 666.1479 668.594 674.4565 680.5948 686.7681 692.62966 696.3549 699.8436 705.5348 711.3021 713.7482 717.48458 722.7175 725.1636 728.5741 734.3885 736.83456 742.98086 748.672 752.2419 757.4328 763.145 768.80917 771.2552 776.80899 782.4861 788.0358 794.1741 799.89437 809.011 811.447 817.061 819.507 825.0238 830.1656 835.8236 841.54586 843.98196 846.4611 852.1824 857.9978 863.65487 869.3189 871.765 877.3067 883.1171 889.2023 891.6483 897.82168 903.5429 907.1138 912.3137 918.1763 923.9817 929.51547 931.9515 934.3975 940.5047 943.94027 949.6584 958.43429 961.923 967.7795">also the opportunity to pursue academic excellence and personal growth.</tspan></text>
<text fill="#015937" xml:space="preserve" transform="matrix(1 0 -0 1 -595.275 841.89)" font-size="22" font-family="ABCNormal-Bold" font-weight="bold"><tspan y="-571.8898" x="632.3978 645.6198 659.2158 675.8698 690.0818 694.8338 707.4398 712.19186 725.4138 738.5698 754.9378 759.6898 776.32186 788.92788 797.37588 817.1539 829.7599">ETNS x EFG Hermes</tspan></text>
<text fill="#858500" xml:space="preserve" transform="matrix(1 0 -0 1 -595.275 841.89)" font-size="22" font-family="ABCNormal-Semibold" font-weight="bold"><tspan y="-545.88577" x="632.3978 646.52188 654.7059 667.64187 675.8699 681.47988 694.0419 705.70187 710.56387 723.2578 731.1338 735.9958 751.4178 764.35379 776.67379 789.60977 803.09579">Stories of Change</tspan></text>
<text fill="#015937" xml:space="preserve" transform="matrix(1 0 -0 1 -595.275 841.89)" font-size="16" font-family="ABCNormal-Bold" font-weight="bold"><tspan y="-701.8898" x="631.2756 640.7796 650.6196 659.93167 669.00369 677.93167 684.17166 688.3156 697.7716 707.2596 710.28359 719.3876 725.53158 734.84359 743.32357 749.56356 753.01956 765.13156 774.1555 782.7315 788.7475 797.7715 801.2275 811.5635 820.6355 830.1235 839.57949 849.03549">Education Trust Nasra School</tspan></text>
<g clip-path="url(#p071_clip_4)">
<g mask="url(#p071_mask_5)">
<g transform="matrix(.23969178,0,0,.23992962,36.065187,562.39407)">
<image id="p071_image_7" width="751" height="771" xlink:href="ART/a8b0c73ec06a1.webp"/>
</g>
</g>
</g>
<g clip-path="url(#p071_clip_8)">
<g mask="url(#p071_mask_9)">
<g transform="matrix(.23974858,0,0,.2398234,381.38276,348.44075)">
<image id="p071_image_11" width="742" height="768" xlink:href="ART/a4eec2a752b41.webp"/>
</g>
</g>
</g>
<path transform="matrix(1,0,0,-1,36.00055,526.9877)" stroke-width="1" stroke-linecap="butt" stroke-miterlimit="10" stroke-linejoin="miter" fill="none" stroke="#858500" d="M0 0H321.165"/>
<g clip-path="url(#p071_clip_12)">
<g transform="matrix(.46305,0,0,.46305,475.92713,245.53308)">
<image id="p071_image_13" width="180" height="147" xlink:href="ART/a2dee6dbd7664.webp"/>
</g>
</g>
<path transform="matrix(1,0,0,-1,255.8274,290.11274)" stroke-width="1" stroke-linecap="butt" stroke-miterlimit="10" stroke-linejoin="miter" fill="none" stroke="#858500" d="M0 0H217.974"/>
<g clip-path="url(#p071_clip_14)">
<path transform="matrix(1,0,0,-1,363.26039,531.96426)" d="M0 0C2.698 0 4.886 2.188 4.886 4.887 4.886 7.586 2.698 9.773 0 9.773-2.698 9.773-4.886 7.586-4.886 4.887-4.886 2.188-2.698 0 0 0" fill="#858500"/>
<path transform="matrix(1,0,0,-1,363.26039,531.96426)" stroke-width="1" stroke-linecap="butt" stroke-miterlimit="10" stroke-linejoin="miter" fill="none" stroke="#ffffff" d="M0 0C2.698 0 4.886 2.188 4.886 4.887 4.886 7.586 2.698 9.773 0 9.773-2.698 9.773-4.886 7.586-4.886 4.887-4.886 2.188-2.698 0 0 0Z"/>
<path transform="matrix(1,0,0,-1,249.02417,294.34315)" d="M0 0C2.698 0 4.886 2.188 4.886 4.887 4.886 7.586 2.698 9.773 0 9.773-2.698 9.773-4.886 7.586-4.886 4.887-4.886 2.188-2.698 0 0 0" fill="#858500"/>
<path transform="matrix(1,0,0,-1,249.02417,294.34315)" stroke-width="1" stroke-linecap="butt" stroke-miterlimit="10" stroke-linejoin="miter" fill="none" stroke="#ffffff" d="M0 0C2.698 0 4.886 2.188 4.886 4.887 4.886 7.586 2.698 9.773 0 9.773-2.698 9.773-4.886 7.586-4.886 4.887-4.886 2.188-2.698 0 0 0Z"/>
</g>
<path transform="matrix(1,0,0,-1,238.11078,737.36666)" stroke-width="1" stroke-linecap="butt" stroke-miterlimit="10" stroke-linejoin="miter" fill="none" stroke="#858500" d="M0 0H321.165"/>
<g clip-path="url(#p071_clip_15)">
<path transform="matrix(1,0,0,-1,555.8745,742.2533)" d="M0 0C2.698 0 4.886 2.188 4.886 4.887 4.886 7.586 2.698 9.773 0 9.773-2.698 9.773-4.886 7.586-4.886 4.887-4.886 2.188-2.698 0 0 0" fill="#858500"/>
<path transform="matrix(1,0,0,-1,555.8745,742.2533)" stroke-width="1" stroke-linecap="butt" stroke-miterlimit="10" stroke-linejoin="miter" fill="none" stroke="#ffffff" d="M0 0C2.698 0 4.886 2.188 4.886 4.887 4.886 7.586 2.698 9.773 0 9.773-2.698 9.773-4.886 7.586-4.886 4.887-4.886 2.188-2.698 0 0 0Z"/>
</g>
<g clip-path="url(#p071_clip_16)">
<g transform="matrix(.23992461,0,0,.23980417,-559.275,274.61457)">
<image id="p071_image_17" width="2181" height="857" xlink:href="ART/a289c64958df8.webp"/>
</g>
</g>

<g clip-path="url(#p071_clip_18)">



</g>
</g>
</g>
<defs><path id="p071_font_6_19" d="M.08299255 .111328128V-.000015258789H.14199829C.14266968-.008041382 .14217122-.016733805 .14050293-.02609253 .13883464-.035461427 .1356659-.04465739 .1309967-.05368042 .12632752-.06271362 .120157878-.07107544 .11248779-.07876587 .10482788-.0864563 .095331829-.092310588 .083999637-.096328739V-.14648438C.122665408-.1351115 .15066529-.115712489 .16799927-.08828735 .18533325-.060872396 .19400025-.02810669 .19400025 .010009766V.111328128H.08299255Z"/><path id="p071_font_6_3" d=""/><path id="p071_font_6_41" d="M.17300415 .40722657V.63378909H.3630066C.383667 .63378909 .40316264 .6326243 .42149354 .6302948 .4398346 .6279653 .45600382 .6228078 .47000123 .6148224 .48399864 .606837 .49499513 .5955251 .5029907 .58088687 .5109965 .5662486 .5149994 .5462901 .5149994 .52101138 .5149994 .483078 .50316366 .45463053 .4794922 .43566896 .4558309 .41670738 .41700236 .40722657 .3630066 .40722657H.17300415M.07800293 .7138672V0H.42300416C.45833335 0 .48949687 .005833944 .51649478 .017501831 .5435028 .029179892 .5661723 .04452006 .5845032 .06352234 .60283407 .08253479 .61666366 .10438029 .6259918 .12905884 .6353302 .15374756 .6399994 .17909749 .6399994 .20510865 .6399994 .24912517 .6283315 .2864736 .6049957 .31715394 .58166 .34784446 .54799398 .3678589 .5039978 .37719728V.37919618C.5379944 .392512 .56415817 .4129893 .582489 .44062806 .6008301 .46827699 .6100006 .5010783 .6100006 .539032 .6100006 .575002 .6018321 .60530599 .585495 .62994387 .5691681 .65459188 .54933676 .6739095 .526001 .6878967 .51533 .69454959 .50249227 .6995392 .4874878 .7028656 .4724935 .7062022 .45632936 .70870468 .43899537 .7103729 .42166139 .7120412 .40415956 .71303817 .38648988 .71336367 .36883036 .71369937 .3523356 .7138672 .33700563 .7138672H.07800293M.17300415 .080078128V.32714845H.3899994C.40999858 .32714845 .42933146 .3253123 .44799806 .32164 .46666465 .3179779 .48316447 .3116455 .49749757 .30264283 .5118306 .29364015 .5233307 .28146873 .5319977 .26612855 .5406647 .25078837 .54499819 .2314504 .54499819 .20811463 .54499819 .16810608 .5331624 .13676453 .50949099 .114089969 .48582969 .091415408 .45299784 .080078128 .41099549 .080078128H.17300415Z"/><path id="p071_font_6_42" d="M.58000186 .49935914H.67500308C.66967269 .5373637 .65834048 .5708669 .64100649 .5998688 .6236725 .62887069 .602005 .65304568 .576004 .6723938 .55000308 .69174197 .5203349 .7064209 .4869995 .71643069 .45366416 .7264404 .41832987 .7314453 .3809967 .7314453 .32632957 .7314453 .27782694 .72160848 .23548889 .7019348 .19316101 .6822713 .15783184 .6554362 .12950135 .62142947 .10117086 .58743289 .07967123 .5475972 .06500244 .5019226 .05033366 .45624797 .042999269 .40740968 .042999269 .3554077 .042999269 .30340577 .04983012 .25473533 .06349182 .20939636 .0771637 .16405742 .09766642 .12472025 .125 .09138489 .15233357 .05804952 .18666585 .031880697 .22799683 .012878418 .2693278-.006123861 .31766258-.015625 .3730011-.015625 .46433006-.015625 .5363261 .009389241 .58898928 .059417726 .6416626 .10945638 .67266848 .17947388 .68200686 .2694702H.5870056C.58500167 .24014282 .5789998 .21280925 .56900027 .18746948 .5590007 .1621399 .545166 .14030457 .52749636 .1219635 .50983688 .10363261 .48883567 .08929952 .4644928 .07896423 .44016014 .06863912 .4123281 .06347656 .3809967 .06347656 .33833314 .06347656 .30166627 .07147217 .2709961 .08746338 .2403361 .10346476 .21516927 .12496439 .1954956 .15196228 .17583211 .17896016 .16133118 .21062215 .1519928 .24694824 .1426646 .28327433 .13800049 .32176719 .13800049 .36242677 .13800049 .39974977 .1426646 .43574015 .1519928 .47039796 .16133118 .5050557 .17583211 .5358836 .1954956 .56288149 .21516927 .58987936 .24016826 .6113739 .27049256 .6273651 .30082704 .6433665 .33733116 .6513672 .38000489 .6513672 .43000285 .6513672 .4731649 .6386973 .50949099 .61335757 .5458272 .58802798 .5693309 .5500285 .58000186 .49935914Z"/><path id="p071_font_6_43" d="M.17300415 .080078128V.63378909H.3330078C.377004 .63378909 .41400147 .6276245 .44400025 .6152954 .47399903 .6029663 .49849955 .5849762 .51750186 .5613251 .5365041 .53767397 .5501709 .509023 .5585022 .4753723 .5668335 .4417216 .57099917 .40357463 .57099917 .3609314 .57099917 .31695558 .5664978 .27947489 .5574951 .24848938 .5485026 .21750386 .53700259 .19168091 .522995 .17102051 .5089976 .15037029 .49316407 .13404846 .47549439 .12205505 .45783488 .110061649 .44000245 .10090128 .42199708 .094573978 .40400187 .088246669 .38700358 .08424886 .3710022 .08258057 .35500083 .08091227 .3416697 .080078128 .3310089 .080078128H.17300415M.07800293 .7138672V0H.32299806C.38233439 0 .43367005 .008331299 .477005 .024993897 .52033999 .041656496 .5560048 .065816249 .58399966 .097473148 .6120046 .12914022 .6326701 .1681366 .6459961 .21446228 .6593323 .26078797 .66600039 .3139445 .66600039 .37393189 .66600039 .48857627 .6363322 .57389327 .57699587 .6298828 .5176697 .6858724 .43300376 .7138672 .32299806 .7138672H.07800293Z"/><path id="p071_font_6_44" d="M.07800293 .7138672V0H.5740051V.080078128H.17300415V.32714845H.54400637V.40722657H.17300415V.63378909H.57099917V.7138672H.07800293Z"/><path id="p071_font_6_52" d="M.08000183 .7138672V0H.16999817V.5938873H.17199707L.39500428 0H.47599793L.6990051 .5938873H.701004V0H.79100039V.7138672H.6609955L.43499757 .113983158 .21000672 .7138672H.08000183Z"/><path id="p071_font_6_53" d="M.07699585 .7138672V0H.16700745V.57289126H.16900635L.5419922 0H.6459961V.7138672H.55599978V.13497925H.55400088L.17799378 .7138672H.07699585Z"/><path id="p071_font_6_54" d="M.1329956 .35742188C.1329956 .39341227 .13765972 .4289042 .14698792 .4638977 .1563263 .4988912 .17099507 .5303853 .19099427 .5583801 .21099346 .58637496 .23665874 .60887148 .2679901 .62586978 .29933167 .64286807 .33666993 .6513672 .38000489 .6513672 .42332969 .6513672 .46065776 .64286807 .49198915 .62586978 .5233307 .60887148 .54900106 .58637496 .56900027 .5583801 .58899948 .5303853 .60366317 .4988912 .61299136 .4638977 .6223297 .4289042 .6269989 .39341227 .6269989 .35742188 .6269989 .3214315 .6223297 .28593955 .61299136 .25094605 .60366317 .21595256 .58899948 .18445842 .56900027 .15646363 .54900106 .12846883 .5233307 .10597229 .49198915 .088974 .46065776 .07197571 .42332969 .06347656 .38000489 .06347656 .33666993 .06347656 .29933167 .07197571 .2679901 .088974 .23665874 .10597229 .21099346 .12846883 .19099427 .15646363 .17099507 .18445842 .1563263 .21595256 .14698792 .25094605 .13765972 .28593955 .1329956 .3214315 .1329956 .35742188M.037994386 .35740663C.037994386 .30874125 .04516093 .26190187 .05949402 .21688843 .07382711 .17188518 .095326747 .13204956 .12399292 .09738159 .1526591 .06271362 .18832398 .0352122 .23098755 .014877319 .2736613-.00545756 .32332865-.015625 .37998963-.015625 .43666078-.015625 .48632813-.00545756 .5289917 .014877319 .57166549 .0352122 .6073354 .06271362 .6360016 .09738159 .6646678 .13204956 .6861674 .17188518 .7005005 .21688843 .71483358 .26190187 .7220001 .30874125 .7220001 .35740663 .7220001 .40608216 .71483358 .45292155 .7005005 .4979248 .6861674 .54292806 .6646678 .5827637 .6360016 .61743167 .6073354 .6520996 .57166549 .67976889 .5289917 .70043948 .48632813 .72111007 .43666078 .7314453 .37998963 .7314453 .32332865 .7314453 .2736613 .72111007 .23098755 .70043948 .18832398 .67976889 .1526591 .6520996 .12399292 .61743167 .095326747 .5827637 .07382711 .54292806 .05949402 .4979248 .04516093 .45292155 .037994386 .40608216 .037994386 .35740663Z"/><path id="p071_font_6_59" d="M.2400055 .63378909V0H.3350067V.63378909H.57299807V.7138672H.0019989014V.63378909H.2400055Z"/><path id="p071_font_6_63" d="M.2480011 .3669281 0 0H.10600281L.30400086 .2949524 .4960022 0H.6119995L.36099244 .3669281 .5970001 .7138672H.4909973L.30499269 .43492127 .1269989 .7138672H.013000488L.2480011 .3669281Z"/><path id="p071_font_6_72" d="M.5220032 .0022583008C.5073344-.0064086916 .4869995-.0107421879 .46099855-.0107421879 .43900553-.0107421879 .4215088-.0045776369 .4085083 .007751465 .3955078 .020090739 .38900758 .04026286 .38900758 .06826782 .36567179 .04026286 .33850099 .020090739 .30749513 .007751465 .27649943-.0045776369 .2430013-.0107421879 .20700073-.0107421879 .18366497-.0107421879 .16149394-.008076985 .14048767-.002746582 .11949158 .0025838216 .10132853 .01091512 .085998538 .022247315 .07066854 .03357951 .058502199 .048405965 .04949951 .066726688 .040496828 .08505758 .035995485 .10721842 .035995485 .13320923 .035995485 .16253662 .04099528 .18652852 .050994874 .20518494 .060994466 .22384136 .074157718 .23899842 .09048462 .25065614 .10682169 .262324 .12548828 .27115885 .14648438 .27716065 .16749065 .28316245 .18899536 .28816224 .21099854 .29216004 .2343343 .29681907 .25650025 .30031333 .27749635 .30264283 .29849244 .3049825 .31699119 .3083191 .33299256 .3126526 .34899394 .31698609 .36165873 .3233134 .37098695 .33163453 .38032533 .33996583 .3849945 .35213218 .3849945 .36813355 .3849945 .38678996 .38149516 .40178428 .37449647 .41311646 .36749778 .42444865 .3584951 .43311057 .3474884 .43910218 .3364919 .44510398 .3241577 .44910179 .31048585 .45109559 .29682414 .45309959 .2833303 .45410157 .27000428 .45410157 .23400371 .45410157 .20400493 .44729106 .18000794 .43367005 .15601094 .42004905 .14301045 .39430747 .14100647 .3564453H.055999757C.057332357 .38841758 .06399536 .4153951 .07598877 .43737794 .08799235 .45936076 .103993739 .47717796 .12399292 .49082948 .14399211 .504481 .16682434 .51430258 .19248963 .5202942 .21816509 .52629598 .2456665 .5292969 .2749939 .5292969 .29832969 .5292969 .3214976 .5276286 .34449769 .524292 .36749778 .5209656 .3883311 .5141347 .40699769 .50379946 .42566429 .49347434 .44066368 .47897849 .45199586 .4603119 .46332804 .4416555 .46899415 .41733299 .46899415 .38734437V.12145996C.46899415 .10146078 .4701589 .08679708 .4724884 .07746887 .4748281 .06814066 .48266603 .06347656 .4960022 .06347656 .5033366 .06347656 .5120036 .06507365 .5220032 .06826782V.0022583008M.3840027 .26727296C.3733317 .25927735 .35932923 .2534485 .34199525 .24978638 .32467143 .24612427 .3065084 .24312847 .2875061 .24079895 .26850382 .23846944 .2493337 .23580425 .22999573 .23280335 .21066793 .22981262 .19333904 .22498577 .17800904 .21832276 .16267903 .21165975 .150177 .20216878 .14050293 .18984986 .13083904 .17753093 .12600708 .16071575 .12600708 .1394043 .12600708 .12541707 .12884014 .113591518 .13450623 .10392761 .14017232 .09427389 .14750672 .08645121 .1565094 .080459598 .16551209 .07446798 .17601013 .070139568 .18800354 .067474368 .20000713 .064809169 .21267192 .06347656 .22599793 .06347656 .2540029 .06347656 .27800498 .06730652 .29800416 .07496643 .31800334 .08262634 .33433534 .09228007 .34700013 .10392761 .35966493 .11558533 .3689982 .12823995 .375 .14189148 .3810018 .15555318 .3840027 .16837566 .3840027 .18035889V.26727296Z"/><path id="p071_font_6_74" d="M.4149933 .3515625H.503006C.4996694 .3821818 .4916687 .40864054 .4790039 .43093873 .4663391 .45324708 .4501699 .47172038 .43049623 .48635865 .41083274 .5010071 .38816834 .51182559 .36250306 .5188141 .33683778 .5258026 .30933634 .5292969 .27999879 .5292969 .23932903 .5292969 .20365906 .5221303 .17298889 .50779727 .1423289 .49346415 .11683146 .47379557 .09649658 .4487915 .076161708 .42378745 .060994466 .39444987 .050994874 .3607788 .04099528 .32711793 .035995485 .2909495 .035995485 .25227357 .035995485 .21360779 .041163129 .17810567 .051498414 .14576721 .0618337 .11342875 .077168788 .08559164 .09750366 .06225586 .11783854 .038930257 .14316814 .020929972 .17349243 .008255005 .2038269-.00440979 .23866272-.0107421879 .27799989-.0107421879 .34399925-.0107421879 .39616395 .0066070558 .43449403 .041305543 .47283427 .07600403 .4966685 .12538655 .5059967 .18945313H.41900636C.41366578 .14946492 .39915977 .11846924 .37548829 .096466068 .351827 .07447306 .31899516 .06347656 .2769928 .06347656 .2503306 .06347656 .22733052 .06880188 .20799256 .079452518 .18866475 .09011332 .17299907 .104268398 .16099549 .121917728 .14900208 .13956706 .14017232 .15971375 .13450623 .18235779 .12884014 .20500183 .12600708 .22831218 .12600708 .25228883 .12600708 .27826945 .12867229 .30341087 .13400269 .327713 .13933309 .35202537 .14816284 .37350465 .16049195 .39215089 .17283122 .41080729 .18933106 .4257965 .20999146 .43711854 .23066204 .44844056 .2563324 .45410157 .28700257 .45410157 .32300315 .45410157 .3516693 .44513957 .3730011 .42721559 .3943329 .40930177 .4083303 .38408409 .4149933 .3515625Z"/><path id="p071_font_6_75" d="M.12600708 .25428773C.12600708 .27959696 .12867229 .3042399 .13400269 .32821656 .13934326 .3521932 .14801026 .37350465 .16000366 .39215089 .17200725 .41080729 .18800862 .4257965 .20800781 .43711854 .228007 .44844056 .2523397 .45410157 .28100587 .45410157 .31033326 .45410157 .33533225 .4486033 .3560028 .4376068 .37667338 .42662049 .39350382 .4121348 .40649415 .39414979 .41949464 .37617494 .42899577 .35536195 .43499757 .33171083 .44099937 .30806986 .44400025 .28359477 .44400025 .25828553 .44400025 .23430889 .4411672 .21066284 .4355011 .18734741 .429835 .16404216 .42066957 .14322917 .40800477 .12490845 .39533998 .1065979 .37900798 .091781619 .3590088 .080459598 .3390096 .06913757 .3146769 .06347656 .28601075 .06347656 .25867716 .06347656 .23484294 .06880188 .21450806 .079452518 .19417317 .09011332 .1775055 .10443624 .164505 .122421268 .15150452 .1404063 .14183553 .16088359 .13549805 .18385315 .12917073 .20683289 .12600708 .23031108 .12600708 .25428773M.526001 .0002593994V.7138672H.44099427V.44828797H.43899537C.42965699 .46361796 .41815696 .4764506 .40449525 .4867859 .39083354 .49712119 .3763326 .50545248 .36099244 .5117798 .34566245 .51811727 .33032737 .5226186 .31498719 .5252838 .2996572 .52795919 .2853241 .5292969 .27198792 .5292969 .23266094 .5292969 .19816081 .5221303 .16848755 .50779727 .13882447 .49346415 .11416117 .4741262 .09449768 .44978334 .07483419 .42545066 .060165407 .39694724 .050491334 .36427308 .040827436 .3316091 .035995485 .2969462 .035995485 .26028443 .035995485 .22361247 .04099528 .18893941 .050994874 .15626526 .060994466 .12360128 .07582601 .0949351 .0954895 .07026672 .11516317 .045598348 .13983155 .02592977 .16949463 .011260986 .19915772-.0034077962 .23399353-.0107421879 .27400209-.0107421879 .31000266-.0107421879 .34300233-.0044148766 .3730011 .008239746 .40299989 .020904541 .42499797 .04156494 .43899537 .07022095H.44099427V.0002593994H.526001Z"/><path id="p071_font_6_76" d="M.42300416 .3076172H.12600708C.12733968 .3276876 .13167317 .34658305 .13900757 .3643036 .14634197 .3820343 .15634156 .3975881 .16900635 .41096498 .18167115 .42434184 .19683838 .4348755 .21450806 .44256593 .23217774 .45025636 .25200907 .45410157 .27400209 .45410157 .29533387 .45410157 .3148346 .45025636 .33250428 .44256593 .35017396 .4348755 .36550904 .4245046 .37850953 .41145326 .39151 .39841209 .4018402 .38286338 .40950013 .36480714 .4171702 .3467509 .42167155 .3276876 .42300416 .3076172M.5050049 .1640625H.42100526C.41367088 .13019817 .39850364 .10496521 .37550355 .08836365 .35250346 .071772258 .32300315 .06347656 .28700257 .06347656 .25900779 .06347656 .2346751 .068115238 .21400452 .07739258 .19334412 .08666992 .17634583 .099090579 .16300965 .11465454 .14967346 .13022869 .14000447 .14811707 .13400269 .1683197 .1280009 .18853252 .1253357 .2098999 .12600708 .23242188H.5130005C.51433309 .26384483 .51150009 .29694114 .50450137 .33171083 .49750266 .3664805 .48483277 .39857484 .4664917 .42799378 .4481608 .45741273 .42382813 .48164878 .39349366 .5007019 .36315919 .5197652 .32499186 .5292969 .2789917 .5292969 .24366252 .5292969 .2111613 .5226288 .18148804 .5092926 .15182495 .49595643 .12615967 .47728477 .10449219 .4532776 .08282471 .4292806 .065989177 .40094505 .053985597 .36827088 .041992189 .3356069 .035995485 .29961143 .035995485 .26028443 .037328084 .22094727 .04316203 .18461101 .053497316 .15127564 .0638326 .11794027 .079330448 .089269008 .099990848 .06526184 .120661418 .04126485 .14616394 .022598267 .17649842 .009262085 .20683289-.0040740969 .2426656-.0107421879 .28399659-.0107421879 .34267173-.0107421879 .39134217 .00390625 .43000794 .033203126 .4686737 .06251017 .4936727 .10612997 .5050049 .1640625Z"/><path id="p071_font_6_78" d="M.5099945 .04411316V.5172882H.42999269V.44326783H.42900086C.41367088 .47194419 .39233909 .49344889 .3650055 .507782 .3376719 .52212527 .30766807 .5292969 .2749939 .5292969 .23032634 .5292969 .19265747 .52079269 .1619873 .5037842 .13132732 .4867859 .106664028 .4651133 .08799744 .43876649 .06933085 .41241966 .05599467 .3830719 .04798889 .35072328 .039993287 .3183848 .035995485 .2868805 .035995485 .25621034 .035995485 .2208608 .040827436 .18734741 .050491334 .15567017 .060165407 .12399292 .07466634 .09631348 .09399414 .072631839 .113332118 .04896037 .13733419 .03012085 .16600037 .016113282 .19466655 .0021158856 .22833252-.0048828127 .2669983-.0048828127 .3003235-.0048828127 .33181764 .002614339 .3614807 .017608643 .39115397 .032613119 .41332499 .05611674 .42799378 .08811951H.42999269V.054122926C.42999269 .025456747 .42715965-.00085957846 .42149354-.02482605 .41582743-.048792524 .406662-.06925964 .3939972-.08622742 .3813324-.10319519 .36533103-.116500858 .34599305-.12614441 .32666526-.13579814 .30299888-.140625 .2749939-.140625 .2609965-.140625 .24633281-.13912456 .23100281-.13612366 .2156728-.13312276 .20150757-.12828572 .18850708-.12161255 .17550659-.11494955 .164505-.106282558 .15550232-.09561157 .14650981-.08495077 .14167786-.07195536 .14100647-.056625368H.055999757C.057332357-.084620159 .06466166-.108296718 .07798767-.12765503 .09132385-.14702352 .108159389-.16274007 .12849427-.17480469 .14882915-.18686931 .17149353-.19558208 .19648743-.200943 .2214915-.20630391 .24599712-.20898438 .27000428-.20898438 .35266624-.20898438 .41333009-.18797302 .45199586-.14595032 .49066163-.10393778 .5099945-.040583295 .5099945 .04411316M.27200318 .06933594C.24399822 .06933594 .22066243 .075164798 .20199585 .08682251 .18333943 .098480228 .16834004 .11380514 .15699768 .13279724 .14566548 .15178935 .1376648 .17294312 .1329956 .19625855 .1283366 .21957398 .12600708 .24289449 .12600708 .2662201 .12600708 .29086814 .12884014 .31451927 .13450623 .33717347 .14017232 .35982768 .14916992 .37981669 .16149903 .3971405 .1738383 .41446433 .18967183 .4282888 .20899964 .4386139 .2283376 .448939 .25167338 .45410157 .27900697 .45410157 .30566917 .45410157 .32833354 .44877116 .34700013 .43811036 .36566673 .42744956 .38082887 .4132894 .39248658 .39562989 .40415446 .37798057 .4126536 .3581594 .417984 .33616639 .42332459 .31418357 .42599488 .29186503 .42599488 .26921083 .42599488 .245224 .42316184 .22123719 .41749574 .19725037 .41182963 .17327373 .40299479 .15178935 .3909912 .13279724 .3789978 .11380514 .36316429 .098480228 .3434906 .08682251 .32382713 .075164798 .29999797 .06933594 .27200318 .06933594Z"/><path id="p071_font_6_80" d="M.15400696 .609375V.7138672H.069000247V.609375H.15400696M.069000247 .5169983V0H.15400696V.5169983H.069000247Z"/><path id="p071_font_6_82" d="M.069000247 .7138672V0H.15400696V.19599915L.23399353 .27000428 .41099549 0H.5189972L.29899598 .32893373 .5039978 .51690676H.3899994L.15400696 .29093934V.7138672H.069000247Z"/><path id="p071_font_6_85" d="M.06399536 .5172882V0H.14900208V.29206849C.14900208 .31540428 .15216573 .33690898 .15849304 .35658265 .16483052 .37625633 .17433167 .39342753 .18699646 .4080963 .19966126 .4227651 .2154948 .4340973 .23449707 .4420929 .25349937 .45009867 .27600099 .45410157 .30200196 .45410157 .33466593 .45410157 .3603312 .44476319 .3789978 .42608644 .3976644 .40741984 .40699769 .38208518 .40699769 .3500824V0H.4920044V.3401947C.4920044 .36820985 .48917137 .39372254 .48350526 .4167328 .47783915 .43974305 .46800233 .45958457 .45399476 .47625733 .43999736 .49294029 .42166648 .5059509 .39900209 .5152893 .37633769 .5246277 .3480021 .5292969 .31399537 .5292969 .23732503 .5292969 .18132527 .49794517 .1459961 .4352417H.14399719V.5172882H.06399536Z"/><path id="p071_font_6_86" d="M.12600708 .25828553C.12600708 .28959657 .13017273 .31740318 .13850403 .34170533 .14683533 .36601768 .15833538 .38650004 .17300415 .40315248 .18767293 .4198049 .20483907 .4324595 .22450257 .44111634 .24416606 .44977317 .2649994 .45410157 .28700257 .45410157 .30900575 .45410157 .32983909 .44977317 .34950257 .44111634 .36916606 .4324595 .38633219 .4198049 .40100099 .40315248 .41566978 .38650004 .4271698 .36601768 .4355011 .34170533 .4438324 .31740318 .44799806 .28959657 .44799806 .25828553 .44799806 .22698467 .4438324 .19917806 .4355011 .17486573 .4271698 .15055339 .41566978 .13023885 .40100099 .11392212 .38633219 .097605388 .36916606 .085118617 .34950257 .07646179 .32983909 .06780497 .30900575 .06347656 .28700257 .06347656 .2649994 .06347656 .24416606 .06780497 .22450257 .07646179 .20483907 .085118617 .18767293 .097605388 .17300415 .11392212 .15833538 .13023885 .14683533 .15055339 .13850403 .17486573 .13017273 .19917806 .12600708 .22698467 .12600708 .25828553M.035995485 .25827027C.035995485 .22027588 .041325887 .1849416 .051986696 .15226746 .06265768 .11960348 .07865906 .09110006 .099990848 .0667572 .12132263 .04242452 .14765422 .023422242 .1789856 .009750366 .21032715-.0039113366 .24633281-.0107421879 .28700257-.0107421879 .32833354-.0107421879 .36449687-.0039113366 .39549256 .009750366 .4264984 .023422242 .45266725 .04242452 .47399903 .0667572 .4953308 .09110006 .5113271 .11960348 .5219879 .15226746 .5326589 .1849416 .5379944 .22027588 .5379944 .25827027 .5379944 .2962748 .5326589 .33177696 .5219879 .3647766 .5113271 .39778648 .4953308 .42645774 .47399903 .4507904 .45266725 .47512309 .4264984 .49428813 .39549256 .5082855 .36449687 .5222931 .32833354 .5292969 .28700257 .5292969 .24633281 .5292969 .21032715 .5222931 .1789856 .5082855 .14765422 .49428813 .12132263 .47512309 .099990848 .4507904 .07865906 .42645774 .06265768 .39778648 .051986696 .3647766 .041325887 .33177696 .035995485 .2962748 .035995485 .25827027Z"/><path id="p071_font_6_89" d="M.06100464 .5172882V0H.1459961V.23023987C.1459961 .26360575 .14932759 .2931315 .1559906 .31881715 .16266378 .34451295 .17333476 .36636863 .18800354 .38438417 .20267232 .40240989 .2220052 .41609193 .2460022 .4254303 .26999919 .43477885 .29899598 .43945313 .33299256 .43945313V.5292969C.28700257 .53062948 .2490031 .5212911 .21899414 .50128176 .18899536 .48127238 .16366577 .45025636 .14300537 .40823365H.14100647V.5172882H.06100464Z"/><path id="p071_font_6_91" d="M.18200684 .5175781V.671875H.09700012V.5175781H.009002686V.4423828H.09700012V.113098148C.09700012 .08908081 .09933472 .069732669 .104003909 .05505371 .108673099 .040374757 .11583964 .029027304 .12550354 .021011353 .13516744 .013005574 .14783223 .007502238 .16349793 .004501343 .17916362 .0015004476 .19799805 0 .22000122 0H.28500367V.07519531H.2460022C.23266602 .07519531 .22183228 .075693767 .21350098 .076690677 .20516968 .077697757 .19866944 .0798645 .19400025 .08319092 .18934123 .086527507 .18617757 .09119669 .18450928 .09719849 .18284099 .10321045 .18200684 .111216228 .18200684 .12121582V.4423828H.28500367V.5175781H.18200684Z"/></defs><use data-text="C" xlink:href="#p071_font_6_42" transform="matrix(10,0,0,-10,-222.48505,737.85647)" fill="#124734"/><use data-text="E" xlink:href="#p071_font_6_44" transform="matrix(10,0,0,-10,-215.26505,737.85647)" fill="#124734"/><use data-text="O" xlink:href="#p071_font_6_54" transform="matrix(10,0,0,-10,-209.15506,737.85647)" fill="#124734"/><use data-text=" " xlink:href="#p071_font_6_3" transform="matrix(10,0,0,-10,-201.55506,737.85647)" fill="#124734"/><use data-text="a" xlink:href="#p071_font_6_72" transform="matrix(10,0,0,-10,-198.77506,737.85647)" fill="#124734"/><use data-text="n" xlink:href="#p071_font_6_85" transform="matrix(10,0,0,-10,-193.40506,737.85647)" fill="#124734"/><use data-text="d" xlink:href="#p071_font_6_75" transform="matrix(10,0,0,-10,-187.84506,737.85647)" fill="#124734"/><use data-text=" " xlink:href="#p071_font_6_3" transform="matrix(10,0,0,-10,-181.91507,737.85647)" fill="#124734"/><use data-text="M" xlink:href="#p071_font_6_52" transform="matrix(10,0,0,-10,-179.13507,737.85647)" fill="#124734"/><use data-text="a" xlink:href="#p071_font_6_72" transform="matrix(10,0,0,-10,-170.42508,737.85647)" fill="#124734"/><use data-text="n" xlink:href="#p071_font_6_85" transform="matrix(10,0,0,-10,-165.05509,737.85647)" fill="#124734"/><use data-text="a" xlink:href="#p071_font_6_72" transform="matrix(10,0,0,-10,-159.49509,737.85647)" fill="#124734"/><use data-text="g" xlink:href="#p071_font_6_78" transform="matrix(10,0,0,-10,-154.12509,737.85647)" fill="#124734"/><use data-text="i" xlink:href="#p071_font_6_80" transform="matrix(10,0,0,-10,-148.3851,737.85647)" fill="#124734"/><use data-text="n" xlink:href="#p071_font_6_85" transform="matrix(10,0,0,-10,-146.1651,737.85647)" fill="#124734"/><use data-text="g" xlink:href="#p071_font_6_78" transform="matrix(10,0,0,-10,-140.6051,737.85647)" fill="#124734"/><use data-text=" " xlink:href="#p071_font_6_3" transform="matrix(10,0,0,-10,-134.86511,737.85647)" fill="#124734"/><use data-text="D" xlink:href="#p071_font_6_43" transform="matrix(10,0,0,-10,-132.08512,737.85647)" fill="#124734"/><use data-text="i" xlink:href="#p071_font_6_80" transform="matrix(10,0,0,-10,-125.045108,737.85647)" fill="#124734"/><use data-text="r" xlink:href="#p071_font_6_89" transform="matrix(10,0,0,-10,-122.8251,737.85647)" fill="#124734"/><use data-text="e" xlink:href="#p071_font_6_76" transform="matrix(10,0,0,-10,-119.67511,737.85647)" fill="#124734"/><use data-text="c" xlink:href="#p071_font_6_74" transform="matrix(10,0,0,-10,-114.305118,737.85647)" fill="#124734"/><use data-text="t" xlink:href="#p071_font_6_91" transform="matrix(10,0,0,-10,-108.93512,737.85647)" fill="#124734"/><use data-text="o" xlink:href="#p071_font_6_86" transform="matrix(10,0,0,-10,-105.785129,737.85647)" fill="#124734"/><use data-text="r" xlink:href="#p071_font_6_89" transform="matrix(10,0,0,-10,-100.045139,737.85647)" fill="#124734"/><use data-text="," xlink:href="#p071_font_6_19" transform="matrix(10,0,0,-10,-97.63516,737.85647)" fill="#124734"/><use data-text=" " xlink:href="#p071_font_6_3" transform="matrix(10,0,0,-10,-94.85516,737.85647)" fill="#124734"/><use data-text="B" xlink:href="#p071_font_6_41" transform="matrix(10,0,0,-10,-92.075168,737.85647)" fill="#124734"/><use data-text="a" xlink:href="#p071_font_6_72" transform="matrix(10,0,0,-10,-85.22516,737.85647)" fill="#124734"/><use data-text="n" xlink:href="#p071_font_6_85" transform="matrix(10,0,0,-10,-79.85516,737.85647)" fill="#124734"/><use data-text="k" xlink:href="#p071_font_6_82" transform="matrix(10,0,0,-10,-74.295169,737.85647)" fill="#124734"/><use data-text=" " xlink:href="#p071_font_6_3" transform="matrix(10,0,0,-10,-69.10516,737.85647)" fill="#124734"/><use data-text="N" xlink:href="#p071_font_6_53" transform="matrix(10,0,0,-10,-66.325138,737.85647)" fill="#124734"/><use data-text="X" xlink:href="#p071_font_6_63" transform="matrix(10,0,0,-10,-59.105165,737.85647)" fill="#124734"/><use data-text="T" xlink:href="#p071_font_6_59" transform="matrix(10,0,0,-10,-52.99518,737.85647)" fill="#124734"/></svg>
