<svg preserveAspectRatio="xMidYMid meet" class="pgsvg" xmlns="http://www.w3.org/2000/svg" xmlns:xlink="http://www.w3.org/1999/xlink" xmlns:inkscape="http://www.inkscape.org/namespaces/inkscape" version="1.1" width="595.275" height="560.000" viewBox="0 114.000 595.275 560.000">
<defs>
<clipPath id="p108_clip_1">
<path transform="matrix(1,0,0,-1,0,841.89)" d="M0 0H595.275V841.89H0Z" clip-rule="evenodd"/>
</clipPath>
<clipPath id="p108_clip_2">
<path transform="matrix(1,0,0,-1,0,841.89)" d="M0 0H1190.551V841.89H0Z"/>
</clipPath>
<clipPath id="p108_clip_3">
<path transform="matrix(1,0,0,-1,0,841.89)" d="M0 0H1190.55V841.89H0Z"/>
</clipPath>
</defs>
<g clip-path="url(#p108_clip_1)">
<text fill="#015937" xml:space="preserve" transform="matrix(1 0 -0 1 0 841.89)" font-size="20" font-family="ABCNormal-Bold" font-weight="bold"><tspan y="-701.8898" x="36 49.74 63.600004 75.740009 89.18001 103.20001 109.000019 121.360019 133.86002 138.18003 151.70003 165.86003 171.66004 182.66004 197.10004 202.90004 218.04004">CAPACITY BUILDING</tspan></text>
<text fill="#414042" xml:space="preserve" transform="matrix(.9931213 0 -0 1.0069263 0 841.89)" font-size="9.931213" font-family="ABCNormal-Regular"><tspan y="-671.24057" x="36.249349 42.94795 48.52631 50.899869 53.30719 59.307634 61.681196 67.375759 73.35434 75.63852 80.8683 86.5847 92.20477 100.60956 103.02185 108.67072 114.68606 120.71133 126.28274 128.56691 134.0122 139.72365 145.71218 147.99636 153.10298 158.31885 160.69242 163.06598 165.47728 170.52233 172.8065 175.21086 180.2559 182.54009 188.10057 193.72362 199.36156 202.76996 206.18529 211.62262 213.99619 216.28037 219.61527 225.33565 227.61983 232.71752 238.34552 243.4581 246.9519 252.36342 254.73699 260.40675 262.7803 268.47486 274.45347 276.73765 279.14894 284.91203 290.6066 296.84837 300.15843 303.5072 309.13029 312.54167 321.50953 323.7937 326.16728 335.1828 341.2051 346.6633 352.2337 355.81889 358.15275 360.4369 367.8128 373.40608 376.7926 379.07679 384.6561 390.1014 396.1237 401.58189 407.0947 409.46827 413.1249 418.2693 421.76509 427.7993 433.37763 435.7512 438.15855 444.15898 446.53254 452.2271 458.2057 460.48988 466.06129 469.74678 473.14323 478.9063 482.55207 486.03099 491.07603 493.3602 496.854 502.29829 507.1745 512.7459 515.0301 521.0663 523.4687 528.9269 534.48739 540.0588 542.34298 548.40396 554.10147 557.5098 563.20046">Building knowledge and skills is central to sustaining long-term impact. Our capacity-building efforts take place both </tspan></text>
<text fill="#414042" xml:space="preserve" transform="matrix(.9923911 0 -0 1.0076673 0 841.89)" font-size="9.92391" font-family="ABCNormal-Regular"><tspan y="-657.8459" x="36.27602 38.64684 44.277669 47.62004 53.23499 56.640878 62.339189 67.768558 70.13045 72.541957 77.115879 79.38846 81.666 85.0699 90.76225 94.11455 99.877368 105.46353 111.460559 117.10726 119.3848 124.93823 130.69312 136.32295 139.69112 142.06195 147.75133 153.35735 159.12017 164.74007 169.77149 172.04901 175.45291 178.86278 184.26634 186.63716 192.29976 194.67058 200.357 206.32126 208.59877 214.0361 219.73938 225.71358 227.9911 234.01888 237.37117 243.05658 246.44759 252.06749 257.217 262.29508 264.65699 270.41188 276.11018 281.54054 283.9024 286.17997 292.20777 297.67686 302.71919 308.3351 310.74168 316.49656 322.52534 331.54719 337.16215 342.79194 346.19584 348.4734 351.86836 357.62425 360.99839 363.2759 369.03874 374.6249 377.99903 380.27659 385.38145 388.8697 394.25837 397.93717 401.05827 403.3308 405.60838 411.0457 416.74995 422.72413 425.00169 430.4152 435.8912 439.23359 444.84953 448.2544 453.9527 459.38304 461.74494 464.1565 468.7304 471.003 473.28053 476.68443 482.37675 485.72904 491.49186 497.07804 503.07505 508.72175 510.9993 519.256 525.0109 528.4158 533.44229 538.54116 544.2504 550.0053 556.03707 561.1995 563.5128">internally, through continuous training and professional development for our staff, and externally, through workshops, </tspan></text>
<text fill="#414042" xml:space="preserve" transform="matrix(1.0081915 0 -0 .99187508 0 841.89)" font-size="10.081915" font-family="ABCNormal-Regular"><tspan y="-655.2133" x="35.707506 40.964216 46.741155 55.93687 58.42105 64.28873 69.88924 73.50662 78.82786 81.215259 83.70549 89.304988 95.17266 101.32061 103.81085 109.07259 112.60529 116.16421 121.936107 127.662639 131.19937 136.94908 140.42534 146.23252 152.38149 154.86669 161.06708 164.54936 170.50174 176.67086 180.20961 185.81012 195.03507 204.27716 210.06217 215.25336 217.73854 223.93894 229.71588 232.19805 234.72356 239.9228 245.69976 249.177 254.98319 261.13215 263.6173 266.1015 271.91777 274.40293 280.12037 286.04246 288.5206 291.031 296.6315 302.85606 308.77915 312.31794 317.8761 321.3725 323.85066 329.77275 335.589 338.07417 346.67405 349.16127 352.69294 358.5092 360.99436 366.74507 372.57243 375.103 380.30128 386.0782 389.6956 394.93116 397.41734 400.91477 403.3919 409.17793 414.36808 416.85325 422.45375 428.3214 434.46937 436.95454 442.5681 448.30375 453.90928 460.10966 465.88658 475.08128 477.55943 483.23353 485.72373 488.20796 494.07563 499.33738 502.83479 505.32099 508.8567 514.6105 518.1079 520.585 526.5082 532.37588 537.686 540.1248 542.61 549.45559 554.70828">seminars, and structured programmes delivered in collaboration with universities and academic institutions. By </tspan></text>
<text fill="#414042" xml:space="preserve" transform="matrix(1.0027013 0 -0 .9973059 0 841.89)" font-size="10.027014" font-family="ABCNormal-Regular"><tspan y="-638.6103" x="35.903017 38.348604 43.97877 49.123636 54.852067 60.060098 63.511396 65.956989 71.752597 77.828968 80.27555 82.72014 88.47565 90.92224 94.495868 100.03078 102.51145 108.23487 113.97333 117.46273 119.909328 126.04986 131.62488 136.76874 142.49317 144.97385 150.83866 156.9782 166.14388 171.86731 177.60578 181.09517 183.54177 192.06975 194.51734 198.00675 203.77729 206.22287 211.97838 214.42498 217.91437 223.73204 229.39731 231.8439 237.70871 241.17404 247.29453 252.83847 258.609 260.9834 265.98689 271.4887 274.94 277.3766 283.2414 288.9969 291.44349 296.9864 302.79905 308.88548 311.33204 316.52507 322.2174 328.35795 334.53358 340.39839 344.12443 347.57673 350.0223 355.81697 361.8933 364.33988 369.5479 373.03733 378.76078 384.9013 390.62477 396.3622 399.9208 405.05464 407.50123 413.04515 418.8568 424.9432 427.38978 432.5236 438.39643 444.08879 449.8844 455.96076 458.40736 464.54689 467.98414 473.77775 477.25413 482.98158 488.23377 493.4147 495.85127 501.71507 507.5227 513.0586 515.53829 520.6721 523.1188 529.28439 534.8393 539.9721 545.83688 551.64956 557.7259">investing in talent development within the organization and supporting students and young professionals beyond </tspan></text>
<text fill="#414042" xml:space="preserve" transform="matrix(.99955496 0 -0 1.0004453 0 841.89)" font-size="9.995549" font-family="ABCNormal-Regular"><tspan y="-623.6121" x="36.01603 38.44095 42.090326 44.417287 46.74625 55.091535 60.727029 63.055994 68.68349 74.51089 80.21635 83.6778 87.127269 89.549198 95.65347 101.31695 104.71844 110.35392 112.682888 116.07037 121.8558 124.18476 129.65033 131.9793 137.15599 140.61746 144.02796 149.85536 155.6178 161.71408 167.40454 170.40419 172.73116 175.06012 184.18206 190.00946 193.41594 199.05144 201.3804 207.02687 212.53443 218.62673 224.13426 230.22956 232.68846 238.32395 240.65291 244.2463 246.66924 252.44365 257.9512 263.73564 269.3152 271.7421 277.24964 279.66658 281.99555 287.71604 293.34355 299.17893 304.23469 309.46134 314.638 318.0395 323.72999 332.8929">it, we contribute to a stronger, more capable financial ecosystem.</tspan></text>
<text fill="#015937" xml:space="preserve" transform="matrix(1 0 -0 1 0 841.89)" font-size="16" font-family="ABCNormal-Bold" font-weight="bold"><tspan y="-584.8898" x="36 40.64 49.968 58.831998 68 76.48 82.72 86.864 96.352 106.192 109.648 113.792 123.28 126.736 136.192 145.504 151.28 154.736 165.152 174.31999 183.77599 193.61598 197.72798">Investing in our People</tspan></text>
<text fill="#414042" xml:space="preserve" transform="matrix(1.0099505 0 -0 .9901476 0 841.89)" font-size="10.099504" font-family="ABCNormal-Regular"><tspan y="-564.4509" x="35.64531 42.882616 48.824159 54.63945 58.151048 60.645627 66.5195 72.31056 78.260189 84.06437 89.27572 91.77535 94.308307 100.08826 105.70661 109.256587 115.104198 117.59878 123.470638 129.63134 132.13097 134.65685 139.8682 142.3668 145.98648 151.75533 157.64435 163.8535 169.47287 178.73917 184.53832 190.3526 193.98639 199.59668 202.09125 204.58988 208.06208 213.96019 216.45882 225.71602 231.30004 233.79462 239.6089 243.24269 248.82672 251.32129 257.1679 259.6625 265.53434 271.69508 274.1947 280.0413 282.5268 288.71473 294.55226 297.05085 302.3309 305.96568 311.584 317.47306 323.68226 329.3006 332.80717 339.04057 344.25193 346.75053 352.62138 356.1562 358.65483 364.90943 370.70857 374.49388 378.02873 383.9702 387.52024 396.77845 402.3968 408.29087 414.0264 419.77305 422.27165 427.88999 433.77903 439.94984 442.44844 448.6576 454.44358 459.661 465.46015 469.01014 474.8941 480.51246 486.40754 492.14308 497.88969 500.38829 506.02079 511.73405 515.23049 521.176 526.5005 531.71188 534.21047 540.3722 546.37838 553.7712">Continuous learning is fundamental to maintaining high standards of performance and governance across EFG </tspan><tspan y="-551.3216" x="35.64531 43.35628 49.383665 51.99843 58.267194 60.850648 66.807338 73.1478 75.68278 78.34905 86.016597 91.87128 95.47681 98.14308 100.72552 106.625659 110.197849 116.08283 119.71866 125.68848 131.3846 133.95998 136.62624 139.24503 145.10982 150.81403 154.44985 160.3823 162.96575 168.92345 175.16495 177.8312 183.53543 189.5093 195.76088 198.42714 204.73227 210.46779 215.77002 221.656 224.27481 230.3022 236.60732 245.95844 251.84343 257.74357 261.37937 264.04566 270.35078 273.93305 279.99073 286.2635 289.90336 295.60755 304.9425 314.29469 320.1847 325.47685 328.1431 333.8473 337.42353 343.25096 345.91725 352.22236 358.1124 363.45097 366.02635 372.30015 378.2801 384.1913 390.44294 393.10923 396.66725 402.64616 405.31245 410.67829 414.3141 417.89134 423.7763 429.733 436.00883 439.64463 445.62455 451.50956 457.42787 460.09416 463.66633 469.5816 475.37977 481.3425 487.27497 489.85035 495.69093 501.38706 503.96244 506.62873 512.3076 517.86038 524.19979 530.0848 533.9589 537.5564 540.16818 545.52896 551.34927 553.7024">Holding. Our internal learning and development programmes are designed to strengthen technical expertise, </tspan></text>
<text fill="#414042" xml:space="preserve" transform="matrix(1.006474 0 -0 .99356767 0 841.89)" font-size="10.06474" font-family="ABCNormal-Regular"><tspan y="-536.3397" x="35.768438 38.275568 44.019514 49.60947 55.791238 61.5533 65.15748 70.39618 76.20655 78.67846 84.807888 87.28381 93.001598 98.5845 104.75117 110.33408 116.461498 118.92736 121.39323 123.867137 127.35055 129.81642 135.58452 140.88764 143.26291 145.73883 151.32074 157.17337 163.30281 165.77872 171.49349 175.01615 180.82552 183.29138 189.00917 194.58403 197.0499 199.5258 205.70757 211.49983 217.15119 219.65126 224.86983 227.3357 233.24068 239.33185 242.93906 252.1473 257.7292 263.0796 265.55149 271.387 277.50636 279.9823 285.51789 289.04057 291.5165 297.09034 299.55619 302.02204 304.498 307.0051 312.6182 317.80058 323.56364 326.07176 331.24504 333.72096 339.55348 343.056 345.53196 349.0496 354.90727 360.61396 363.0899 368.9939 372.48637 378.64698 384.22889 390.03926 392.4407 397.4811 403.01673 406.50013 408.96598 414.87095 420.76887 423.1945 425.6704 431.66905 437.50959 440.97688 446.88993 452.6218 458.77235 464.5696 467.04557 472.2913 475.80894 479.35475 485.10774 490.81745 494.34013 500.073 503.53526 509.3235 515.45297 517.92886 521.45156 524.9762 530.5249 532.9968 538.8062 541.2791 547.11367 553.3477 555.6929">leadership capabilities, and ethical decision-making at all levels of the organization. Through structured training, </tspan></text>
<text fill="#414042" xml:space="preserve" transform="matrix(1.0060319 0 -0 .99400439 0 841.89)" font-size="10.060318" font-family="ABCNormal-Regular"><tspan y="-523.02566" x="35.784158 41.456167 44.920938 50.824335 56.110025 61.54461 64.95405 68.54055 74.26789 80.12099 85.82519 89.30405 91.76882 97.6682 103.51123 109.08063 111.5454 114.02025 119.37938 125.23247 130.98697 139.5634 142.06842 147.8521 154.00801 160.17398 165.87818 168.353 173.58739 179.43042 185.00786 188.50986 190.97464 196.8046 203.03395 205.40818 207.87798 213.45642 219.30348 225.43022 227.90001 231.5006 237.07904 240.56998 246.73694 252.44718 255.90087 261.68556 267.8123 270.28208 276.01045 282.19053 287.42594 292.77098 295.23576 297.70054 300.1653 302.6301 308.46006 314.57673 317.05155 319.51634 325.32215 327.79298 331.27284 333.74568 339.27885 342.7587 345.26875 350.4468 356.20939 361.50816 363.8824 366.35218 374.7817 380.4859 382.9557 388.7404 394.9013 400.61357 403.07835 409.20509 411.6799 417.5873 423.31468 426.8056 429.2754 435.48765 441.27537 447.1747 453.35176 455.85575 461.55998 464.02976 467.4694 473.3245 475.79426 481.38078 487.54673 493.12419 499.23786 502.75898 505.2338 508.67344 514.5285 517.00338 522.61196 527.795 533.6944 536.20956 541.55258 544.01736 549.8483 555.9348">cross-functional knowledge sharing, and targeted upskilling initiatives, we equip our people to adapt to evolving </tspan></text>
<text fill="#414042" xml:space="preserve" transform="matrix(1.0099505 0 -0 .9901476 0 841.89)" font-size="10.099504" font-family="ABCNormal-Regular"><tspan y="-511.93357" x="35.64531 44.90353 50.518854 54.069845 59.109498 64.862178 68.41417 70.9138 77.13409 82.93423 92.19245 97.80778 103.69781 109.932239 115.14055 117.645229 126.28333 132.13095 134.62654 137.16152 142.90612 145.40573 150.67162 156.44147 162.66074 168.91637 174.85488 178.6432 182.1558 184.65444 190.52629 196.68497 199.18457 204.45047 210.25566 215.5367 219.17049 224.75553 227.25315 233.13813 238.75345 244.96364 247.49861 253.23413 255.6358 258.13545 260.6704 266.60893 272.48179 278.91114 282.3581 285.84547 291.64564 295.1956 304.39424 306.8989 313.08683 316.5843 322.38038 331.25883 334.8068 340.74226">market demands while supporting sustainable, long-term growth.</tspan><tspan y="-485.67485" x="35.64531 41.789854 47.788957 53.640607 56.357378 63.04426 68.90198 74.6385 80.96584 86.874057 96.041378 101.45875 104.175518 110.317028 115.735408 118.45217 124.72295 130.83518 138.38455 141.10134 146.48436 152.39257 156.32836 161.65282 167.56102 172.87741 175.59418 181.33069 186.64708 189.36386 193.01886 199.01798 204.86963 207.58641 215.29032 218.89482 224.95452 230.83142 237.04262 239.37155 244.68795 247.40471 253.24829 259.1565 265.07887 268.73387 272.39595 278.1153 280.7149 283.43168 289.75798 292.3909 298.0749 301.94303 305.591 311.6406 315.2986 324.6043 327.32106 330.96903 337.01863 340.64839 343.36515 347.10704 352.82536 355.46638 361.3746 367.29698 370.957 373.6738 380.00114 385.75886 391.0833 396.99156 399.63258 405.68217 412.0095 421.38386 427.29209 433.21446 437.06034 439.56803 442.28477 448.1425 453.86894 460.18214 465.90858 472.18238 474.785 477.38768 479.99537 483.90287 489.32023 492.03697 498.35926 504.22105 506.82368 509.46064 515.7516 518.3573 524.33718 530.71707 533.22579 535.9425 541.6689 547.66799 553.78829">The Academy by EFG serves as the Group&#x2019;s central platform for talent development, capability building, and </tspan></text>
<text fill="#414042" xml:space="preserve" transform="matrix(.9899596 0 -0 1.0101422 0 841.89)" font-size="9.899596" font-family="ABCNormal-Regular"><tspan y="-463.192" x="36.36512 41.780199 47.802125 52.85785 58.27293 63.9553 69.48323 75.07254 84.06138 89.65069 95.255847 98.6425 100.89961 103.252758 108.8777 111.13482 113.5226 119.09409 124.50918 130.50833 136.09764 139.56447 144.639 150.27584 152.62897 158.50734 160.81592 163.07302 168.89397 174.5605 177.89269 183.6305 189.19011 195.16155 200.7855 203.0426 208.40917 210.66628 215.74773 219.12943 222.53488 228.11826 233.65215 237.0378 242.5984 245.92566 251.54169 257.49235 259.74946 262.13725 267.70875 273.12385 276.5095 282.14537 284.49946 290.16007 296.10179 298.35893 301.78816 305.1768 310.5919 319.5797 325.03736 333.26097 338.99284 342.3775 347.64213 349.9002 352.15736 355.54005 361.22239 366.75828 369.01539 375.36994 380.91566 386.3367 392.33589 397.92619 406.71107 411.82124 414.07838 419.144 424.7046 430.70378 436.73957 442.4714 446.08973 449.5427 454.55287 456.81 462.33793 468.06977 473.67393 477.02198 479.37608 485.03865 490.622 496.35984 501.95408 506.96528 509.2224 515.22158 518.55477 524.2134 527.5852 533.17947 538.30349 543.3621 545.7083 551.4402 557.1127 562.5178 564.9135">advancement in leadership. Through a structured learning framework, the Academy supports continuous professional </tspan></text>
<text fill="#414042" xml:space="preserve" transform="matrix(1.009381 0 -0 .9907062 0 841.89)" font-size="10.09381" font-family="ABCNormal-Regular"><tspan y="-459.1571" x="35.66542 41.878164 47.52161 52.732034 58.52588 61.05438 66.99055 73.203289 82.46133 88.25517 94.063159 97.610118 100.103298 105.72555 111.43258 114.92403 120.863239 126.18166 131.38503 133.87819 139.48328 141.96939 144.45652 146.94968 149.47817 155.12163 160.33206 166.1259 168.6544 173.98697 176.38323 178.8764 184.67024 190.55495 195.81381 201.5774 205.10721 207.60037 213.46588 219.61705 222.11023 227.90409 237.14496 243.35771 245.8862 251.6417 256.83699 262.6591 268.45295 273.65528 276.14845 281.76057 285.24699 290.98429 293.47746 299.29655 305.49415 311.24156 313.73475 319.94749 326.19557 332.01466 338.17695 340.6701 349.29023 351.7854 355.3273 361.15547 363.6486 367.1905 373.07518 378.8125 381.30564 386.57359 391.9526 394.44276 396.92887 399.45738 404.79093 407.1872 409.68034 415.07249 420.95719 426.747 435.36714 437.89564 443.71473 449.90629 456.10893 461.83717 464.23445 466.7276 472.33976 478.22447 484.3857 486.87886 492.60813 498.5433 507.78419 514.0323 519.7777 523.25906 529.05288 534.93759 540.61837 543.1054 548.8993 554.05728">development across all levels, ensuring employees are equipped with the skills, knowledge, and competencies </tspan></text>
<text fill="#414042" xml:space="preserve" transform="matrix(1.0058479 0 -0 .99418607 0 841.89)" font-size="10.058479" font-family="ABCNormal-Regular"><tspan y="-444.47395" x="35.7907 39.248804 45.030416 51.190229 56.90043 59.364759 62.82186 68.60448 74.730098 77.19945 80.637439 86.49147 88.959819 94.1842 99.910488 106.08438 112.29349 118.19178 121.944599 125.465068 127.9344 131.44684 137.29784 143.001 145.47034 153.01522 156.47834 162.38368 168.10999 174.16822 176.36095 181.531 183.99935 186.5019 192.40019 198.22908 204.61119 208.02506 211.47713 217.2336 220.74904 229.89218 232.36052 237.59998 241.11241 244.63288 250.16504 253.61812 259.39973 265.57966 270.85029 273.31864 278.89408 284.74006 290.8657 293.33406 298.94166 304.12178 310.02009 312.53367 317.87474 320.33906 326.16795 332.28349 334.75285 340.92573 346.68623 351.8985 354.36283 360.21388 365.97438 371.25807 376.42814 378.89747 384.7475 390.53419 396.3158 402.5048 407.79154">required to support the Group&#x2019;s long-term strategy and evolving business needs.</tspan></text>
<text fill="#414042" xml:space="preserve" transform="matrix(1.0066033 0 -0 .99344018 0 841.89)" font-size="10.066031" font-family="ABCNormal-Regular"><tspan y="-418.636" x="35.763845 41.764204 47.62263 53.330076 55.806318 61.389947 67.23126 73.06956 78.81424 84.389827 86.855998 89.33224 96.49925 102.11408 107.29709 113.0619 115.57035 121.4761 127.658649 136.87813 142.64196 148.42086 151.94396 154.4202 161.99388 167.7879 173.57788 179.77454 184.94847 187.4247 194.07936 199.37107 204.61244 210.3813 215.672 220.91237 230.13187 235.89568 241.67459 245.1977 247.67392 250.28406 257.3957 264.9905 271.314 274.25328 276.7295 279.2309 284.40483 286.88105 292.41737 294.89363 299.8994 305.4941 310.7687 313.24494 318.94633 324.85209 334.05448 340.27229 346.17805 352.03648 357.80027 363.5792 367.1023 369.57856 375.4128 378.9158 381.39204 384.91517 390.77363 396.48106 398.95729 405.13984 410.75465 415.93766 421.70347 424.21189 430.11769 436.30024 445.5197 451.2835 457.0624 460.58555 463.06178 469.24436 472.7131 478.65409 484.3545 490.12333 495.414 500.58796 503.06419 506.57624 512.48196 515.97488 518.4511 524.3659 530.09957 533.59249 536.0687 541.5668 548.5245 555.62106">The annual Development Needs Assessment (DNA) is a key component of the development process for our L&#x0026;D </tspan></text>
<text fill="#414042" xml:space="preserve" transform="matrix(1.0099505 0 -0 .9901476 0 841.89)" font-size="10.099504" font-family="ABCNormal-Regular"><tspan y="-406.8987" x="35.64531 41.296998 47.062807 50.594606 53.154825 58.557054 61.071828 64.60362 67.1184 72.942798 78.29149 80.76587 83.30084 86.08932 89.66455 92.199527 98.44001 101.956668 107.76287 113.16509 115.69199 121.931468 127.75585 132.9874 135.52237 141.16092 147.01863 149.5536 155.51634 161.75582 168.03063 173.99237 177.80089 181.37612 187.16616 193.03296 195.54773 199.36736 204.6999 207.23488 210.79596 216.75769 220.30261 222.83759 229.10231 234.99739 238.56555 244.42327 246.95822 252.77758 262.04689 268.28739 270.8405 276.6225 281.84294 287.69255 293.5169 298.74848 301.28343 306.92198 312.83119 319.02217 321.55714 330.83454 336.47306 342.3772 348.00666 354.236 360.05534 363.7083 368.93986 371.47483 374.96723 380.88554 383.4205 389.0348 394.52085 400.7603 403.31346 409.27519 412.78678 418.5536 421.08857 426.14738 431.79704 437.12956 439.66453 445.90397 451.57383 456.8104 462.6307 465.18388 471.1456 477.38609 486.67259 492.4919 498.32643 501.90165 504.43659 510.3509 516.2005 522.04617 528.2998 533.5314 536.0664 541.70498 547.6142 553.7345">activities. It provides an opportunity for both employees and managers to explore key development needs and </tspan></text>
<text fill="#414042" xml:space="preserve" transform="matrix(1.004913 0 -0 .99511107 0 841.89)" font-size="10.0491299" font-family="ABCNormal-Regular"><tspan y="-391.80534" x="35.823999 41.484678 44.93454 50.66254 56.186548 59.631387 65.3192 67.78123 71.288379 77.12894 82.81674 85.27877 90.96256 96.85035 100.3585 103.80836 109.56048 114.78402 120.98332 126.87111 132.70664 138.83559 141.29663 147.11507 153.21489 155.67694 158.17314 163.90013 169.46636 172.97551 178.76885 181.22988 187.04833 193.14815 195.61019 198.07323 203.96906 209.68498 213.19416 219.0347 224.61196 229.89278 235.04798 237.51001 243.65003 249.2263 254.45085 260.2241 266.33396 268.79603 274.68379 280.46205 282.9241 288.82295 291.285 296.50953 301.84364 304.30165 306.7536 309.2498 314.405 316.86708 320.37425 323.88639 329.46669 335.12733 340.2765 345.7 349.02629 351.48835 356.71189 365.8988 371.465 375.21128 378.71846 381.18049 386.40403 391.73814 394.19715 396.6491 399.1453 404.43318 406.7947 409.25675 412.7016 418.47785 424.13954 429.96299 435.7563 438.20829 443.91117 449.46934 451.9213 454.38337 459.6069 464.942 467.4 469.85197 472.34819 477.63603 479.99757 482.45964 485.90446 491.6807 497.34239 503.16584 509.0064 514.8942 517.39047 523.30947 529.4786 534.1695 536.531 538.99307 544.55929 550.3948 556.48458">create the corresponding learning journeys based on 4 skills tracks- smart skills, technical skills, technology, and </tspan></text>
<text fill="#414042" xml:space="preserve" transform="matrix(1.0078293 0 -0 .9922314 0 841.89)" font-size="10.078294" font-family="ABCNormal-Regular"><tspan y="-379.84065" x="35.720335 41.737077 47.608694 53.329137 55.80839 62.363317 68.09585 73.69938 79.89754 85.67239 94.70255 99.4212 101.80674 104.286 107.808368 113.72735 117.231578 119.71084 123.23925 129.11086 134.88571 144.12044 149.37425 155.1491 157.67876 162.87412 168.65602 173.8433 176.32257 181.91905 187.7846 193.92934 196.4086 199.93802 205.80962 211.56533 214.04759 217.55182 220.03108 223.50003 229.25775 234.85424 244.08797 249.39519">The Academy, for themselves and their teams.</tspan></text>
<text fill="#414042" xml:space="preserve" transform="matrix(.99823346 0 -0 1.0017697 0 841.89)" font-size="9.982334" font-family="ABCNormal-Regular"><tspan y="-350.26994" x="36.06371 41.144716 46.991369 53.07361 58.703645 62.15753 67.928318 73.60527 76.59398 78.90988 81.225788 87.13633 92.90711 98.52716 100.84307 107.29066 112.92369 118.42895 124.521167 130.1981 139.09636 143.72516 146.04106 148.35698 154.26451 159.45532 161.77124 167.80554 173.68614 180.98323 183.29914 188.79639 194.5622 200.6015 202.9174 206.37129 212.14109 217.76114 220.07704 227.09064 234.58238 241.09085 243.40677 246.90457 250.36145 255.85971 264.96263 270.5058 278.83909 284.6558 288.10966 293.26057 295.57646 301.1895 307.00718 312.69813 316.152 319.5909 322.00364 328.09388 333.7439 337.13389 342.75398 345.06986 348.44587 354.21565 356.53153 362.62178 368.2528 370.65855 373.10319 379.15849 381.5722 387.32 393.34934 395.66523 401.1156 403.4315 406.82646 412.5084 417.64533 420.05107 422.4568 424.86256 430.5395 436.2314 439.86897 442.18486 444.50074 449.65864 454.92533 457.33106 459.7368 462.18547 467.88838 474.0335 476.3494 478.66529 484.16355 489.92835 495.96769 498.28358 503.42149 508.91178 511.34748 517.0144 522.6963 528.0528 531.71139 537.7826 541.2206 543.67526 548.7762 554.4521 560.172">Together, The Academy, by EFG and the DNA framework contribute to building a resilient, skilled, and values-driven </tspan></text>
<text fill="#414042" xml:space="preserve" transform="matrix(1.002427 0 -0 .9975788 0 841.89)" font-size="10.024271" font-family="ABCNormal-Regular"><tspan y="-338.7099" x="35.91284 44.30115 50.16535 53.6538 59.151109 62.629529 68.49373 71.93406 77.59076 83.24745 85.59414 88.04006 91.470378 97.16917 99.613079 105.34395 108.82137 114.68558 118.12491 123.73449 126.17741 131.97045 138.04615 140.49207 143.97751 149.7916 155.45732 157.90325 165.40642 168.84174 174.70594 180.39672 186.4183 188.58756 193.72098 196.1669 201.8246 207.6888 216.83094 225.947 228.39194 231.87737 241.03855 246.7594 252.4943 255.98473 258.43067 261.8409 267.65696 270.1029 275.89695 281.5877 290.73988 296.28334 302.03828 304.48417 310.16093 315.70436 321.7991 324.24406 327.8157 333.34913 335.78605 338.232 344.36686 349.93833 355.08076 360.80158 363.2806 369.14479 375.27964 384.44087 390.16169 395.89659 399.57048 401.91813 404.364 407.79435 413.52018 418.71879 424.89173 430.7559 436.56797 441.7455 444.18943 450.31428 452.7933 458.458 460.90394 463.38298 469.08375 474.6332 480.76808 486.4889 490.0595 495.25813 501.0261 503.46903 509.4916 511.8383 514.2842 519.82766 525.63168 531.7184 534.1643 536.6423 542.5065 548.29849 554.64389">workforce, reinforcing the Group&#x2019;s commitment to human capital development, responsible leadership, and long-</tspan></text>
<text fill="#414042" xml:space="preserve" transform="matrix(1 0 -0 1 0 841.89)" font-size="10" font-family="ABCNormal-Regular"><tspan y="-324.8898" x="36 39.405004 45.100004 48.568 57.628004 60.038003 65.194 70.702 73.15 78.836 84.476 86.885997 92.495998 95.906 101.582 107.052 110.482 112.902 118.738 124.568">term value creation.</tspan></text>
<text fill="#414042" xml:space="preserve" transform="matrix(1.0017135 0 -0 .99828937 0 841.89)" font-size="10.017136" font-family="ABCNormal-Regular"><tspan y="-299.40199" x="35.93842 41.886594 47.646448 50.112665 55.241437 57.685617 62.80437 68.498119 74.03158 77.04773 79.39175 81.83092 87.68593 93.49287 99.15255 101.59172 107.37461 110.840549 113.28473 116.76367 122.57061 128.23029 130.66945 137.15656 142.82524 148.36673 154.4962 160.20897 169.15526 174.58455 176.74825 181.87702 184.32118 193.4638 198.96323 201.3974 207.14723 209.5864 215.44042 221.53083 223.97199 229.71482 235.37448 238.81838 241.29763 246.4324 252.15018 257.27897 259.71815 268.12754 273.67106 278.79985 281.239 284.64387 290.45378 292.89796 298.09587 301.57484 304.9987 310.71147 316.49635 322.59678 326.0757 331.88264 337.5954 343.34526 345.7894 349.26838 355.0753 360.73497 363.17915 366.603 372.31678 374.78999 380.3545 385.5273 391.0608 396.8677 402.51737 408.17704 410.62123 416.1547 421.95664 428.03703 430.4762 432.91038 442.046 448.16145 453.70796 459.3676 462.85359 465.29277 471.07566 474.54158 476.98576 479.45896 485.15269 490.6862 494.16813 499.92799 502.36213 508.147 514.2174 516.66159 522.60678 527.8357 530.2749 536.42947 542.0961 545.79147 549.2103 554.9231 558.369">This year, one of the Academy&#x2019;s main objectives was to strengthen the relevance and impact of learning by better </tspan></text>
<text fill="#414042" xml:space="preserve" transform="matrix(1.0011643 0 -0 .998837 0 841.89)" font-size="10.011643" font-family="ABCNormal-Regular"><tspan y="-286.22267" x="35.958135 41.6017 47.4505 53.172159 56.58713 62.090536 67.65701 71.135059 76.82367 82.34309 84.77592 87.14066 92.007328 94.440158 100.21887 106.28593 108.71876 111.15158 114.635639 117.06847 120.468418 126.27016 128.703 134.5588 140.23542 143.68943 146.12226 152.24338 157.95603 163.12104 165.55388 171.35462 177.06626 182.30335 187.4243 189.85713 195.56478 201.17929 206.47345 208.9063 212.33127 218.17906 223.96379 233.1074 238.81404 244.53668 248.18894 250.58173 253.01456 258.95646 264.71119 267.17304 272.29899 274.7318 283.1336 288.67106 293.797 296.22984 301.7703 307.39283 313.14656 315.57438 321.13285 326.26185 331.9955 338.06758 340.5004 346.44035 351.6614 354.09428 362.466 368.3138 371.79185 377.088 379.52088 385.2996 391.36167 393.7945 402.93913 408.78694 412.2069 417.8585 420.29133 425.91587 428.3847 434.2365 439.42454 445.13218 447.60807 452.82917 455.262 463.7699 466.20277 469.67778 475.41947 477.8523 480.28514 486.0829 491.27595 494.74998 498.25108 503.94969 509.60328 513.0042 518.852 522.41226 527.5332 529.966 535.4945 541.2952 546.98287 552.5193 558.58639">contextualizing it to our business environment. This was achieved by working more closely with instructors ahead </tspan></text>
<text fill="#414042" xml:space="preserve" transform="matrix(1.0085187 0 -0 .99155327 0 841.89)" font-size="10.085187" font-family="ABCNormal-Regular"><tspan y="-275.21449" x="35.695917 41.55037 45.0701 47.56114 53.764539 59.5494 62.030355 64.558719 69.76066 75.54451 79.35469 84.649417 87.14046 90.600688 96.48035 98.97138 102.592967 108.16201 110.64297 113.165279 119.091327 122.60097 125.09201 130.83148 136.4449 141.70532 147.43372 149.92478 155.19025 158.73015 164.51502 170.68212 173.16307 178.95197 184.27594 186.66614 189.15718 195.36159 198.9035 204.51995 210.25035 213.74991 216.23087 221.97035 227.56562 230.04657 232.53762 238.11676 243.31768 249.10153 252.591 258.2629 260.77818 266.03865 271.82756 277.15153 279.5417 282.0327 287.63606 293.50965 299.66163 302.15266 308.31974 310.835 316.0904 321.77745 327.56636 332.87623 338.11549 340.59648 346.5235 352.3991 357.593 360.084 363.54325 369.4229 371.91395 377.84907 383.60166 387.1113 389.60234 394.86177 401.10044 406.91456 412.58747 415.06843 418.73744 421.2184 426.89637 429.38737 435.1077 441.03373 446.8327 450.30708 455.88618 461.52784 465.24223 467.68284 470.17384 479.9958 485.82707 488.308 490.83033 496.55873 499.04975 504.8346 507.3569 513.1408 522.38687 528.1707 533.9697 537.5762 542.77 545.2611 551.11557 554.5949">of delivery to tailor case studies, practical exercises, and discussions to our specific context. While elements of </tspan></text>
<text fill="#414042" xml:space="preserve" transform="matrix(1.0043455 0 -0 .9956732 0 841.89)" font-size="10.043456" font-family="ABCNormal-Regular"><tspan y="-261.0192" x="35.84424 39.349405 45.13644 47.6222 52.77449 55.235136 60.795194 66.953838 73.11148 76.56241 82.43582 88.00894 93.6644 99.439388 101.90004 107.72524 113.293338 119.39976 121.86041 128.04416 133.81514 139.55498 145.32996 147.7906 153.53647 158.75505 164.52202 170.62844 173.08907 175.5467 181.32169 183.78232 189.94098 193.38588 198.97809 204.30312 206.75373 212.64322 218.3891 223.54138 226.00203 231.1473 236.86806 242.42911 246.01464 251.2975 253.65772 256.11839 259.62355 265.41059 267.89634 273.0486 275.50929 280.6545 286.37525 291.93635 295.41139 297.872 300.33064 303.8358 306.29646 314.73899 320.31007 325.46238 327.923 333.48408 339.64176 345.8004 348.251 350.7016 356.46754 362.57395 365.0346 374.22236 380.10484 383.5497 389.2343 391.69496 396.79804 402.07386 407.29747 410.73835 416.47816 425.65788 431.17173 434.63774 437.08833 442.78495 448.33699 450.78758 453.28639 458.5391 460.99977 466.57286 472.22834 475.67927 481.56474 486.83354 491.9858 494.44648 500.60414 504.05509 509.96665 516.0941 519.6023 525.16238 534.334 543.5217 549.2675 554.5494 556.8895">this approach had been used in previous years, this year it was applied more systematically across programmes, </tspan></text>
<text fill="#414042" xml:space="preserve" transform="matrix(1.0040518 0 -0 .9959646 0 841.89)" font-size="10.040518" font-family="ABCNormal-Regular"><tspan y="-247.89015" x="35.85472 39.29762 45.039789 50.245798 55.940778 58.40271 61.865686 64.31557 70.126018 76.22061 78.680538 81.130428 86.903728 89.363658 94.87589 97.33582 102.55689 106.056018 109.50393 115.38265 121.19209 127.33689 133.07505 136.54907 139.009 144.5584 147.00827 149.45114 155.57486 161.38933 170.5734 176.31156 182.06378 185.56792 188.02785 194.2078 199.89878 203.63787 212.04178 217.80907 223.54622 229.31952 231.77945 234.2695 239.98758 245.546 249.04714 254.83148 257.28138 263.0908 269.1854 271.64537 277.3192 283.19798 288.95018 292.38905 298.12623 303.87843 307.38258 309.8425 315.40095 321.22749 327.3321 329.79203 335.94587 341.68806 346.882 349.33189 355.16343 360.9056 366.17185 371.32264 373.7826 379.61415 385.38243 391.1457 397.31455 402.58384">resulting in a stronger alignment between learning content and business needs.</tspan></text>
<text fill="#414042" xml:space="preserve" transform="matrix(.99763229 0 -0 1.0023735 0 841.89)" font-size="9.976321" font-family="ABCNormal-Regular"><tspan y="-220.36676" x="36.08544 42.69276 48.45608 54.201448 57.64727 63.411588 69.08113 72.503009 74.817508 77.221797 82.939228 85.3505 88.76041 91.173679 96.62074 100.03165 102.48083 107.57573 113.1924 115.506908 118.95272 124.70606 130.15314 133.60495 135.91947 144.27463 149.77558 154.8635 157.17801 159.58232 165.26782 168.71263 172.10857 177.9497 184.03026 189.69182 195.29851 200.99498 207.03064 209.34516 211.74945 217.45592 219.77043 223.16138 228.85785 234.92246 240.41442 243.81934 249.855 252.16951 255.54051 261.30686 263.62135 267.06718 272.83149 278.44816 280.76264 283.16694 289.16368 292.6973 298.4616 304.27983 309.95533 315.1081 320.72477 323.03926 328.64598 334.46516 340.10575 343.63639 348.78816 354.46366 359.55158 361.8661 364.30329 369.39118 371.7057 375.1515 380.91584 386.53248 388.847 393.99876 399.6703 402.08155 405.5134 407.82789 413.4974 419.24476 422.64073 428.45195 430.8622 439.9566 445.62715 451.31263 454.76445 457.07896 460.5108 466.16236 471.60945 475.06126 480.70185 484.09284 489.69953 492.014 494.32853 502.8034 508.52085 510.9251 516.51089 522.2173 524.5318 530.0158 532.4201 534.8643 540.5309 548.8511 554.5476 560.59329">Another initiative that was introduced in regard to the in-house courses is the self enrolment feature, which allowed </tspan></text>
<text fill="#414042" xml:space="preserve" transform="matrix(1 0 -0 1 0 841.89)" font-size="10" font-family="ABCNormal-Regular"><tspan y="-207.8898" x="36 41.695 50.806 56.917 59.378 65.035999 70.13799 75.86299 81.56299 86.67299 89.08799 92.47899 98.26899 100.68399 106.17599 111.540988 117.651988 121.06199 126.761989 131.98699 137.09699 139.51099 142.97599 148.76598 154.43898 156.86598 160.30599 162.71999 165.14598 170.85597 174.26097 179.95597 183.36597 189.06597 194.24697 197.71697 200.13196 205.64797 211.43196 217.49196 219.90695 225.08295 230.77895 233.23995 238.96495 244.60695 248.07695 250.49195 253.95694 259.74595 265.38597 267.79997 273.43196 279.27595 284.94096 288.49195 293.66795 299.36695 304.47694 306.89195 310.35694 316.14595 321.67295 326.88294 329.29795 337.78996 340.24397 345.41896 351.20796 356.92897 362.98896 365.40397 368.79496 374.58497 376.99998 382.46998 386.15098 389.55598 395.25099 401.03498 407.09498 409.50999 411.93 415.399 418.80799 424.509 429.68403 435.829 441.55403 447.196 450.627 453.09303 458.212 463.85203 466.26704 472.03205 475.48207 477.89707 481.36207 487.15107 492.82508 495.2511 498.6911 501.1061 507.2031 512.7191 516.4231 519.8531 522.2731 527.8571 530.2831 536.38009 541.85006 545.28 547.7 553.536 559.266">employees to express their interest and select the courses they wished to attend irrespective of their participation </tspan><tspan y="-194.8898" x="36 38.426 44.156 46.536 50.001 55.789999 61.429998 63.809999 70.844 78.35801 85.24901 87.629009 90.009 95.939 101.68101 104.135 109.245 111.625 114.086 119.806 125.866 128.246 131.63701 137.427 139.807 145.27701 147.65702 153.44602 159.216 162.64601 165.06601 170.69802 176.37401 181.89002 187.99102 190.45201 196.09201 198.47202 200.89801 206.68701 212.29701 215.70702 221.38301 226.90901 232.085 237.725 240.10501 242.531 248.261 250.641 254.106 259.895 265.535 267.915 270.376 275.92304 281.04103 286.73704 289.15705 291.53706 297.30308 300.75309 303.1331 308.8281 317.9401 324.0511 326.5111 332.16914 337.27113 342.99613 348.63615 351.01615 356.71116 362.47816 368.56913 374.0761 380.1771 385.8721 395.0001 400.6951 406.40513 410.04814 412.42814 414.80815 421.18016 423.60618 429.39518 435.02717 440.66719 443.04719 446.51219 452.30119 457.9412 460.3212 462.77323 468.29023 473.95524 479.74424 485.35423 491.08424 493.46424 499.22926 502.67927 505.05928 508.52427 514.2663 516.7203 521.83029 524.21029 527.6603 533.3363 538.8063 542.27627 547.94027 551.35128 556.9823 559.3123">in the DNA. This led to a noticeable increase in the level of employee engagement. Since the launch of this feature, </tspan></text>
<text fill="#414042" xml:space="preserve" transform="matrix(.9995399 0 -0 1.0004604 0 841.89)" font-size="9.9953989" font-family="ABCNormal-Regular"><tspan y="-181.8061" x="36.01657 41.98482 47.860116 49.839208 53.50852 62.734273 65.063198 70.82355 74.27196 76.600879 82.69307 88.20454 91.90383 95.330249 97.74913 103.32856 105.747447 111.83864 117.3501 123.05547 126.587848 131.6955 134.02442 139.79875 145.1603 150.27394 155.91135 158.24027 163.3899 165.80078 171.87598 177.65932 183.3757 189.4329 191.76184 197.42223 203.47945 205.80837 209.26979 215.03713 218.44756 224.28687 229.94727 236.02246 241.74983 244.07875 249.25037 254.94075 257.36564 260.7151 264.39045 270.0808 275.84718 279.2586 285.0899 287.5088 296.6306 302.32 308.0254 311.66468">54.1% of participants have signed up through self-enrolment.</tspan></text>
<text fill="#015937" xml:space="preserve" transform="matrix(1 0 -0 1 0 841.89)" font-size="16" font-family="ABCNormal-Bold" font-weight="bold"><tspan y="-701.8898" x="631.2756 641.6116 650.4596 659.0516 662.50759 672.3476 678.2356 687.6916 697.5316 703.5476 712.5716 726.95559 741.33956 750.50759 759.08358 762.53958 771.8195 777.5395 783.0835 792.2515 798.1395 807.30758 817.1476 820.6036 824.74758 834.23556 837.6915 847.32357 857.9476 867.5796 877.1636">Key programmes offered in 2025:</tspan></text>
<text fill="#414042" xml:space="preserve" transform="matrix(1.0024619 0 -0 .99754408 0 841.89)" font-size="10.02462" font-family="ABCNormal-Regular"><tspan y="-677.55386" x="629.7252">-</tspan></text>
<text fill="#414042" xml:space="preserve" transform="matrix(1.0024619 0 -0 .99754408 0 841.89)" font-size="10.02462" font-family="ABCNormal-Regular"><tspan y="-677.55386" x="633.0033"> </tspan></text>
<text fill="#414042" xml:space="preserve" transform="matrix(1.0024619 0 -0 .99754408 0 841.89)" font-size="10.02462" font-family="ABCNormal-Regular"><tspan y="-677.55386" x="643.8599 649.186 654.88699 660.4366 666.57168 672.29269 675.8624 681.0622 686.8304 689.2734 695.36038 697.80636 700.2503 706.0065 708.4525 714.9465 720.61038 724.06088 726.49789 732.36227 738.1184 740.5644 746.69949 750.1349 756.0264 762.1334 765.62606 771.1697 780.31216 789.4746 795.14059 797.58657 801.15737 806.701 810.1655 816.2906 821.9635 825.414 827.858 833.6502 839.7271 842.17318 848.77938 854.0283 859.22909 865.1265 870.7363 873.18338 878.68289 882.1083 887.77316 890.2192 897.3026 899.7466 903.17709 908.9272 914.5911 918.0025 923.86697 927.4367 932.5713 935.01736 940.5609 946.3652 952.45217 954.89816 961.98257 964.4266 967.85598 973.60708 979.271 982.6824 988.5468 992.1176 997.2522 999.69827 1005.2418 1011.0521 1017.13906 1019.5851 1025.7201 1031.4413 1033.8822 1036.3683 1041.511 1047.231 1050.6614 1056.4086 1062.4945 1064.9406 1067.3845 1073.1408 1075.5867 1081.7107 1087.2543 1090.9794 1094.465 1100.2803 1106.0004 1109.571 1114.7708 1120.538 1122.9818 1129.0689 1131.5148 1140.0358 1142.4806 1145.9662 1151.7103">Leadership in Action programme targeting Associate Directors and Directors and delivered in partnership with </tspan></text>
<text fill="#414042" xml:space="preserve" transform="matrix(1.0032747 0 -0 .99673607 0 841.89)" font-size="10.032746" font-family="ABCNormal-Regular"><tspan y="-665.06057" x="643.34207 646.8345 652.6575 658.33609 660.78408 668.2755 674.0955 679.2825 681.72549 684.17349 690.60647 696.00607 704.54196 706.9899 710.4703 712.94839 718.0902 720.5382 726.96719 732.6116 738.43466 744.34097 750.2111 752.6591 755.1071 760.906 764.3874 766.8354 773.6507 779.38546 784.57138 787.0193 792.84237 798.5771 803.8342 808.981 811.4291 817.22799 820.7093 823.1573 826.6487 832.4727 838.14627 840.5943 847.2651 856.439 862.1687 865.64816 868.0911 873.7757 879.3258 885.08969 887.53768 894.8505 900.6274 903.1175 908.2683 913.99807 917.57479 922.76168 925.20968 928.9528 934.19497 936.643 939.09097 944.8598 947.3078 954.41708 959.932 962.38 965.8212 971.567 973.9749 976.4229 982.02627 987.91549 990.36349 996.0922 1005.24917 1011.3952 1013.8803 1019.5719 1024.7067 1030.4655 1036.2003 1041.3422 1043.7902 1046.2382 1052.0021 1054.4501 1060.4526 1066.6038 1071.9572 1078.04 1081.5415 1083.9896 1089.5516 1095.1962 1098.6375 1104.5126 1109.7698 1114.9166 1117.3646 1122.5526 1128.1027 1131.582 1134.025 1139.9033 1145.6381 1150.7648">the Onsi Sawiris School of Business of the American University in Cairo. 24 employees in Egypt across various </tspan></text>
<text fill="#414042" xml:space="preserve" transform="matrix(1.0064641 0 -0 .9935774 0 841.89)" font-size="10.064641" font-family="ABCNormal-Regular"><tspan y="-654.09078" x="641.30337 647.484 653.247 659.41366 664.9965 668.75466 672.2773 681.49447 687.2565 693.0346 696.62368 701.7969 704.2728 706.7447 712.60238 718.2808 720.77578 726.53878 732.6832 735.15609 740.99057 747.10989 749.5858 756.4307 759.89907 765.803 770.8081 776.5701 780.0948 785.66867 791.83926 797.53787 799.9131 802.38906 809.9375 816.861 819.2363 821.7122 824.49008 830.2682 833.7254 839.4884 843.00906 848.8566 854.4304 856.89627 859.3722 865.91726 871.6812 877.8257 880.29959 884.00747 886.3827 888.85867 891.6133 896.83987 899.2151 901.69107 908.88729 914.7912 923.99227 930.1729 932.63876 935.11569 940.6975 946.55416 952.2537 957.95138 960.3266 962.80258 968.9128 971.3856 977.2322 982.815 988.67166 994.3702 1000.0688 1002.44406 1004.92 1010.50186 1016.35446 1022.4838 1024.9597 1032.1882 1038.6235 1041.4014 1043.8773 1050.0438 1055.6266 1059.3848 1062.8682 1065.334 1070.9843 1073.4572 1079.6238 1085.1593 1088.6166 1094.4057 1100.6316">departments including Brokerage, HR, Internal Audit, IT, Compliance, Finance, and CSI participated.</tspan></text>
<text fill="#414042" xml:space="preserve" transform="matrix(1.0099505 0 -0 .9901476 0 841.89)" font-size="10.099504" font-family="ABCNormal-Regular"><tspan y="-630.0977" x="625.05599">-</tspan></text>
<text fill="#414042" xml:space="preserve" transform="matrix(1.0099505 0 -0 .9901476 0 841.89)" font-size="10.099504" font-family="ABCNormal-Regular"><tspan y="-630.0977" x="628.3181"> </tspan></text>
<text fill="#414042" xml:space="preserve" transform="matrix(1.0099505 0 -0 .9901476 0 841.89)" font-size="10.099504" font-family="ABCNormal-Regular"><tspan y="-630.0977" x="639.0943 644.57528 650.435 656.14126 662.40396 664.9793 670.9309 677.17239 679.8285 685.91049 691.93179 695.8262 704.4229 710.12106 713.70639 720.05996 722.54446 725.20059 731.4996 737.38357 742.71609 745.2813 751.54916 757.52297 763.4281 769.6797 772.3358 775.9514 781.9728 785.5783 788.23446 795.0072 800.41146 805.7662 811.8228 817.58969 820.1711 825.8268 829.39297 835.22036 837.87649 844.6472 851.25839 856.5505 859.2066 864.9047 870.8745 877.12106 879.77719 886.5479 893.15908 898.4512 901.1073 907.4063 913.2903 918.6228 921.1881 927.4559 933.4297 939.33486 945.5864 948.24258 951.79458 957.77346 960.42959 966.7286 972.6378 978.51669 984.8511 990.7299 996.6482 999.3043 1005.58926 1011.28738 1015.1555 1018.7469 1021.31716 1027.0839 1029.6592 1035.9441 1041.6423 1047.5364 1051.2348 1056.5492 1058.9579 1061.614 1067.4625 1073.4314 1079.7305 1085.6094 1089.3219 1094.6819 1098.3954 1104.0935 1110.0624 1116.3251 1118.9004 1124.852 1131.0935 1133.7498 1139.7005 1143.1837">Leading Forward, designed for Associate VPs and VPs designed to deepen participants&#x2019; understanding of </tspan></text>
<text fill="#414042" xml:space="preserve" transform="matrix(1.0043904 0 -0 .9956288 0 841.89)" font-size="10.043904" font-family="ABCNormal-Regular"><tspan y="-613.5718" x="642.62747 648.8215 654.5615 658.14828 663.3681 669.25088 675.0763 680.62857 683.0793 685.53909 689.29147 694.5444 697.0051 703.164 706.6101 712.2949 715.7802 721.5213 724.9674 730.7085 736.544 742.2208 747.9669 753.25009 755.61038 758.0711 763.29598 766.8013 770.2474 775.9874 781.80087 787.9306 791.4359 797.2714 803.0115 808.78677 811.2475 814.7528 820.5873 826.3072 828.765 832.24026 834.701 837.19387 842.91488 848.4842 854.64309 860.3831 863.96987 869.1887 874.977 877.4348 883.54147 886.0022 895.1452 897.60299 903.4335 909.6054 914.8252 920.5191 924.02438 926.4851 932.0454 937.8759 943.9826 946.44338 952.01779 957.6945 963.3724 969.2631 974.9731 980.72927 984.3169 989.8782 995.9839 998.43466 1000.8854 1003.34518 1007.09756 1011.783 1014.1433 1016.60409 1022.1653 1027.9959 1034.1027 1036.5634 1039.0211 1044.7774 1048.2777 1051.7289 1057.6416 1063.7955 1069.5276 1075.2044 1080.8893 1083.35 1086.8554 1092.6909 1098.3759 1100.8367 1104.3419 1110.1604 1113.6065 1119.3767 1125.4452 1129.0309 1134.2559 1137.6959 1143.437 1149.5237">personality preferences, strengthen their leadership mindset and accountability, and introduce the three-step </tspan></text>
<text fill="#414042" xml:space="preserve" transform="matrix(1.0099505 0 -0 .9901476 0 841.89)" font-size="10.099504" font-family="ABCNormal-Regular"><tspan y="-603.839" x="639.08956 648.4316 654.47817 660.7732 666.64907 669.21438 671.86038 676.13046 683.73239 692.4452 698.3534 700.99948 703.84347 707.4692 710.11526 715.07406 717.7201 724.30496 730.26467 735.9587 742.288 748.10537 750.7514 753.5954 757.2211 759.8672 764.826 767.47207 774.2943 783.61917 789.9142 792.4795 795.05087 798.9937 804.3767 807.02279 809.86679 813.66928 815.83358 820.0451 822.6911 829.4073 832.05337 835.6013 841.55197 845.26046 850.9464 853.5117 856.1577 862.10336 865.70889 868.3549 872.32907 878.42916 881.0752 886.9501 896.2739 902.569 905.1767 911.01419 916.29019 922.19436 928.0742 933.35629 936.00228 939.6725 943.2437 949.261 958.5323 961.17837 967.32699 973.62698 979.1231 985.3535 989.1661 991.6405 994.2865 997.91226 1003.88107 1009.69839 1012.34439 1019.5504 1026.312 1032.7847 1035.259 1037.9053 1043.5993 1049.5631 1055.8047 1058.4508 1065.4085 1071.1026 1077.0541 1080.684 1086.3427 1088.9161 1094.8244 1097.4705 1101.0173 1107.0701 1113.0873 1118.4299 1121.076 1127.356 1133.05 1136.9142 1140.7256 1143.0787">model &#x201c;Own It &#x2013; Shape It &#x2013; Amplify It.&#x201d; A total of 16 employees from Egypt, the UAE, and Bahrain took part, </tspan></text>
<text fill="#414042" xml:space="preserve" transform="matrix(1.0000451 0 -0 .999955 0 841.89)" font-size="10.00045" font-family="ABCNormal-Regular"><tspan y="-584.91616" x="645.4197 648.82986 654.5201 660.6303 664.04049 669.7407 674.91696 680.6071 686.3174 689.74758 692.1746 697.9419 703.9921 706.42227 709.95846 715.62368 721.41287 727.0531 730.4833 732.9034 738.74368 744.52987 749.64016 752.07028 757.23648 762.9267 768.5369 774.2681 776.6983 782.2255 787.3358 789.7659 796.3462 801.5714 806.7476 812.3959 815.8661 818.2962 827.16458 832.6848 838.4651 843.9733 850.07357 855.7638 864.8922 870.58248 876.2937 879.94686 882.277 884.7071 891.4784 894.8935 900.73379 905.67599 911.3722 914.84439 920.35159 926.45187 932.08309 934.41317 936.84329 943.61459 947.0297 952.86996 957.8132 963.5034 966.9755 972.4828 978.583 984.22329 986.65347 994.1048 1000.252 1005.94229 1009.4144 1014.8887 1018.3188 1020.73788 1026.5781 1032.3644 1037.6036 1039.9337 1042.3638 1049.4833 1055.3235 1064.434 1070.5443 1072.9684 1075.3984 1080.9187 1086.708 1092.3402 1097.9716 1100.3027 1102.7328 1108.7752 1111.2013 1116.9816 1122.5018 1128.291 1133.9232 1139.5546 1141.8858 1144.3159 1147.024 1152.1873 1154.5173">representing functions such as Asset Management, Brokerage, Brokerage Operations, Compliance, Finance, IT, </tspan></text>
<text fill="#414042" xml:space="preserve" transform="matrix(1.0099505 0 -0 .9901476 0 841.89)" font-size="10.099504" font-family="ABCNormal-Regular"><tspan y="-577.5803" x="639.08956 644.7351 650.65347 656.84848 659.40359 666.2167 668.76986 674.07107 679.3662 681.9213 690.95236 696.5979 702.50918 708.1456 714.382 720.2094 729.503 735.3304 741.1719 744.92587 747.3295">and Risk Management. </tspan><tspan y="-551.3216" x="625.0512 632.44107 638.326 644.5412 650.33627 653.8509 656.4465 659.9914 665.8814 671.6179 674.2135 679.9783 689.2233 695.4284 698.9158 704.71188 707.19638 709.71627 715.281 717.8766 723.7424 727.2671 729.8627 735.89517 741.7851 747.5216 750.1172 756.69198 762.4427 768.06509 774.2803 780.0753 789.13058 793.8652 796.2588 798.8544 802.3993 808.2721 811.7595 817.5849 823.3214 825.917 832.13217 835.6246 841.59237 847.77627 851.32626 856.94058 866.18466 875.4469 881.247 886.44827 889.0438 897.52139 903.3164 906.80386 912.5403 915.13589 920.8674 926.8049 932.6898 938.9 944.68606 950.4276 953.9099 959.73129 965.9919 968.436 971.03158 977.06399 982.954 988.6905 991.2861 994.96328 997.45687 1001.0856 1006.3616 1009.9065 1012.497 1021.0099 1026.6343 1031.8356 1034.4312 1037.9761 1043.8661 1049.6026 1052.1981 1058.3466 1067.6088 1073.4039 1076.9255 1083.0942 1085.5878 1091.4556 1097.6061 1100.2017 1105.5989 1111.3748 1116.9971 1123.2124 1129.0075 1132.6362 1137.8375 1140.433 1143.1902">Under the umbrella of The Academy, three programmes were conducted. The first was the Emerging Leaders I </tspan><tspan y="-538.19229" x="625.0512 631.20797 636.9485 642.1387 644.5615 650.6869 656.5183 662.2801 668.38528 670.8596 674.33389 680.2128 683.6719 686.14627 692.2514 698.8797 705.34848 710.6235 712.9615 715.43588 717.8698 721.35916 723.83358 726.2675 732.099 737.75167 740.2088 745.94638 752.102 757.8648 763.97 766.44436 772.18698 778.10018 780.5746 786.7171 792.2728 795.99856 799.4465 801.8744 807.4988 809.93276 816.0743 821.63 827.3817 830.9377 836.0824 838.5568 843.76919 849.5067 851.976 857.74288 863.4258 866.8495 872.61129 878.71646 881.1908 884.7216 888.15548 894.03439 903.1694 905.6438 911.1531 913.62747 919.8195 925.73379 931.61276 934.04067 936.5151 942.3223 945.7905 948.2649 954.39328 960.28628 962.7607 968.3164 974.47317 980.6288 983.06277 985.49069 991.18276 996.7375 1002.48916 1006.0451 1011.1908 1013.6652 1019.2341 1024.8848 1028.3176 1034.2007 1039.4625 1044.6082 1047.0825 1052.2745 1057.8303 1061.3015 1063.7296 1069.6166 1075.3582 1080.5038 1082.9782 1089.1348 1094.8712 1101.0127 1106.5686 1110.2943 1113.7786 1122.9812 1128.7177 1134.4692 1138.0253 1143.1863">designed for AVPs, it included 23 participants selected from a pool of 44 applicants across various departments </tspan></text>
<text fill="#414042" xml:space="preserve" transform="matrix(1.008489 0 -0 .9915825 0 841.89)" font-size="10.084889" font-family="ABCNormal-Regular"><tspan y="-524.30307" x="625.9618 629.21926 631.6093 638.1837 643.3925 648.552 654.1874 657.62637 660.0164 668.89926 674.4016 680.1691 685.6624 691.7547 697.4375 706.58248 712.2643 717.9622 721.4012 723.79129 731.24508 737.3827 743.0645 746.50546 751.96139 755.36 757.74008 763.56509 769.33969 774.5627 776.8519 779.24209 786.0101 789.3935 795.21859 800.142 805.82388 809.2648 814.75808 820.85037 826.4686 828.7579 831.148 837.1788 839.5648 845.3324 850.8348 856.61239 862.2317 867.8499 870.1392 872.5293 875.222 880.812 885.91299 891.6008 896.7643 900.1982 909.34317 915.02597 920.7239 924.16287 926.5529 933.3159 938.8183 944.57876 949.8481 952.23428 957.9897 964.1445 966.4338 968.82388 971.49337 976.63967 978.92898 981.31906 986.8214 992.594 998.64498 1001.03506 1007.7032 1010.1165 1015.27499 1020.6159 1022.9555 1025.3457 1031.3815 1040.5254 1046.2083 1049.617 1055.6729 1058.0591 1063.8145 1069.8554 1072.2455 1077.5309 1083.1947 1088.705 1094.8074 1100.4902 1104.0098 1109.1027 1111.4928 1114.1774 1116.9851 1119.2744 1121.6644 1125.0984 1128.5393 1134.0548 1139.6519 1144.8659">- Asset Management Operations, Brokerage, Finance, Investment Banking, IT, and Risk. Emerging Leaders II, track </tspan></text>
<text fill="#414042" xml:space="preserve" transform="matrix(.9971007 0 -0 1.0029076 0 841.89)" font-size="9.971008" font-family="ABCNormal-Regular"><tspan y="-505.4202" x="633.11117 636.53817 641.9245 645.2449 651.21548 656.72946 660.01089 665.6016 671.53439 673.7479 680.1892 687.1091 689.3227 691.6639 697.0811 702.0706 707.6364 709.93978 712.1533 717.71817 726.68917 732.66879 735.009 740.53689 745.5105 751.1062 756.676 761.66159 763.8751 769.26248 774.91598 780.8487 783.06228 785.3656 791.0242 796.50717 798.8344 804.4002 810.3798 815.9706 821.90328 824.1169 829.75546 835.33926 837.5528 843.5194 848.90579 852.48538 855.7917 858.09 863.5442 865.8475 871.8131 877.19949 882.77926 886.1913 891.1768 893.3904 898.43777 904.00357 906.3438 911.9395 917.4515 920.7329 926.32369 932.2564 934.47 937.85818 941.1496 946.855 955.77908 957.9926 963.56649 967.19589 969.4094 974.7958 980.7754 986.756 989.0593 991.35769 996.87857 1002.2649 1007.84469 1011.2577 1016.2432 1018.4568 1023.85617 1029.3372 1032.6286 1038.338 1043.4342 1048.4197 1050.6333 1057.2721 1060.5635 1066.2688 1071.0829 1076.6476 1079.9957 1085.3742 1091.3439 1096.8447 1099.0584 1101.272 1107.1828 1109.4861 1115.1347 1120.521 1126.1795 1131.6814 1137.1834 1139.3969 1141.6105 1148.9392 1155.6546 1157.9778">targeted AD level employees and included 22 participants selected from 51 applicants across Brokerage, Finance, HR, </tspan></text>
<text fill="#414042" xml:space="preserve" transform="matrix(.99245157 0 -0 1.0076059 0 841.89)" font-size="9.924515" font-family="ABCNormal-Regular"><tspan y="-490.16169" x="636.077 638.6286 643.6167 645.7941 647.97256 650.55099 656.08187 659.3261 664.8441 668.14999 673.75039 679.0808 681.34756 683.52597 689.81509 695.33309 701.22628 703.5009 706.99038 709.1678 711.3461 720.01229 725.35177 728.65756 733.42727 738.89669 742.1658 744.4385 750.02597 756.00747 758.1839 760.36727 765.7056 771.313 777.19229 779.3706 785.85629 788.1568 793.1577 798.33737 800.56436 802.74276 808.493 814.10037 819.56277 821.7411 826.86709 832.36526 837.7146 843.6445 849.16256 852.5507 857.55068 863.1143 865.387 871.2663 873.4447 880.3432 885.7133 890.6578 896.1758 898.4833 904.1392 910.0691 918.9933 924.51138 930.0433 933.35208 935.5304 941.7134 944.9676 950.6544 956.5525 959.86337 965.20278 974.1091 983.0332 988.4947 990.67807 993.97396 999.631 1002.91 1005.0884 1010.98159 1013.2543 1016.50357 1022.0494 1027.5177 1030.7472 1036.404 1039.7924 1044.8558 1047.0333 1049.2117 1055.1416 1060.6596 1062.9293 1065.2427 1070.186 1075.7041 1078.9523 1084.4951 1090.3744 1092.5529 1094.8245 1100.3762 1102.5547 1106.0967 1114.2545 1119.8649 1122.0433 1130.9675 1136.6543 1142.5781 1148.0524 1150.3599 1155.8778 1160.7637 1163.3441">IT, Internal Audit, Marketing, and Risk. The Leadership Development Programme for directors, delivered in two modules: </tspan></text>
<text fill="#414042" xml:space="preserve" transform="matrix(1.0099505 0 -0 .9901476 0 841.89)" font-size="10.099504" font-family="ABCNormal-Regular"><tspan y="-485.67485" x="625.05599 628.53018 634.3485 640.01437 642.45846 646.06399 648.4848 652.04086 657.2451 660.71939 663.1634 665.58529 671.34207 673.7861 677.9996 683.5412 689.3383 695.04257 700.5841 704.3301 709.5616 712.0056 717.73 724.2644 729.9878 735.7748 738.2189 743.76046 749.57278 755.6627 758.1068 761.581 767.39938 773.0652 775.5092 780.70748 786.46017 792.11898 797.9847 803.797 809.88699 812.331 814.7519 820.5086 822.9527 827.16519 832.7068 838.5049 844.2081 849.75076 853.49667 858.72817 861.17227 866.8966 873.43099 879.1675 885.15347 887.5268 889.9709 895.93057 901.7479 907.41378 909.85787 916.0003 919.4211 925.31619 931.4273 934.90457 940.4472 949.6195 958.809 964.4749 966.91897 973.05947 978.7374 981.15127 983.6034 989.76107 994.8916 997.33566 1003.2014 1008.9581 1011.4022 1014.87649 1020.69369 1026.3595 1028.8036 1031.2597 1036.9628 1042.5136 1048.6561 1054.3786 1057.9356 1063.1327 1068.9026 1071.3244 1077.4144 1079.8585 1085.3768 1090.766 1096.9439 1102.6672 1106.1253 1108.539 1114.2612 1120.0796 1125.7383 1131.404 1133.8482 1139.6412 1143.1256">the first in January 2025 and the second in January 2026. The programme builds on the leadership experience of </tspan></text>
<text fill="#414042" xml:space="preserve" transform="matrix(.9998999 0 -0 1.0000999 0 841.89)" font-size="9.999001" font-family="ABCNormal-Regular"><tspan y="-467.84306" x="631.3388 638.2881 640.61386 643.9225 649.54696 655.08737 658.378 664.11239 667.5621 672.57156 674.80136 683.2055 688.89389 694.58328 696.81307 705.2042 707.524 709.8437 712.16348 714.39328 720.3887 725.9371 728.27188 734.28128 739.8207 742.0504 745.4151 751.1025 756.6419 758.8717 764.8111 767.1368 770.5035 779.4626 781.6923 784.01809 789.62649 792.9172 798.60659 800.83639 803.1641 806.59878 811.6082 813.838 819.5254 824.9169 830.3693 833.739 835.96878 841.9791 847.65658 853.0819 858.15646 863.69589 865.92568 871.58908 874.93869 877.16848 883.14688 886.4605 892.05197 900.6931 904.05776 909.68716 911.91696 917.3324 923.0148 928.9742 931.204 936.5954 941.8589 947.8553 953.2697 958.9551 964.0075 966.3273 972.0617 977.80007 980.02987 982.2596 984.4894 990.46279 992.7885 996.09719 1001.72158 1007.26199 1010.5527 1016.28707 1019.73678 1024.7463 1026.976 1035.3672 1037.694 1041.0587 1046.6882 1048.9179 1054.2874 1056.5171 1062.5276 1065.8412 1071.4226 1076.4391 1082.0326 1087.662 1089.8917 1093.2555 1096.6271 1102.0546 1107.564 1112.6336 1114.8632 1118.1729 1123.7964 1129.3278 1135.0623 1138.386 1144.3455 1146.5751 1148.8949 1154.6244">Directors who will guide the Firm into its next phase of growth and expansion,  directors with a proven track record in </tspan></text>
<text fill="#414042" xml:space="preserve" transform="matrix(.99414286 0 -0 1.0058917 0 841.89)" font-size="9.941428" font-family="ABCNormal-Regular"><tspan y="-452.22544" x="634.9949 637.2883 643.2362 648.7706 654.31997 657.60159 659.8841 663.5167 668.66348 670.948 676.554 682.43936 684.62637 693.57266 699.1329 705.045 707.32156 712.8261 721.7038 723.8908 729.24728 734.8692 740.76449 742.95156 745.2708 750.9454 756.5514 762.7051 765.92416 769.18099 774.71536 778.03579 786.91348 789.1005 795.0465 800.5858 805.5824 807.86697 813.49386 819.0332 824.10037 829.05117 831.2382 836.9127 842.86068 848.8424 854.51699 858.072 861.39248 866.897 872.4781 874.76467 878.0473 880.32388 885.86227 890.94326 893.1304 895.31747 900.8389 905.7997 911.33407 914.6058 920.0775 925.7521 934.6536 936.9382 942.5442 948.4295 950.6166 956.06649 961.6834 967.0319 969.30856 971.6278 977.1622 982.7682 988.7062 994.24557 999.32656 1001.5137 1003.70077 1009.0572 1014.6801 1020.5753 1022.7624 1031.7097 1037.3178 1040.6004 1042.9258 1047.9242 1053.2389 1056.5216 1058.8063 1064.4122 1070.2975 1072.4846 1075.7424 1081.258 1086.6145 1095.5598 1100.5108 1102.6979 1105.9418 1111.5686 1113.7557 1117.0186 1122.534 1127.9035 1133.3534 1138.9205 1141.1077 1144.4281 1150.0559 1155.5693 1157.854 1161.2739">identifying medium and long-term business opportunities, overcoming challenges, and motivating teams to reach their </tspan></text>
<text fill="#414042" xml:space="preserve" transform="matrix(1 0 -0 1 0 841.89)" font-size="10" font-family="ABCNormal-Regular"><tspan y="-441.8898" x="631.2756 634.71157 640.26358 642.58358 644.90359 647.15359 653.1996 658.86959 662.17459 667.76956 673.3795 676.70956 679.03958 684.4476 686.8296 689.1096 691.3596 697.7896 700.0396 703.3306 709.0006 712.4516 717.8596 720.1796 722.4296 728.0946 731.4446 733.6946 739.29159 745.6916 747.9416 753.9386 759.3546 762.95767 766.28768 768.60769 774.0917 776.41769 782.4147 787.8307 793.4407 796.87667 801.88668 804.13668 812.3877 817.98269 821.29269 826.83267 829.08267 834.1586 839.75466 842.11569 847.74069 853.28268 856.58767 862.2086 868.16867 870.41867 873.8306 877.1456 882.88168 891.8417 894.0917 899.4617 901.7117 907.7567 913.5277 919.2647 921.5847 923.8347 929.4997 932.8497 935.0997 940.66867 946.49868 948.74868 952.11367 957.78567 961.10067 966.84469 972.40969 978.3897 984.0197 986.2697 991.6397 993.8897 999.4217 1005.1577 1014.16879 1020.1798 1023.4898 1029.0848 1034.7738 1040.3689 1046.0549 1051.1089 1053.4758 1058.4928 1064.0328 1066.2828 1071.7089 1076.8339 1081.9099 1087.51 1092.635 1097.71 1106.7369 1112.332 1117.942 1121.312 1123.562 1129.094 1134.688 1140.298 1143.603 1149.1981 1152.092 1154.472">full potential. A total of 20 participants were selected from a pool of 28 through a comprehensive assessment center. </tspan></text>
<text fill="#414042" xml:space="preserve" transform="matrix(1.009049 0 -0 .9910321 0 841.89)" font-size="10.09049" font-family="ABCNormal-Regular"><tspan y="-432.77085" x="625.6143 631.54049 637.3233 642.95388 645.3453 648.9173 651.30776 654.83139 660.00167 663.4425 665.8339 674.987 680.84756 686.9503 692.59597 695.0206 700.6451 702.93569 705.3271 711.4348 717.1249 719.5062 721.93698 727.04379 732.7318 736.1152 741.82949 747.8838 750.2752 752.6646 758.3859 760.77737 764.9578 770.4653 776.2279 781.8978 787.4052 791.1195 796.31619 798.7076 804.39767 810.8959 816.58499 822.41226 824.70278 827.09426 835.4986 841.0161 846.11178 848.50326 853.9682 857.625 861.0023 866.69137 872.4692 878.5769 884.2922 890.34646 892.73788 898.6599 903.85659 906.248 909.9714 914.80477 917.19619 923.28988 928.7982 932.47726 935.88076 938.2621 943.84219 946.2315 952.3262 957.83358 963.53677 967.0472 972.1429 974.5343 978.01968 981.408 987.23837 996.31979 998.71127 1005.29226 1010.50698 1015.67129 1021.31289 1024.7538 1027.1453 1036.036 1041.5432 1047.317 1052.8153 1058.914 1064.6018 1073.7548 1079.4428 1085.1459 1088.5868 1090.9783 1098.4392 1104.5823 1110.2703 1113.7161 1119.181 1122.5846 1124.966 1130.7974 1136.5772 1141.8062 1144.1571">The first module, delivered in January 2025, was attended by 17 participants from Asset Management Operations, </tspan></text>
<text fill="#414042" xml:space="preserve" transform="matrix(.9920685 0 -0 1.0079949 0 841.89)" font-size="9.920686" font-family="ABCNormal-Regular"><tspan y="-412.5912" x="636.3226 642.90298 646.15396 651.8087 656.5746 662.0875 665.3951 670.7215 676.6342 682.0836 684.25729 686.4299 693.35549 699.01028 707.90908 713.8317 716.09866 718.37246 723.7098 729.3159 734.7653 740.2147 742.38937 744.56198 751.5193 757.6959 760.38046 762.55508 764.72769 768.1602 770.4301 776.0254 781.36276 786.9689 792.41928 797.8687 800.0433 802.2159 804.79129 810.31906 813.5602 819.07308 822.3756 827.9709 833.29837 835.56228 837.73489 844.01968 849.5335 855.42349 857.6953 861.18148 863.3561 865.5287 868.0763 873.06149 875.236 877.4087 883.5277 889.6279 891.8025 893.9751 899.31246 904.9137 910.7887 912.96139 919.3245 924.8424 929.8404 935.3344 940.67178 943.9267 949.3552 955.01107 957.18569 959.3583 967.642 969.91397 973.21456 978.7622 980.9348 984.2354 989.84158 995.2989 997.47158 1002.46957 1008.01229 1013.4617 1019.11648 1024.7177 1030.5927 1032.7654 1041.684 1047.3666 1053.2893 1058.7586 1061.0632 1066.5216 1068.6942 1074.1447 1079.7996 1088.6984 1094.6211 1096.9257 1102.392 1105.632 1111.1707 1117.0458 1119.2184 1121.4882 1127.0359 1129.2085 1133.2373 1138.5747 1144.1609 1149.6549 1154.9923 1158.5639 1163.7326">Brokerage, Compliance, CSI, finance, Internal Audit, IT, PE, and Research, with the second module completed in January </tspan></text>
<text fill="#414042" xml:space="preserve" transform="matrix(1.002836 0 -0 .99717208 0 841.89)" font-size="10.028359" font-family="ABCNormal-Regular"><tspan y="-404.03239" x="629.49038 635.1163 641.54446 647.18038 653.06607 655.3625 657.7091 663.56869 669.28787 674.8536 677.2002 682.76199 688.5353 694.1301 699.7691 703.1586 705.50527 711.52627 714.8637 720.63 726.67117 732.7483 738.3983 744.38528 746.7319 750.0462 755.7623 758.10897 761.7914 767.5877 769.9343 775.9704 781.5863 787.15206 789.49868 792.812 798.5282 800.8748 806.4686 812.1778 817.4728 822.5231 828.2462 830.6019 836.63296 842.07736 848.1094 850.4901 856.0559 858.4025 864.4416 870.0716 875.15298 877.4986 883.2178 888.8467 894.0003 899.03457 901.38119 906.8266 912.53976 918.5267 920.8733 926.9505 932.5744 936.0482 941.1517 946.91799 952.62619 958.06356 960.4002 962.7468 968.2624 970.6091 973.95156 979.48019 985.074 994.1396 999.24807 1002.7218 1008.16726 1013.88546 1019.4472 1025.076 1030.2335 1032.6203">2026. The count dropped to 13 due to unavoidable business and personal circumstances. </tspan></text>
<text fill="#414042" xml:space="preserve" transform="matrix(1 0 -0 1 0 841.89)" font-size="10" font-family="ABCNormal-Regular"><tspan y="-376.8898" x="631.2756">-</tspan></text>
<text fill="#414042" xml:space="preserve" transform="matrix(1 0 -0 1 0 841.89)" font-size="10" font-family="ABCNormal-Regular"><tspan y="-376.8898" x="634.56558"> </tspan></text>
<text fill="#414042" xml:space="preserve" transform="matrix(1 0 -0 1 0 841.89)" font-size="10" font-family="ABCNormal-Regular"><tspan y="-376.8898" x="645.44558 652.5646 658.2596 661.96359 665.39358 667.81356 671.41159 673.83157 679.55258 685.61257 687.99258 694.35958 697.77456 703.6405 709.7465 715.43258 721.0746 724.54458 726.92459 735.7926 741.3086 747.0876 752.59457 758.69558 764.39059 773.51858 779.21359 784.9235 788.3935 790.7735 793.3125 800.36056 806.6675 815.1535 818.0435 820.4235 826.53457 829.9495 835.8155 841.8955 845.3675 850.8835 859.9945 869.1225 874.7625 877.1425 883.2175 885.6435 889.05349 894.7785 900.42056 903.8255 909.5465 915.6065 917.9865 921.3775 927.06948 935.45547 940.97146 944.39547 950.52047 955.63046 958.01046 960.7174 966.5974 968.9774 975.08847 978.5034 984.2684 987.7184 993.4184 998.6434 1003.79739 1006.21737 1012.05337 1017.83236 1023.34036 1025.8014 1030.9114 1033.2914 1035.8355 1041.4054 1047.2554 1049.6354 1055.7324 1061.2484 1064.9524 1068.3823 1070.8024 1076.3864 1078.8124 1084.9094 1090.4254 1096.1354 1099.6714 1104.4024 1107.5374">Certified Product Management (CPM) programme directed towards IT professionals (24 participants).</tspan></text>
<text fill="#414042" xml:space="preserve" transform="matrix(1.0044153 0 -0 .99560418 0 841.89)" font-size="10.044152" font-family="ABCNormal-Regular"><tspan y="-352.4391" x="628.5006 634.47787 640.31356 645.99856 648.45938 654.18649 659.3482 665.0895 668.59786 674.15127 676.60208 679.05288 681.5137 687.1062 692.3061 697.8595 700.33847 706.0606 711.5748 715.041 717.4918 723.37466 729.1501 731.6109 736.8258 742.5028 748.3856 751.8318 757.5168 759.9776 765.55209 771.20797 774.6591 780.54598 785.8151 790.9678 793.4286 798.982 801.4328 803.88357 806.34439 812.0224 817.91329 823.6243 827.2111 832.431 838.17636 843.329 845.7898 848.27578 853.4284 855.8892 861.8163 864.23599 870.2252 876.19149 878.6523 884.54318 890.2572 893.76266 896.22348 902.0349 905.52029 907.9811 913.7866 916.24746 918.8438 924.8854 930.77328 932.78317 936.7054 945.9762 949.09689 951.45828 953.91909 962.4837 968.31936 974.06466 977.51077 983.1968 985.6576 989.159 994.9946 1000.6806 1003.1414 1005.5992 1011.6688 1015.2576 1021.0933 1026.9843 1032.7295 1037.9496 1043.6355 1046.0963 1051.7744 1057.6654 1063.3765 1066.9631 1072.1831 1077.9285 1083.082 1085.5429 1090.7559 1096.4338 1102.3168 1105.762 1111.5303 1117.6371 1120.0979 1125.8854 1128.3312 1134.459 1140.2947 1146.0399 1149.4951">The overall evaluation score across all courses is 4.46 out of 5 (89.1%), where the in-house courses scored higher </tspan></text>
<text fill="#414042" xml:space="preserve" transform="matrix(1.0081518 0 -0 .9919141 0 841.89)" font-size="10.081518" font-family="ABCNormal-Regular"><tspan y="-340.6442" x="626.1712 634.77078 637.2579 640.78939 646.6064 649.09658 654.69589 660.5129 663.003 668.45217 673.65017 679.42996 682.9696 688.5598 694.7499 700.4762 702.96139 708.8126 712.33108 714.81619 720.7824 723.1314 729.2226 735.2312 737.7213 740.34957 746.3964 752.4373 755.1613 761.27359 770.57888 773.72836 776.1177 778.6028 787.2165 793.04458 795.5246 798.0439 803.77029 806.2554 812.4625 818.21206 824.4021 826.88217 829.3622 835.0381 837.5232 843.2394 849.17037 854.91989 858.53817 863.7947 869.57949 874.7715 877.2566 882.50808 888.2253 894.14718 897.6233 903.43026 909.57998 912.06509 917.66537 923.48239 925.96749 931.41659 936.61569 942.39547 945.93417 951.5253 957.71438 963.4407 965.93087 971.78109 975.29959 977.78469 983.7519 985.7863 989.60726 992.09237 994.7155 1000.78469 1006.89968 1016.2049 1019.4048 1021.8445 1024.3295 1030.3462 1036.2218 1041.9481 1044.4331 1050.5969 1053.0769 1056.8898 1060.4082 1066.1879 1069.6641 1075.4448 1081.3193 1087.0357 1092.7619 1095.2468 1097.7269 1103.544 1106.0289 1109.5606 1115.4352 1121.1615 1123.6465 1126.1659 1131.7973 1136.9954 1142.7761 1145.2168">with an average of 4.66 (93.2%), while public courses scored an average of 4.1 (82%). The difference in the level </tspan></text>
<text fill="#414042" xml:space="preserve" transform="matrix(1.0099505 0 -0 .9901476 0 841.89)" font-size="10.099504" font-family="ABCNormal-Regular"><tspan y="-328.1226" x="625.05599 631.0712 634.7475 637.5349 642.9796 648.6959 652.3529 655.02426 660.44467 664.1886 669.9645 675.8556 679.51266 682.14859 688.23556 694.2144 697.00186 699.67318 705.0259 707.81338 717.22506 723.31607 728.7415 732.4379 735.1224 740.5761 743.3635 749.07986 752.9904 756.68179 760.362 763.005 769.36776 775.28506 778.9168 784.8876 791.19979 793.98727 797.60488 803.6444 806.4318 810.12319 816.1627 822.0507 824.83816 827.4741 830.1171 839.48239 842.1264 845.7582 851.72897 858.04116 860.8286 866.70858 872.79556 878.7552 882.45169 886.0935 892.1805 894.8164 897.6038 906.23086 912.11886 914.9063 920.9357 926.549 931.9098 937.7978 940.5852 946.51669 951.8785 957.82308 961.48916 964.2766 967.973 974.0126 979.9006 982.688 985.3664 991.29177 997.0555 1000.75088 1006.7429 1009.3859 1015.4033 1021.7053 1024.4929 1030.4375 1036.2892 1041.8167 1044.4586 1048.1006 1054.1875 1060.2098 1069.6217 1075.5664 1081.5261 1085.4082 1087.9534 1090.741 1097.0916 1102.8554 1106.7892 1110.4452 1113.0812 1118.9136 1121.5567 1127.9072 1133.671 1139.6309 1143.1353">of satisfaction is mostly attributed to the limited control we have over the learning environment, participant </tspan><tspan y="-314.99324" x="625.05599 631.29849 637.1198 646.4093 652.4033 658.6145 662.19076 667.83236 674.07388 679.9437 682.4585 688.25668 693.4882 696.0333 701.675 707.58627 713.7773 716.3224 719.8925 725.8088 731.5756 734.1207 737.6899 741.26718 746.8734 749.3942 755.3105 761.1329 764.6778 767.2229 772.52017 778.3435 780.8987 786.75137 792.5191 796.05398 798.5687 804.5335 810.39126 812.93637 815.45718 821.3149 823.86 830.10958 835.90066 842.133 844.64779 847.16256 852.87887 855.42398 861.18167 867.1464 873.0627 879.02749 882.838 886.47988 891.8306">demographics and the trainer selection in public cohorts.</tspan></text>
<g clip-path="url(#p108_clip_2)">
<path transform="matrix(1,0,0,-1,645.3032,555.058)" stroke-width="1.122" stroke-linecap="butt" stroke-miterlimit="10" stroke-linejoin="miter" fill="none" stroke="#124734" d="M0 0C-7.437 0-13.467-6.029-13.467-13.467V-190.6C-13.467-198.037-7.437-204.066 0-204.066H495.22C502.658-204.066 508.687-198.037 508.687-190.6V-13.467C508.687-6.029 502.658 0 495.22 0H0Z"/>
</g>
<path transform="matrix(1,0,0,-1,651.927,624.5873)" stroke-width="1.122" stroke-linecap="butt" stroke-miterlimit="10" stroke-linejoin="miter" fill="none" stroke="#124734" d="M0 0H479.947"/>
<text fill="#124734" xml:space="preserve" transform="matrix(1 0 -0 1 0 841.89)" font-size="19.8129" font-family="ABCNormal-Bold" font-weight="bold"><tspan y="-252.4964" x="787.2909 793.0366 808.035 821.62667 833.5342 845.9965 858.2409 863.98666 878.985 893.72579 898.0054 903.7511 918.74948 923.02908 936.1056 947.87448 962.65487 975.7314 986.6285">INVESTING IN PEOPLE</tspan><tspan y="-228.72092" x="756.69979 771.0047 782.91226 793.8093 799.55508 813.1467 825.05429 838.3685 844.11428 859.1126 873.8534 878.133 891.20956 903.11709 916.43136 928.2795 943.0599 956.37417 974.602 988.33236 1003.3307 1017.21957">DELIVERING PERFORMANCE</tspan></text>
<text fill="#124734" xml:space="preserve" transform="matrix(1 0 -0 1 0 841.89)" font-size="19" font-family="ABCNormal-Bold" font-weight="bold"><tspan y="-122.1759" x="679.2059 690.83389 702.46188 707.66787 719.10586 736.5858">33.2M </tspan><tspan y="-99.3759" x="689.16189 700.4479 714.58389">EGP</tspan><tspan y="-122.1759" x="796.3979 807.7789 819.40689 824.61288 836.05087 847.67886 928.2199 936.4469 944.6739 949.4809 957.7079 969.3929 980.9259">53.23%11,148 </tspan><tspan y="-99.3759" x="929.09396 940.36099 951.58999 962.64797 969.868">hours</tspan><tspan y="-122.1759" x="1063.975 1072.202 1080.4291">112</tspan></text>
<text fill="#124734" xml:space="preserve" transform="matrix(1 0 -0 1 0 841.89)" font-size="10" font-family="ABCNormal-Bold" font-weight="bold"><tspan y="-191.8251" x="661.436 663.59597 668.90597 674.7359 678.6359 684.27597 686.84597 689.0059 694.3659 700.5159 706.2459 712.1359 716.03598 718.1959 724.1059 730.0359 732.19589 737.69589 744.9759"> Total spent on L&#x0026;D</tspan><tspan y="-179.8251" x="682.586 684.746 687.336 693.266 695.856 699.75607 702.34609 707.9261 711.8261 714.41616 719.9561 725.6861"> initiatives</tspan><tspan y="-191.8251" x="782.246 784.40597 790.9359 796.5759 800.41598 804.316 806.906 812.576 815.166 821.31607 826.89608 830.7961 833.3861 839.2961 845.2261 847.38607 849.9761 855.90609 858.06607 863.56607 870.84609"> Participation in L&#x0026;D</tspan><tspan y="-179.8251" x="798.896 801.05599 807.206 810.88607 816.796 822.94607 826.70608 832.34609 841.33609 850.32608 856.056"> programmes</tspan></text>
<text fill="#124734" xml:space="preserve" transform="matrix(1 0 -0 1 0 841.89)" font-size="10" font-family="ABCNormal-Bold" font-weight="bold"><tspan y="-167.8251" x="791.55599">(</tspan></text>
<text fill="#124734" xml:space="preserve" transform="matrix(1 0 -0 1 0 841.89)" font-size="10" font-family="ABCNormal-Bold" font-weight="bold"><tspan y="-167.8251" x="794.72598 800.65597 806.5659 812.4959 816.2959 825.2859 830.9259 836.8559 843.0059 848.58596 852.42599 858.33596 862.17599">non-mandatory</tspan></text>
<text fill="#124734" xml:space="preserve" transform="matrix(1 0 -0 1 0 841.89)" font-size="10" font-family="ABCNormal-Bold" font-weight="bold"><tspan y="-167.8251" x="867.746">)</tspan></text>
<text fill="#124734" xml:space="preserve" transform="matrix(1 0 -0 1 0 841.89)" font-size="10" font-family="ABCNormal-Bold" font-weight="bold"><tspan y="-191.8251" x="905.816 907.97598 914.15597 916.746 925.73599 931.46597 933.6259 938.9859 945.1359 950.8659 956.7559 960.65597 962.8159 965.3859 971.1159 976.7559 980.59597 986.52597 989.11599 995.04598"> Time spent learning</tspan><tspan y="-179.8251" x="916.956 919.11599 924.78598 930.6959 939.6859 945.83596 951.47598 957.28598 962.73599 966.53598 975.586 978.176 984.32608"> company-wide</tspan><tspan y="-191.8251" x="1031.106 1033.266 1040.8359 1046.6559 1055.6459 1061.7959 1067.5259 1071.1359 1073.2959 1079.096 1082.7859 1084.9459 1090.616 1096.526 1102.346 1106.1459 1111.5059 1117.2359"> Number of courses</tspan><tspan y="-179.8251" x="1055.996 1062.146 1067.876 1070.4459 1073.0359 1078.5758 1084.3058 1087.9857 1093.7157">delivered</tspan></text>
<path transform="matrix(1,0,0,-1,651.927,690.4935)" stroke-width="1.122" stroke-linecap="butt" stroke-miterlimit="10" stroke-linejoin="miter" fill="none" stroke="#124734" d="M0 0H479.947"/>

<g clip-path="url(#p108_clip_3)">



</g>
</g>
</svg>
