<svg preserveAspectRatio="xMidYMid meet" class="pgsvg" xmlns="http://www.w3.org/2000/svg" xmlns:xlink="http://www.w3.org/1999/xlink" xmlns:inkscape="http://www.inkscape.org/namespaces/inkscape" version="1.1" width="595.275" height="697.000" viewBox="0 115.000 595.275 697.000">
<defs>
<clipPath id="p111_clip_1">
<path transform="matrix(1,0,0,-1,-595.275,841.89)" d="M595.275 0H1190.55V841.89H595.275Z" clip-rule="evenodd"/>
</clipPath>
<clipPath id="p111_clip_2">
<path transform="matrix(1,0,0,-1,-595.275,841.89)" d="M296.998 174.818H558.45706V314.554H296.998Z"/>
</clipPath>
<mask id="p111_mask_3">
<g transform="matrix(.3272509,0,0,.32725088,-299.42707,527.3362)">
<image id="p111_image_4" width="806" height="427" xlink:href="ART/a166538b4fa6d.webp"/>
</g>
</mask>
<clipPath id="p111_clip_6">
<path transform="matrix(1,0,0,-1,-595.275,841.89)" d="M36.168 174.894H285.583V314.55299H36.168Z"/>
</clipPath>
<clipPath id="p111_clip_8">
<path transform="matrix(1,0,0,-1,-595.275,841.89)" d="M36 402.211H559.138V635.406H36Z"/>
</clipPath>
<clipPath id="p111_clip_10">
<path transform="matrix(1,0,0,-1,-595.275,841.89)" d="M0 0H1190.551V841.89H0Z"/>
</clipPath>
<clipPath id="p111_clip_11">
<path transform="matrix(1,0,0,-1,-595.275,841.89)" d="M631.275 634.923H1154.551V435.88197H631.275Z"/>
</clipPath>
<clipPath id="p111_clip_13">
<path transform="matrix(1,0,0,-1,-595.275,841.89)" d="M631.275 291.718H885.827V423.382H631.275Z"/>
</clipPath>
<clipPath id="p111_clip_15">
<path transform="matrix(1,0,0,-1,-595.275,841.89)" d="M900 291.718H1154.552V423.382H900Z"/>
</clipPath>
<clipPath id="p111_clip_17">
<path transform="matrix(1,0,0,-1,-595.275,841.89)" d="M643.843 198.244C637.215 198.244 631.842 192.872 631.842 186.244V54.519C631.842 47.893 637.215 42.52 643.843 42.52H874.394C881.021 42.52 886.394 47.893 886.394 54.519V186.244C886.394 192.872 881.021 198.244 874.394 198.244Z"/>
</clipPath>
<clipPath id="p111_clip_19">
<path transform="matrix(1,0,0,-1,-595.275,841.89)" d="M0 0H1190.55V841.89H0Z"/>
</clipPath>
</defs>
<g>
<g clip-path="url(#p111_clip_1)">
<text fill="#015937" xml:space="preserve" transform="matrix(1 0 -0 1 -595.275 841.89)" font-size="16" font-family="ABCNormal-Bold" font-weight="bold"><tspan y="-701.8897" x="36 47.088 51.728 55.184003 64.688 74.528 83.84 92.911998 101.84 108.079998 112.22399 121.67999">AI Education</tspan></text>
<text fill="#414042" xml:space="preserve" transform="matrix(1.0078095 0 -0 .992251 -595.275 841.89)" font-size="10.078095" font-family="ABCNormal-Regular"><tspan y="-681.1681" x="35.721036 42.389715 47.57993 50.059144 56.241048 61.837415 65.60763 69.14504 71.62426 77.471569 80.98882 83.46803 89.39496 95.141498 98.648677 101.127887 106.841159 112.75902 118.550899 122.044979 124.52419 130.37554 136.14223 142.06916 147.85095 153.04119 155.5204 161.69524 165.2125 167.73503 172.9303 178.65467 181.13388 184.58763 190.46317 192.94239 198.74433 204.92522 210.65663 213.13584 219.28347 221.7627 227.68962 233.43614 236.94332 239.42253 245.1993 254.41875 260.61375 263.13127 268.87074 274.04988 279.85688 285.63768 290.82789 293.3071 301.9027 304.38194 307.9113 313.72636 316.20555 319.7349 325.60639 331.33076 333.80998 336.3184 341.87144 345.33934 351.12113 356.37986 359.91728 362.39649 367.77418 373.64567 379.4194 388.0765 391.69453 397.56605 403.33979 411.5212 413.9097 416.38893 418.8681 424.68318 427.16239 432.94114 439.52516 445.3019 451.21775 453.60627 456.08546 464.53797 470.26234 472.74156 478.65943 482.1666 488.34248 493.93885 499.76194 502.1736 507.07966 512.8826 519.0302 521.50949 526.7632 532.39077 537.58499 543.3617 546.89816 552.4864 554.9253">As part of our continuous drive to equip our employees with the latest know-how, in 2025, we organized several </tspan></text>
<text fill="#414042" xml:space="preserve" transform="matrix(1.0097178 0 -0 .99037578 -595.275 841.89)" font-size="10.0971779" font-family="ABCNormal-Regular"><tspan y="-669.33157" x="35.653528 41.53513 47.150175 53.036828 59.26679 64.739459 68.49965 74.43881 80.26993 82.76393 91.24657 97.18573 100.73287 105.929889 111.200618 117.092319 123.03148 129.25135 134.58769 136.98578 139.4798 142.94918 148.84088 151.3349 157.55072 161.04535 166.82802 172.20778 174.71189 180.9287 186.674 189.16802 192.71213 198.60384 204.40064 213.59412 216.08812 224.70909 227.2031 230.74721 236.58338 239.07738 244.77219 250.54174 254.30396 257.81373 260.30775 266.1762 272.3355 274.8295 280.65153 286.84718 293.05393 298.79417 301.28816 307.97245 310.77946 313.27345 318.6694 324.5611 330.35487 338.97987 341.51124 347.33326 353.5289 359.73466 365.47996 367.97395 373.58998 379.47563 385.64503 388.13899 394.3397 400.091 402.59513 408.81196 414.55726 417.05125 420.59535 426.48704 432.2838 441.4773 443.97129 446.46528 452.30146 454.79545 457.29954 463.5164 469.31214 475.12406 478.63386 481.12788 484.99308 490.39509 492.88908 498.75758 504.91685 507.41087 510.8994 516.67709 522.28506 524.774 527.268 535.7506 541.6898 545.22689 547.75418 553.87307">hands-on workshops, to provide them with cutting edge AI knowledge and guide them in identifying real world </tspan></text>
<text fill="#414042" xml:space="preserve" transform="matrix(1.0087915 0 -0 .99128529 -595.275 841.89)" font-size="10.0879139" font-family="ABCNormal-Regular"><tspan y="-655.6031" x="35.686265 41.292119 47.49921 53.70529 56.18692 58.66855 64.41059 69.96903 73.47155 75.95317 81.881839 87.76007 92.955348 95.44706 99.07063 104.643199 107.12482 109.64881 115.57748 119.05982 124.87248 131.02611 133.51784 136.98001 142.86125 145.35298 148.89385 154.7751 160.54033 163.03005 166.54064 169.03237 175.23644 181.02892 186.26958 188.75827 194.64054 200.432 205.7443 210.93958 213.43129 219.31255 225.12924 230.9429 237.16313 242.47946">applications tailored to their business needs.</tspan></text>
<text fill="#414042" xml:space="preserve" transform="matrix(.99583128 0 -0 1.0041862 -595.275 841.89)" font-size="9.958313" font-family="ABCNormal-Regular"><tspan y="-375.31858" x="36.150705 42.036066 47.734216 50.15807 55.226854 57.527227 59.923196 65.621349 68.01931 71.41509 73.815059 79.24233 82.638118 85.07492 90.151668 95.74824 98.04861 100.47246 105.541248 107.84161 113.89327 119.36636 123.035 126.47063 128.77098 134.49105 137.90674 140.2071 146.00682 151.6283 155.03403 157.3344 162.47388 165.90451 169.36205 175.00443 180.603 184.0386 189.66008 193.03594 198.71317 204.728 207.02835 213.55504 216.25376 218.55411 223.69359 227.12422 230.56185 235.98912 239.36002 245.03725 251.10784 256.27619 258.57658 262.05403 265.43486 271.22663 280.2289 282.5293 288.2065 294.26716 299.90956 305.51707 310.94435 314.34013 316.7301 322.52189 328.20808 330.50843 333.86637 339.6123 341.91267 347.36189 352.43666 358.11888 363.6746 369.29905 372.69386 375.08384 380.8756 386.5618 388.86219 394.51353 400.2555 405.38005 411.0015 414.42018 416.81614 422.53919 428.54405 430.8444 434.27507 440.01005 445.43736 448.87297 451.1733 457.7 460.39869 462.69908 465.12294 470.19169 472.49205 478.237 483.963 487.39866 489.699 492.10096 497.7573 502.89677 506.33238 508.63273 514.06 516.3604 522.42416 527.97689 532.97 538.04476 546.346 552.13778 555.52859 561.5633">This initiative is part of our structured AI strategy from education to execution ensuring that AI is not just a buzzword </tspan></text>
<text fill="#414042" xml:space="preserve" transform="matrix(.9960522 0 -0 1.0039635 -595.275 841.89)" font-size="9.960522" font-family="ABCNormal-Regular"><tspan y="-362.45317" x="36.142686 42.208646 47.835344 51.27172 53.5726 59.001089 61.301969 64.82002 70.29532 76.02063 82.04276 84.44026 90.498249 92.93061 98.52842 100.8293 106.87633 110.29777 112.735118 117.81497 123.46857 126.87506 129.17595 134.89928 138.31574 140.61661 146.21442 149.92472 153.4896 155.88011 161.42812 163.81865 169.47225 175.21947 180.69974 185.3075 187.60837 189.90924 192.30673 198.03704 203.78426 209.4259 214.54161 219.97608 223.37361 225.76415 231.55818 237.35521 239.65608 241.95696 247.43227 253.1745 259.19065 261.49156 264.92796 268.3673 273.8426 279.58683 284.72346 288.14894 293.94297 297.37837 306.4424 311.87089 315.26844 317.65895 323.45298 329.1404 331.4413 336.92958 342.4985 345.8811 351.67915 356.8646 361.9345 364.23539 370.03739 375.66108 379.06758 381.36848 387.16249 390.56898 396.61698 402.0923 407.7927 410.12046 415.0589 420.48738 423.88493 426.27543 432.06843 437.85749 440.20817 442.50907 451.84208 457.43989 459.74079 465.2081 467.64045 472.7771 478.52433 480.82524 486.41609 492.2101 497.95237 504.01536 509.65998 515.2608 518.6334 524.3129 530.3291 532.63 539.15908 541.8584 544.1593 549.6346 555.3768 561.4129">but a tangible driver of efficiency, innovation, and transformation across our organization. We also conducted AI and </tspan></text>
<text fill="#414042" xml:space="preserve" transform="matrix(.9958414 0 -0 1.004176 -595.275 841.89)" font-size="9.958413" font-family="ABCNormal-Regular"><tspan y="-349.43049" x="36.150339 41.75792 47.231069 50.606969 56.288244 61.939638 65.34542 67.64581 71.076488 74.51412 79.95341 82.3494 88.04761 90.4436 96.1667 102.17162 104.472019 109.606578 115.26395 120.4473 125.55995 127.94997 133.74179 139.48383 144.55268 146.85306 152.2804 155.71605 158.01644 165.42351 167.81352 170.24439 175.841 178.14139 185.36524 191.06345 193.50028 198.57709 204.22849 207.7438 212.85646 215.25446 218.93509 224.10352 226.40389 231.87705 237.6171 243.63198 245.93236 253.37429 258.89225 267.27726 269.57768 276.97377 279.29905 284.23646 289.6638 291.96418 299.18803 304.8862 307.323 312.39979 318.05119 321.5665 326.67918 329.07716 332.75679 337.35459">career training sessions at Nile University and New Giza University.</tspan></text>
<text fill="#015937" xml:space="preserve" transform="matrix(1 0 -0 1 -595.275 841.89)" font-size="16" font-family="ABCNormal-Bold" font-weight="bold"><tspan y="-701.8898" x="631.8425 643.05856 651.9705 661.81057 670.9786 677.05856 685.6345 694.80258 703.8746 713.1866 719.33059 723.47457 729.71456 738.3065 741.3305 750.4345 756.4505 765.4745 769.61849 779.10647 783.2504 792.7384">Cybersecurity Training</tspan></text>
<text fill="#414042" xml:space="preserve" transform="matrix(1.0099505 0 -0 .9901476 -595.275 841.89)" font-size="10.099504" font-family="ABCNormal-Regular"><tspan y="-682.6152" x="625.6173 631.82546 641.1291 647.43936 653.29 661.8271 667.6808 671.2711 673.82327 679.7507 685.96188 688.5675 694.5717 700.39608 703.97128 706.5769 710.11886 715.9533 721.6272 730.94699 736.20889 738.8145 742.3423 748.2909 750.89657 756.2321 759.9205 765.4287 770.79159 773.3972 778.72677 784.6117 790.3684 796.19277 799.73867 805.53579 808.1414 810.7229 815.98477 818.5904 824.2158 826.8215 831.9147 837.5997 842.9625 845.5682 851.842 855.4324 857.9774 863.9745 867.56387 870.11898 873.974 879.33688 881.9425 887.574 891.1795 893.78518 900.0024 906.06216 913.55599 916.1616 923.8423 929.8383 932.4228 938.6602 941.2134 947.1398 953.44998 955.95468 958.5603 965.30776 970.5696 973.17526 979.43496 985.1088 988.95266 992.55819 995.1638 1001.08926 1004.67459 1007.2802 1013.2854 1019.10879 1022.684 1025.2897 1031.0808 1037.0769 1046.3816 1055.6559 1058.211 1061.8167 1071.1384 1076.9921 1082.862 1086.4675 1089.0733 1092.5999 1098.5485 1101.1542 1104.7485 1110.7498 1116.0844 1119.6262 1125.481 1129.0703 1131.6235 1137.55 1143.6602">Empowering our teams to stay secure is a key priority at EFG Holding. As part of our commitment to fostering </tspan></text>
<text fill="#414042" xml:space="preserve" transform="matrix(1.007497 0 -0 .99255886 -595.275 841.89)" font-size="10.074969" font-family="ABCNormal-Regular"><tspan y="-667.85946" x="627.14089 632.68716 635.1656 640.83779 646.5674 649.0539 652.58517 658.32797 661.7987 667.5213 669.99978 675.8432 679.3594 681.8378 685.30868 691.08767 696.31558 698.79397 701.2724 703.7458 709.5188 715.3864 721.0969 726.80538 729.1881 731.6665 740.1154 745.83297 748.3114 754.18008 760.09909 765.3542 768.8209 774.62008 780.7608 783.23928 786.7655 792.6331 798.3507 800.8291 803.30349 809.77468 815.51846 821.7105 825.18136 830.9553 840.1779 845.78359 851.38229 856.6666 859.145 866.4262 871.8224 878.0396 883.8126 887.3187 889.7971 896.2784 902.0826 907.75479 913.49758 917.01168 919.4901 923.2682 928.55258 931.03097 938.1993 944.0568 949.6414 952.1148 954.6295 960.4025 966.249 972.43099 978.1153 979.8542 982.23696 984.71536 990.30899 996.1172 998.5956 1004.3686 1010.2151 1016.387 1021.9705 1028.1172 1030.5957 1036.4412 1042.6865 1045.0692 1047.5477 1053.4053 1058.9989 1064.8615 1071.0675 1076.5182 1080.26 1086.175 1091.9883 1094.4667 1100.0352 1105.4756 1111.704 1117.4769 1120.9911 1123.4645 1129.2376 1135.1052 1140.8157 1146.4979">a culture of resilience, we hosted the &#x2018;Supremacy Cyber Security Challenge&#x2019;, an engaging, hands-on experience </tspan></text>
<text fill="#414042" xml:space="preserve" transform="matrix(1.0099505 0 -0 .9901476 -595.275 841.89)" font-size="10.099504" font-family="ABCNormal-Regular"><tspan y="-656.35647" x="625.6173 631.8537 637.671 642.9409 645.4436 651.6497 657.5579 663.40048 669.5854 672.12039 675.60977 681.522 684.05697 689.3541 692.9183 696.4279 702.24526 708.1342 714.3414 717.9055 723.81369 729.631 735.4826 738.0176 743.6592 749.0967 755.3584 761.17568 764.71456 767.2495 772.73458 781.2686 786.9042 790.4138 796.2311 802.1393 807.9566 813.2982 818.5237 821.05868 826.7042 832.4347 835.9483 841.91207 847.25369 852.4791 855.0141 860.9829 866.76889 870.3078 872.8427 878.80148 882.34439 888.56167 894.19717 900.0609 902.505 907.5952 913.1883 916.71707 919.22579 925.1845 931.13717">designed to strengthen cyber awareness across our organization.</tspan></text>
<g clip-path="url(#p111_clip_2)">
<g mask="url(#p111_mask_3)">
<g transform="matrix(.3272509,0,0,.32725088,-299.42707,527.3362)">
<image id="p111_image_5" width="806" height="427" xlink:href="ART/a9bfae1d6207e.webp"/>
</g>
</g>
</g>
<g clip-path="url(#p111_clip_6)">
<g transform="matrix(.328611,0,0,.32861097,-559.10696,527.3362)">
<image id="p111_image_7" width="759" height="425" xlink:href="ART/a0701afbfb0e0.webp"/>
</g>
</g>
<g clip-path="url(#p111_clip_8)">
<g transform="matrix(.40359677,0,0,.40359683,-560.40896,206.4834)">
<image id="p111_image_9" width="1299" height="581" xlink:href="ART/aada72cef0999.webp"/>
</g>
</g>
<g clip-path="url(#p111_clip_10)">
<path transform="matrix(1,0,0,-1,316.72499,643.64596)" d="M0 0C-6.627 0-12-5.372-12-12V-137.862C-12-144.489-6.627-149.862 0-149.862H231.118C237.745-149.862 243.118-144.489 243.118-137.862V-12C243.118-5.372 237.745 0 231.118 0Z" fill="#b1c04f"/>
</g>
<text fill="#ffffff" xml:space="preserve" transform="matrix(1 0 -.14054 1 -595.275 841.89)" font-size="10" font-family="ABCNormal-Regular"><tspan y="-178.682" x="883.85867 886.14859 888.87857 891.4386 893.8585 899.49856 904.9685 908.40859 914.0775 917.5475 920.10757 925.2175 931.00747 933.5675 942.62747 948.26748 953.85757 959.5875 962.14248 965.5925 968.89248 974.6825 983.74246 986.3025 989.77249 995.50247 1001.14248 1003.7025 1009.2925 1015.0825 1020.72256 1024.1024 1029.2124 1034.8524 1037.4075 1042.9974 1048.7875 1054.5775 1057.8875 1063.9475 1066.3175 1072.0475 1077.4674 1080.8574 1086.6475 1090.0274 1095.1373 1096.9873 1099.5474 1106.8873 1112.5674 1121.0073">&#x2018;I learnt so much from the course coordinators. How </tspan><tspan y="-165.682" x="885.6886 889.07858 894.8685 899.08859 904.55856 910.6185 916.6785 919.0985 924.08956 928.3096 933.77957 936.1995 938.6195 942.83956 946.3095 952.0395 957.6795 961.89956 965.3695 971.0995 976.7395 982.5295 985.9695 990.95956 995.17959 997.90957 1002.1296 1004.5496 1010.18966 1015.6596 1019.09957 1024.7695 1028.2395 1032.4595 1037.8794 1041.3494 1045.5693 1051.2094 1056.9393 1059.3594 1064.4393 1070.0794 1073.4592 1078.5692 1080.9893 1084.4592 1089.4492 1093.6692 1096.0392 1101.7692 1105.9891 1109.2891 1114.9291 1120.399 1122.8191">to apply all the theory I learnt at university in real </tspan><tspan y="-152.682" x="887.5186 889.9386 892.3586 895.6786 901.3186 903.1686 906.6156 912.9956 916.4456 919.8356 925.4756 928.6656 932.3756 941.3056 946.29568 950.0057 952.3757 958.04568 961.4356 967.0756 970.5156 976.2456 981.3556 987.0856 989.45559 995.51559 999.2256 1002.6756 1005.0456 1010.7756 1013.1956 1018.3056 1024.0357 1029.6757 1035.7357 1037.5056 1041.2156 1044.6856 1050.4155 1055.8656 1060.8556 1064.5656 1070.2656 1073.4157 1076.4357 1082.0757 1085.3766 1091.0166 1097.0767 1100.7866 1109.8467 1115.4867 1119.1967 1124.6666">life. After my internship finished, they offered me a </tspan><tspan y="-139.682" x="889.34866 895.4086 901.04867 904.48867 913.54867 919.0186 924.7486 930.3886 936.0586 939.52859 942.50857 948.56857 954.3585 959.4685 961.8885 965.35848 967.77847 973.5684 979.2984 981.1484 984.12838 986.85836 989.8383 993.2283 999.01828 1004.8083 1009.85836 1012.8383 1015.25839 1018.72836 1021.7083 1027.4085 1030.6384 1033.6184 1039.2084 1044.9984 1050.6384 1054.0183 1059.1283 1064.7683 1066.5372 1069.5172 1075.5673 1081.2073 1086.7973 1092.2672 1097.9072 1103.0172 1108.6572 1111.6372 1115.1072 1120.8372 1126.4772">permanent position. I took it of course, because the </tspan><tspan y="-126.68201" x="891.17868 896.81869 902.42868 907.66867 910.03866 913.3386 919.1286 924.8586 933.9186 939.5586 945.2286 948.69857 952.51858 958.24856 963.88858 967.18856 972.82858 976.64859 979.06857 984.1785 987.99856 991.2985 996.93856 1002.4085 1004.8285 1007.2485 1012.23849 1016.0584 1022.10848 1025.4085 1031.0485 1036.4684 1039.9384 1041.2783">environment here is really great.&#x2019;</tspan></text>
<text fill="#124734" xml:space="preserve" transform="matrix(1 0 -0 1 -595.275 841.89)" font-size="10" font-family="ABCNormal-Bold" font-weight="bold"><tspan y="-86.5088" x="1120.3956 1127.8556 1136.8456 1142.4856 1146.0956">Omar </tspan></text>

<g clip-path="url(#p111_clip_11)">
<g transform="matrix(.33838586,0,0,.345827,34.776369,205.87783)">
<image id="p111_image_12" width="1553" height="582" xlink:href="ART/a7f2ee4a29d0e.webp"/>
</g>
</g>
<g clip-path="url(#p111_clip_13)">
<g transform="matrix(.2397818,0,0,.23961948,34.876649,417.4802)">
<image id="p111_image_14" width="1071" height="558" xlink:href="ART/a7be12f031765.webp"/>
</g>
</g>
<g clip-path="url(#p111_clip_15)">
<g transform="matrix(.2398528,0,0,.23987621,303.7212,417.35124)">
<image id="p111_image_16" width="1070" height="558" xlink:href="ART/acf48f5e705d6.webp"/>
</g>
</g>
<text fill="#414042" xml:space="preserve" transform="matrix(1.0099505 0 -0 .9901476 -595.275 841.89)" font-size="10.099504" font-family="ABCNormal-Regular"><tspan y="-262.4758" x="625.05599 631.1671 637.1188 640.69107 646.7154 652.55899 658.82168 664.79147 670.8158 676.66238 680.2881 682.93417 686.5599 692.5287 698.34597 700.992 706.78109 712.7398 718.4248 720.9901 723.5988 729.4727 735.41928 741.7032 747.5124 749.98678 752.6328 758.65719 764.5017 768.09719 770.74319 777.07357 782.9777 788.99398 795.28799 797.8967 803.714 806.36007 812.3197 818.0209 824.2623 826.9084 830.5341 836.5029 842.3202 844.96627 850.9825 857.2765 863.6069 869.6231 873.4862 877.11196 882.9565 888.8778 891.45217 895.32638 900.70938 903.3554 906.90237 912.8711 915.51718 921.32748 927.3447 936.6686 942.9979 948.8243 952.38638 958.19558 960.67 963.316 969.1263 975.1425 977.7078 980.30746 986.0005 992.31979 998.336 1001.9648 1007.6164 1011.1775 1016.9867 1019.46109 1022.10726 1027.8003 1033.7651 1040.0066 1042.6528 1048.0015 1053.9612 1059.6543 1063.2789 1069.6083 1075.4832 1081.3915 1084.0376 1087.6633 1093.6321 1099.4848 1102.057 1105.6525 1108.2987 1113.6473 1119.108 1121.6734 1124.2387 1126.8464 1132.1284 1134.7745 1137.3469 1143.135">Throughout the challenge, our people had the opportunity to compete, collaborate, and sharpen their skills in </tspan></text>
<text fill="#414042" xml:space="preserve" transform="matrix(.99355927 0 -0 1.0064825 -595.275 841.89)" font-size="9.935593" font-family="ABCNormal-Regular"><tspan y="-245.29964" x="635.3678 637.75637 643.79727 649.4208 655.0632 658.4403 660.81796 664.54476 669.7848 672.16439 677.86447 683.8437 686.1289 691.57858 697.2915 703.28268 705.5679 708.9251 714.5577 719.6685 725.74417 731.5118 737.22476 743.2288 745.6094 751.3085 757.2887 759.5739 762.91226 768.63516 770.92037 776.996 782.69808 786.05038 791.6739 797.31637 800.6934 803.077 808.51876 810.89236 813.1776 816.5895 822.2934 825.6507 831.25936 836.66726 840.1497 845.3143 847.64816 849.93338 856.6101 861.75576 864.04098 869.60586 875.3735 884.395 890.38327 892.7628 898.43698 900.8166 906.5156 912.49588 914.78109 920.43447 926.47036 932.0889 937.6727 943.0807 946.45779 948.8304 954.598 960.26028 962.54556 970.95108 973.33267 976.7445 982.40676 984.692 988.04928 993.6579 999.0996 1001.7186 1005.03219 1008.40927 1010.7888 1019.8273 1025.4002 1027.6854 1033.7262 1037.0883 1042.856 1048.8869 1051.3012 1056.9247 1066.1956 1069.6898 1074.8026 1080.5703 1082.9945 1088.2118 1090.5913 1096.2904 1102.3828 1104.6671 1106.9523 1110.3641 1116.085 1121.6578 1123.943 1126.3226 1131.9968 1134.3784 1137.7555 1140.139 1145.547 1148.9241 1151.3484 1156.4027 1162.0062">identifying and responding to potential threats. By combining education with real-time problem-solving, the initiative </tspan></text>
<text fill="#414042" xml:space="preserve" transform="matrix(1.0053607 0 -0 .994668 -595.275 841.89)" font-size="10.053606" font-family="ABCNormal-Regular"><tspan y="-235.14359" x="627.90957 633.7547 639.50637 641.9695 648.1735 653.9504 660.073 662.53616 665.9895 671.7201 674.1832 679.9439 683.4425 689.336 692.7995 698.4868 704.1822 706.6453 712.83938 718.59506 723.8289 727.34768 729.8108 735.9797 739.49649 745.08029 750.7776 754.2511 756.70919 762.39657 768.1522 773.31478 775.7779 781.3486 787.18869 793.31137 795.7744 801.5513 807.70516 813.4115 815.87466 821.99227 824.4553 830.3558 836.0763 839.5599 842.02297 845.4714 851.2029 856.7736 865.97476 871.1372 873.60037 882.16299 884.6261 888.1347 893.9256 896.3887 899.89736 905.7425 911.4429 913.906 917.3403 923.2689 929.1613 931.66067 936.8231 939.28628 942.7949 948.64 954.2228 959.48587 961.9489 967.79409 973.57589 979.3527 985.4703 987.9334 991.36776 997.21389 999.677 1005.51309 1010.934 1016.2695 1018.72158 1024.8713 1030.4008 1033.8491 1039.5446 1042.0076 1045.4419 1051.3645 1057.5243 1062.9302 1068.3964 1070.5848 1075.7526 1078.2156 1083.8175 1088.9942 1094.8865 1097.3969 1102.7323 1105.1954 1111.0184 1117.1261 1119.5891 1125.7219 1128.174 1134.2968 1136.7598 1140.355 1145.9175 1148.3505">helped reinforce best practices and equip our teams with the tools they need to navigate today&#x2019;s evolving digital </tspan></text>
<text fill="#414042" xml:space="preserve" transform="matrix(1.0051518 0 -0 .99487468 -595.275 841.89)" font-size="10.0515179" font-family="ABCNormal-Regular"><tspan y="-222.02777" x="628.04006 630.5288 636.09738 641.9353 648.11599 653.3377 659.04299 664.6115 670.81326 676.50747 678.97006 687.5309 689.99557 693.5025 699.2862 701.7488 707.4379 713.3281 719.08767 722.7282 725.19998 731.3675 737.11599 742.9589 748.648 754.3231">landscape with confidence.</tspan></text>
<g clip-path="url(#p111_clip_17)">
<g transform="matrix(.6411868,0,0,.6411869,36.567506,626.54226)">
<image id="p111_image_18" width="397" height="349" xlink:href="ART/ac920b5831fe6.webp"/>
</g>
</g>
<path transform="matrix(1,0,0,-1,-595.275,841.89)" d="M36 402.211H290.551V432.195H36Z" fill="#124734"/>
<path transform="matrix(1,0,0,-1,-595.275,841.89)" d="M631.843 435.883H886.39407V465.867H631.843Z" fill="#124734"/>
<text fill="#ffffff" xml:space="preserve" transform="matrix(1 0 -0 1 -595.275 841.89)" font-size="11" font-family="ABCNormal-Bold" font-weight="bold"><tspan y="-413.4683" x="48.189 55.812 59.002 61.080999 67.34 71.476 77.68 80.529 87.052 89.901 96.424 103.189 105.34501 115.949008 122.450008 126.674 132.83402 138.73001 145.253 151.75402">AI Training Workshop</tspan><tspan y="-447.13929" x="644.026 651.737 657.864 664.629 670.932 675.112 681.008 687.311 693.548 699.94998 704.17398 707.02297 711.3129 717.22 719.59597 727.30697 733.82998 740.03396 742.86099 745.688 751.99099 758.514 765.279 771.582">Cybersecurity Challengea</tspan></text>

<g clip-path="url(#p111_clip_19)">



</g>
</g>
</g>
<defs><path id="p111_font_13_23" d="M.13200379 .34913636C.13200379 .36644999 .13217163 .3855896 .13250733 .40655519 .13284302 .4275309 .13450623 .44850669 .13749695 .46948243 .14049785 .49045817 .14483135 .5109355 .15049744 .5309143 .15616353 .5508931 .16449483 .56836959 .17549134 .5833435 .186498 .59832766 .20033264 .6104787 .21699524 .61979678 .23366802 .62912496 .2540029 .63378909 .27799989 .63378909 .30199687 .63378909 .32232667 .62912496 .33898927 .61979678 .35566203 .6104787 .36949668 .59832766 .38049317 .5833435 .39149986 .56836959 .3998362 .5508931 .40550233 .5309143 .41116844 .5109355 .41549684 .49045817 .41848756 .46948243 .42148844 .44850669 .42315675 .4275309 .42349244 .40655519 .42382813 .3855896 .42399598 .36644999 .42399598 .34913636 .42399598 .3224945 .42316184 .2926941 .42149354 .2597351 .41982524 .22677613 .41448976 .19581096 .40548707 .1668396 .39649455 .13787842 .3819987 .11340841 .3619995 .093429569 .34200035 .0734609 .31400047 .06347656 .27799989 .06347656 .24199932 .06347656 .21399944 .0734609 .19400025 .093429569 .17400106 .11340841 .15950012 .13787842 .15049744 .1668396 .14150493 .19581096 .13617452 .22677613 .13450623 .2597351 .13283794 .2926941 .13200379 .3224945 .13200379 .34913636M.042007448 .348114C.042007448 .3221334 .042673749 .29514567 .044006349 .26715089 .045338949 .23916626 .048670453 .21184285 .054000856 .18518067 .05934143 .15852864 .06701151 .133372 .07701111 .10971069 .087010707 .0860494 .10067749 .06522115 .118011478 .047225954 .13534546 .029240927 .1571757 .01508077 .1835022 .0047454836 .20983887-.0055796306 .24133809-.0107421879 .27799989-.0107421879 .31534324-.0107421879 .34701029-.0055796306 .3730011 .0047454836 .39900209 .01508077 .42066957 .029240927 .43800355 .047225954 .45533753 .06522115 .4690043 .0860494 .4790039 .10971069 .4890035 .133372 .4966685 .15852864 .5019989 .18518067 .5073395 .21184285 .5106761 .23916626 .51200869 .26715089 .51334127 .29514567 .51400759 .3221334 .51400759 .348114 .51400759 .37410484 .51334127 .40109254 .51200869 .42907716 .5106761 .45707194 .5073395 .48439536 .5019989 .51104739 .4966685 .53770956 .4890035 .56303408 .4790039 .5870209 .4690043 .6110179 .45533753 .632014 .43800355 .65000918 .42066957 .66800436 .39883424 .68233236 .37249757 .69299319 .34617106 .703654 .31467185 .7089844 .27799989 .7089844 .24133809 .7089844 .20983887 .703654 .1835022 .69299319 .1571757 .68233236 .13534546 .66800436 .118011478 .65000918 .10067749 .632014 .087010707 .6110179 .07701111 .5870209 .06701151 .56303408 .05934143 .53770956 .054000856 .51104739 .048670453 .48439536 .045338949 .45707194 .044006349 .42907716 .042673749 .40109254 .042007448 .37410484 .042007448 .348114Z"/><path id="p111_font_13_25" d="M.044006349 .45777894H.1289978C.1283366 .47912089 .13050334 .5002899 .13549805 .521286 .14050293 .5422821 .14867147 .56111147 .16000366 .57777407 .17133586 .59444686 .18583171 .60795089 .20349121 .61828616 .22116089 .6286214 .24232991 .63378909 .2669983 .63378909 .2856649 .63378909 .30332948 .63078817 .31999208 .6247864 .33666484 .61879476 .35116578 .6101329 .36349488 .59880068 .37583415 .58746847 .385671 .57396957 .39300538 .55830386 .40033976 .5426483 .40400697 .5251567 .40400697 .50582888 .40400697 .48117066 .4001719 .45950828 .39250184 .44084168 .38483177 .42218528 .37349449 .40486146 .35849 .38887025 .3434957 .37287904 .32466636 .35705058 .30200196 .3413849 .27933757 .32572938 .25300599 .30856834 .2230072 .28990174 .19833882 .27524314 .17466736 .25958253 .1519928 .24291992 .12932842 .22625733 .10899353 .20692952 .09098816 .18493653 .07299296 .16294353 .05816142 .13711548 .04649353 .10745239 .034835817 .07779948 .027338664 .041982015 .024002076 0H.4869995V.07519531H.1230011C.1269989 .09718832 .13549805 .11667887 .14849854 .13366699 .16149903 .15066529 .17716472 .16649373 .1954956 .18115235 .21383667 .19582112 .23400371 .20965068 .2559967 .22264099 .27799989 .23564148 .30000306 .24880474 .32200624 .26213075 .34399925 .27612815 .36533103 .29079185 .3860016 .30612184 .40667216 .3214518 .42500306 .33861289 .44099427 .35760499 .45699565 .37659709 .46982829 .39808656 .4794922 .42207337 .48916627 .44607035 .4940033 .47372947 .4940033 .50505068 .4940033 .53837588 .48816935 .5676982 .47650147 .5930176 .4648336 .61834719 .44900004 .63950607 .42900086 .65649417 .40900169 .67349246 .38550315 .68648788 .35850526 .69548037 .33150736 .70448306 .30267335 .7089844 .27200318 .7089844 .23467 .7089844 .20133464 .70263168 .17199707 .68992617 .14266968 .67723086 .11816915 .6596985 .09849548 .6373291 .07883199 .6149699 .064331058 .5884552 .054992677 .55778506 .04566447 .52711489 .04200236 .4937795 .044006349 .45777894Z"/><path id="p111_font_13_28" d="M.47000123 .6220703V.6972656H.11999512L.054000856 .32859803 .1269989 .32460023C.1436615 .3445994 .16282654 .36076356 .18449402 .37309266 .2061615 .38543193 .23099773 .39160157 .2590027 .39160157 .28299967 .39160157 .30482994 .38760887 .3244934 .3796234 .34416709 .37164817 .3610026 .3605143 .375 .34622193 .38900758 .33192954 .3998413 .31497193 .40750123 .29534913 .4151713 .27573649 .41900636 .25429789 .41900636 .23103333 .41900636 .20310974 .41500346 .17867534 .40699769 .1577301 .39900209 .13678487 .38816834 .11932882 .37449647 .10536194 .36083476 .091405238 .34483338 .08093262 .3264923 .07394409 .3081614 .06696574 .28899638 .06347656 .2689972 .06347656 .2476654 .06347656 .22816468 .06664022 .210495 .07296753 .19282532 .079305019 .17749024 .0883077 .16448975 .099975589 .15148926 .11164347 .14115398 .12531026 .13348389 .14097595 .12582398 .15664165 .12132772 .17347209 .11999512 .19146729H.035003663C.03567505 .15947469 .042007448 .13080852 .054000856 .10546875 .06600443 .08013916 .082336429 .058949789 .102996829 .041900636 .1236674 .024861655 .14750164 .0118255619 .17449951 .0027923585 .20149739-.0062306725 .23033142-.0107421879 .2610016-.0107421879 .30233256-.0107421879 .33849589-.0042521159 .36949159 .008728027 .40049745 .021718344 .42633058 .039204915 .44699098 .061187746 .46766154 .08317057 .48316447 .10831197 .49349977 .13661194 .503835 .16492208 .5090027 .19406128 .5090027 .22402954 .5090027 .2646586 .5030009 .30012513 .4909973 .33042909 .4790039 .36073304 .4626719 .38604228 .44200135 .4063568 .42133079 .42667137 .396993 .44182334 .36898805 .45181275 .34099327 .46180216 .31133018 .46679688 .27999879 .46679688 .2560018 .46679688 .23183187 .46261598 .20748902 .45425416 .18315633 .4459025 .163325 .43303935 .147995 .41566468L.1459961 .41766358 .18400574 .6220703H.47000123Z"/><path id="p111_font_13_3" d=""/><path id="p111_font_13_48" d="M.08200073 .7138672V0H.17700196V.7138672H.08200073Z"/><path id="p111_font_13_59" d="M.2400055 .63378909V0H.3350067V.63378909H.57299807V.7138672H.0019989014V.63378909H.2400055Z"/><path id="p111_font_13_72" d="M.5220032 .0022583008C.5073344-.0064086916 .4869995-.0107421879 .46099855-.0107421879 .43900553-.0107421879 .4215088-.0045776369 .4085083 .007751465 .3955078 .020090739 .38900758 .04026286 .38900758 .06826782 .36567179 .04026286 .33850099 .020090739 .30749513 .007751465 .27649943-.0045776369 .2430013-.0107421879 .20700073-.0107421879 .18366497-.0107421879 .16149394-.008076985 .14048767-.002746582 .11949158 .0025838216 .10132853 .01091512 .085998538 .022247315 .07066854 .03357951 .058502199 .048405965 .04949951 .066726688 .040496828 .08505758 .035995485 .10721842 .035995485 .13320923 .035995485 .16253662 .04099528 .18652852 .050994874 .20518494 .060994466 .22384136 .074157718 .23899842 .09048462 .25065614 .10682169 .262324 .12548828 .27115885 .14648438 .27716065 .16749065 .28316245 .18899536 .28816224 .21099854 .29216004 .2343343 .29681907 .25650025 .30031333 .27749635 .30264283 .29849244 .3049825 .31699119 .3083191 .33299256 .3126526 .34899394 .31698609 .36165873 .3233134 .37098695 .33163453 .38032533 .33996583 .3849945 .35213218 .3849945 .36813355 .3849945 .38678996 .38149516 .40178428 .37449647 .41311646 .36749778 .42444865 .3584951 .43311057 .3474884 .43910218 .3364919 .44510398 .3241577 .44910179 .31048585 .45109559 .29682414 .45309959 .2833303 .45410157 .27000428 .45410157 .23400371 .45410157 .20400493 .44729106 .18000794 .43367005 .15601094 .42004905 .14301045 .39430747 .14100647 .3564453H.055999757C.057332357 .38841758 .06399536 .4153951 .07598877 .43737794 .08799235 .45936076 .103993739 .47717796 .12399292 .49082948 .14399211 .504481 .16682434 .51430258 .19248963 .5202942 .21816509 .52629598 .2456665 .5292969 .2749939 .5292969 .29832969 .5292969 .3214976 .5276286 .34449769 .524292 .36749778 .5209656 .3883311 .5141347 .40699769 .50379946 .42566429 .49347434 .44066368 .47897849 .45199586 .4603119 .46332804 .4416555 .46899415 .41733299 .46899415 .38734437V.12145996C.46899415 .10146078 .4701589 .08679708 .4724884 .07746887 .4748281 .06814066 .48266603 .06347656 .4960022 .06347656 .5033366 .06347656 .5120036 .06507365 .5220032 .06826782V.0022583008M.3840027 .26727296C.3733317 .25927735 .35932923 .2534485 .34199525 .24978638 .32467143 .24612427 .3065084 .24312847 .2875061 .24079895 .26850382 .23846944 .2493337 .23580425 .22999573 .23280335 .21066793 .22981262 .19333904 .22498577 .17800904 .21832276 .16267903 .21165975 .150177 .20216878 .14050293 .18984986 .13083904 .17753093 .12600708 .16071575 .12600708 .1394043 .12600708 .12541707 .12884014 .113591518 .13450623 .10392761 .14017232 .09427389 .14750672 .08645121 .1565094 .080459598 .16551209 .07446798 .17601013 .070139568 .18800354 .067474368 .20000713 .064809169 .21267192 .06347656 .22599793 .06347656 .2540029 .06347656 .27800498 .06730652 .29800416 .07496643 .31800334 .08262634 .33433534 .09228007 .34700013 .10392761 .35966493 .11558533 .3689982 .12823995 .375 .14189148 .3810018 .15555318 .3840027 .16837566 .3840027 .18035889V.26727296Z"/><path id="p111_font_13_76" d="M.42300416 .3076172H.12600708C.12733968 .3276876 .13167317 .34658305 .13900757 .3643036 .14634197 .3820343 .15634156 .3975881 .16900635 .41096498 .18167115 .42434184 .19683838 .4348755 .21450806 .44256593 .23217774 .45025636 .25200907 .45410157 .27400209 .45410157 .29533387 .45410157 .3148346 .45025636 .33250428 .44256593 .35017396 .4348755 .36550904 .4245046 .37850953 .41145326 .39151 .39841209 .4018402 .38286338 .40950013 .36480714 .4171702 .3467509 .42167155 .3276876 .42300416 .3076172M.5050049 .1640625H.42100526C.41367088 .13019817 .39850364 .10496521 .37550355 .08836365 .35250346 .071772258 .32300315 .06347656 .28700257 .06347656 .25900779 .06347656 .2346751 .068115238 .21400452 .07739258 .19334412 .08666992 .17634583 .099090579 .16300965 .11465454 .14967346 .13022869 .14000447 .14811707 .13400269 .1683197 .1280009 .18853252 .1253357 .2098999 .12600708 .23242188H.5130005C.51433309 .26384483 .51150009 .29694114 .50450137 .33171083 .49750266 .3664805 .48483277 .39857484 .4664917 .42799378 .4481608 .45741273 .42382813 .48164878 .39349366 .5007019 .36315919 .5197652 .32499186 .5292969 .2789917 .5292969 .24366252 .5292969 .2111613 .5226288 .18148804 .5092926 .15182495 .49595643 .12615967 .47728477 .10449219 .4532776 .08282471 .4292806 .065989177 .40094505 .053985597 .36827088 .041992189 .3356069 .035995485 .29961143 .035995485 .26028443 .037328084 .22094727 .04316203 .18461101 .053497316 .15127564 .0638326 .11794027 .079330448 .089269008 .099990848 .06526184 .120661418 .04126485 .14616394 .022598267 .17649842 .009262085 .20683289-.0040740969 .2426656-.0107421879 .28399659-.0107421879 .34267173-.0107421879 .39134217 .00390625 .43000794 .033203126 .4686737 .06251017 .4936727 .10612997 .5050049 .1640625Z"/><path id="p111_font_13_79" d="M.06399536 .7138672V0H.14900208V.29206849C.14900208 .31540428 .15216573 .33690898 .15849304 .35658265 .16483052 .37625633 .17433167 .39342753 .18699646 .4080963 .19966126 .4227651 .2154948 .4340973 .23449707 .4420929 .25349937 .45009867 .27600099 .45410157 .30200196 .45410157 .33466593 .45410157 .3603312 .44476319 .3789978 .42608644 .3976644 .40741984 .40699769 .38208518 .40699769 .3500824V0H.4920044V.3401947C.4920044 .36820985 .48917137 .39372254 .48350526 .4167328 .47783915 .43974305 .46800233 .45958457 .45399476 .47625733 .43999736 .49294029 .42166648 .5059509 .39900209 .5152893 .37633769 .5246277 .3480021 .5292969 .31399537 .5292969 .29866538 .5292969 .28283183 .5276235 .26649476 .52427676 .25016786 .52093 .23450215 .515742 .21949768 .50871279 .20450337 .50168356 .19100444 .49264527 .17900086 .4815979 .16699727 .47055055 .15766399 .45699058 .15100098 .44091798H.14900208V.7138672H.06399536Z"/><path id="p111_font_13_84" d="M.06399536 .5172882V0H.14900208V.32206727C.14900208 .33207704 .15149944 .34457908 .15649414 .35957337 .16149903 .37457786 .16949971 .38907878 .18049622 .40307618 .19150289 .41708375 .20583599 .4290873 .22349549 .4390869 .24116516 .44909669 .2623342 .45410157 .28700257 .45410157 .30634056 .45410157 .32217408 .45126853 .33450318 .44560243 .34683229 .4399363 .35666404 .43193565 .3639984 .42160035 .3713328 .41126506 .37650047 .39909364 .37950135 .38508607 .38250224 .3710785 .3840027 .3557434 .3840027 .3390808V0H.46899415V.32206727C.46899415 .3620758 .48099265 .39408366 .5049896 .41809083 .52899679 .442098 .56199648 .45410157 .60398867 .45410157 .62465927 .45410157 .64149478 .45110069 .65449526 .44509889 .6674957 .43909709 .67766317 .43092857 .68499758 .42059327 .69233199 .41025798 .6973317 .39808656 .69999697 .38407899 .70266219 .37008158 .70399478 .35508219 .70399478 .3390808V0H.78900149V.37921144C.78900149 .40589396 .7848358 .42874146 .7765045 .4477539 .7681732 .46676637 .7565053 .48227439 .74150088 .49427796 .7264964 .50628158 .7084961 .5151164 .6875 .5207825 .6665039 .52645877 .6430054 .5292969 .6170044 .5292969 .5829976 .5292969 .55182906 .5216268 .52349856 .5062866 .49516807 .49095664 .47233583 .46928916 .45500184 .44128419 .44433085 .47328697 .42599488 .49595643 .3999939 .5092926 .37400309 .5226288 .34500633 .5292969 .31300355 .5292969 .24033101 .5292969 .18466187 .49994914 .1459961 .44125367H.14399719V.5172882H.06399536Z"/><path id="p111_font_13_85" d="M.06399536 .5172882V0H.14900208V.29206849C.14900208 .31540428 .15216573 .33690898 .15849304 .35658265 .16483052 .37625633 .17433167 .39342753 .18699646 .4080963 .19966126 .4227651 .2154948 .4340973 .23449707 .4420929 .25349937 .45009867 .27600099 .45410157 .30200196 .45410157 .33466593 .45410157 .3603312 .44476319 .3789978 .42608644 .3976644 .40741984 .40699769 .38208518 .40699769 .3500824V0H.4920044V.3401947C.4920044 .36820985 .48917137 .39372254 .48350526 .4167328 .47783915 .43974305 .46800233 .45958457 .45399476 .47625733 .43999736 .49294029 .42166648 .5059509 .39900209 .5152893 .37633769 .5246277 .3480021 .5292969 .31399537 .5292969 .23732503 .5292969 .18132527 .49794517 .1459961 .4352417H.14399719V.5172882H.06399536Z"/><path id="p111_font_13_89" d="M.06100464 .5172882V0H.1459961V.23023987C.1459961 .26360575 .14932759 .2931315 .1559906 .31881715 .16266378 .34451295 .17333476 .36636863 .18800354 .38438417 .20267232 .40240989 .2220052 .41609193 .2460022 .4254303 .26999919 .43477885 .29899598 .43945313 .33299256 .43945313V.5292969C.28700257 .53062948 .2490031 .5212911 .21899414 .50128176 .18899536 .48127238 .16366577 .45025636 .14300537 .40823365H.14100647V.5172882H.06100464Z"/><path id="p111_font_13_91" d="M.18200684 .5175781V.671875H.09700012V.5175781H.009002686V.4423828H.09700012V.113098148C.09700012 .08908081 .09933472 .069732669 .104003909 .05505371 .108673099 .040374757 .11583964 .029027304 .12550354 .021011353 .13516744 .013005574 .14783223 .007502238 .16349793 .004501343 .17916362 .0015004476 .19799805 0 .22000122 0H.28500367V.07519531H.2460022C.23266602 .07519531 .22183228 .075693767 .21350098 .076690677 .20516968 .077697757 .19866944 .0798645 .19400025 .08319092 .18934123 .086527507 .18617757 .09119669 .18450928 .09719849 .18284099 .10321045 .18200684 .111216228 .18200684 .12121582V.4423828H.28500367V.5175781H.18200684Z"/><path id="p111_font_13_96" d="M.2669983-.069107059C.2569987-.094426479 .24716695-.115748088 .23750305-.1330719 .22783916-.1503957 .21717327-.16455078 .20550537-.17553711 .19383748-.18653362 .18083699-.19452922 .1665039-.19952393 .15217082-.20452881 .13567098-.20703125 .117004398-.20703125 .1070048-.20703125 .09700521-.20636495 .087005618-.20503235 .07700602-.20369976 .067337039-.20136516 .057998659-.19802857V-.12007141C.065333049-.12333679 .07383219-.12611389 .083496097-.12840271 .093170169-.13069153 .10133871-.13183594 .10800171-.13183594 .1253357-.13183594 .13983663-.12767029 .15150452-.11933899 .16317241-.11101786 .17200215-.09919739 .17799378-.08387756L.21299744 .0030517579 .0079956059 .51660159H.104003909L.25500489 .093811038H.25700379L.4019928 .51660159H.4920044L.2669983-.069107059Z"/></defs><use data-text="T" xlink:href="#p111_font_13_59" transform="matrix(10,0,0,-10,451.89064,768.3812)" fill="#124734"/><use data-text="a" xlink:href="#p111_font_13_72" transform="matrix(10,0,0,-10,456.52064,768.3812)" fill="#124734"/><use data-text="n" xlink:href="#p111_font_13_85" transform="matrix(10,0,0,-10,461.89064,768.3812)" fill="#124734"/><use data-text="m" xlink:href="#p111_font_13_84" transform="matrix(10,0,0,-10,467.45069,768.3812)" fill="#124734"/><use data-text="e" xlink:href="#p111_font_13_76" transform="matrix(10,0,0,-10,475.9807,768.3812)" fill="#124734"/><use data-text="y" xlink:href="#p111_font_13_96" transform="matrix(10,0,0,-10,481.3507,768.3812)" fill="#124734"/><use data-text="a" xlink:href="#p111_font_13_72" transform="matrix(10,0,0,-10,486.3507,768.3812)" fill="#124734"/><use data-text="h" xlink:href="#p111_font_13_79" transform="matrix(10,0,0,-10,491.7207,768.3812)" fill="#124734"/><use data-text=" " xlink:href="#p111_font_13_3" transform="matrix(10,0,0,-10,497.28077,768.3812)" fill="#124734"/><use data-text="I" xlink:href="#p111_font_13_48" transform="matrix(10,0,0,-10,500.0608,768.3812)" fill="#124734"/><use data-text="n" xlink:href="#p111_font_13_85" transform="matrix(10,0,0,-10,502.65077,768.3812)" fill="#124734"/><use data-text="t" xlink:href="#p111_font_13_91" transform="matrix(10,0,0,-10,508.21083,768.3812)" fill="#124734"/><use data-text="e" xlink:href="#p111_font_13_76" transform="matrix(10,0,0,-10,511.36085,768.3812)" fill="#124734"/><use data-text="r" xlink:href="#p111_font_13_89" transform="matrix(10,0,0,-10,516.73086,768.3812)" fill="#124734"/><use data-text="n" xlink:href="#p111_font_13_85" transform="matrix(10,0,0,-10,520.24087,768.3812)" fill="#124734"/><use data-text=" " xlink:href="#p111_font_13_3" transform="matrix(10,0,0,-10,525.8009,768.3812)" fill="#124734"/><use data-text="2" xlink:href="#p111_font_13_25" transform="matrix(10,0,0,-10,528.58096,768.3812)" fill="#124734"/><use data-text="0" xlink:href="#p111_font_13_23" transform="matrix(10,0,0,-10,534.141,768.3812)" fill="#124734"/><use data-text="2" xlink:href="#p111_font_13_25" transform="matrix(10,0,0,-10,539.70108,768.3812)" fill="#124734"/><use data-text="5" xlink:href="#p111_font_13_28" transform="matrix(10,0,0,-10,545.2611,768.3812)" fill="#124734"/><use data-text=" " xlink:href="#p111_font_13_3" transform="matrix(10,0,0,-10,550.82119,768.3812)" fill="#124734"/></svg>
